<?xml version="1.0" encoding="UTF-8" standalone="no"?>
<svg
   xmlns:dc="http://purl.org/dc/elements/1.1/"
   xmlns:cc="http://creativecommons.org/ns#"
   xmlns:rdf="http://www.w3.org/1999/02/22-rdf-syntax-ns#"
   xmlns:svg="http://www.w3.org/2000/svg"
   xmlns="http://www.w3.org/2000/svg"
   xmlns:sodipodi="http://sodipodi.sourceforge.net/DTD/sodipodi-0.dtd"
   xmlns:inkscape="http://www.inkscape.org/namespaces/inkscape"
   version="1.1"
   id="svg2"
   xml:space="preserve"
   width="921.12482"
   height="212.32843"
   viewBox="0 0 921.12482 212.32843"
   sodipodi:docname="BISI_NEGATIVE.svg"
   inkscape:version="1.0.1 (3bc2e813f5, 2020-09-07)"><metadata
     id="metadata8"><rdf:RDF><cc:Work
         rdf:about=""><dc:format>image/svg+xml</dc:format><dc:type
           rdf:resource="http://purl.org/dc/dcmitype/StillImage" /><dc:title></dc:title></cc:Work></rdf:RDF></metadata><defs
     id="defs6"><clipPath
       clipPathUnits="userSpaceOnUse"
       id="clipPath22"><path
         d="M 0,156.611 H 629.291 V 0 H 0 Z"
         id="path20" /></clipPath><clipPath
       clipPathUnits="userSpaceOnUse"
       id="clipPath22-0"><path
         d="M 0,156.611 H 629.291 V 0 H 0 Z"
         id="path20-8" /></clipPath></defs><sodipodi:namedview
     pagecolor="#1e1e1e"
     bordercolor="#666666"
     borderopacity="1"
     objecttolerance="10"
     gridtolerance="10"
     guidetolerance="10"
     inkscape:pageopacity="0"
     inkscape:pageshadow="2"
     inkscape:window-width="1920"
     inkscape:window-height="1001"
     id="namedview4"
     showgrid="false"
     inkscape:pagecheckerboard="false"
     inkscape:zoom="0.835464"
     inkscape:cx="662.39609"
     inkscape:cy="-78.632197"
     inkscape:window-x="-9"
     inkscape:window-y="-9"
     inkscape:window-maximized="1"
     inkscape:current-layer="g16"
     inkscape:document-rotation="0"
     fit-margin-top="0"
     fit-margin-left="0"
     fit-margin-right="0"
     fit-margin-bottom="0" /><g
     id="g10"
     inkscape:groupmode="layer"
     inkscape:label="VUB-BISI_MONO"
     transform="matrix(1.3333333,0,0,-1.3333333,-0.85783344,211.04972)"><path
       id="path14"
       style="fill:#ffffff;fill-opacity:1;fill-rule:nonzero;stroke:none;stroke-width:1.33333"
       d="M 28.820312,28.814453 V 69.125 l 18.470704,52.15625 h 0.05664 L 63.076172,75.332031 c 0,0 0.02188,-0.0662 0.06055,-0.158203 1.024,-3.497333 4.271609,-6.048828 8.099609,-6.048828 l 3.94336,-0.002 12.097656,0.002 v 47.70703 c 0.05867,2.33333 0.311187,4.59432 1.367187,6.70899 1.710667,3.00666 4.87437,5.15889 8.595703,5.60156 0.128,0.0147 0.255433,0.0284 0.384766,0.0391 0.337333,0.028 0.680677,0.0449 1.027344,0.0449 0.346666,0 0.69063,-0.0169 1.029297,-0.0449 0.128,-0.0107 0.254815,-0.0244 0.382806,-0.0391 3.72134,-0.44267 6.88504,-2.5949 8.59571,-5.60156 1.056,-2.11467 1.3079,-4.37566 1.36523,-6.70899 V 69.125 h 12.63477 v 45.01758 c 0,5.06666 -0.31333,9.92487 -2.36133,14.29687 -3.732,7.40134 -11.51285,12.59356 -20.603515,12.96289 -0.345333,0.016 -0.693635,0.0254 -1.042968,0.0254 -0.349334,0 -0.697636,-0.009 -1.042969,-0.0254 -9.090666,-0.36933 -16.871516,-5.56155 -20.603516,-12.96289 -2.046666,-4.372 -2.361328,-9.23021 -2.361328,-14.29687 V 82.263672 H 74.541016 L 74.396484,82.703125 53.800781,139.66016 H 41.056641 L 28.820312,106.54102 v 73.45312 H 180.00195 V 28.814453 Z m 114.173828,40.28125 c 6.40133,0 12.89569,-0.287505 18.81836,2.673828 5.828,2.961334 9.93555,9.266756 9.93555,15.857422 0,5.54 -2.57766,10.986084 -7.73633,13.468747 7.73733,2.48534 12.03711,9.07499 12.03711,17.09766 0,6.87867 -3.15428,12.70779 -8.59961,16.81445 -5.636,4.10934 -12.79937,4.48902 -19.58203,4.67969 h -21.2793 l 0.0117,-70.5625 z m 4.91602,12.691406 c -0.78475,0.0027 -1.54757,0.01367 -2.24024,0.01367 l -5.94922,-0.0098 v 14.449218 l 6.04492,-0.01758 c 2.77067,0 6.40077,0.09784 8.88477,-1.048828 2.484,-1.146667 4.01172,-3.821427 4.01172,-6.496094 0,-2.866666 -1.81587,-5.158317 -4.39453,-6.208984 -1.452,-0.627 -4.00317,-0.689703 -6.35742,-0.681641 z m -8.18946,27.142581 v 18.05078 l 9.00586,0.004 c 3.82134,0 7.35626,-0.18971 10.79492,-2.48438 2.388,-1.62267 3.43946,-3.91695 3.43946,-6.87695 0,-3.43734 -1.62431,-5.54039 -4.68164,-7.26172 -2.96,-1.528 -6.11363,-1.43164 -9.26563,-1.43164 z"
       transform="matrix(0.75000002,0,0,-0.75000002,0,156.61101)" /><g
       id="g16"><g
         id="g18"
         clip-path="url(#clipPath22)"><g
           id="g24"
           transform="translate(21.6147,104.7676)" /><g
           id="g28"
           transform="translate(119.6411,63.2363)" /><g
           id="g32"
           transform="translate(10.9683,104.7671)"><path
             d="M 0,0 10.646,-28.076 V -10.523 0 Z"
             style="fill:#ffffff;fill-opacity:1;fill-rule:nonzero;stroke:none"
             id="path34" /></g><g
           id="g36"
           transform="translate(161.0386,125.3032)"><path
             d="m 0,0 c 0,-1.215 0.853,-2.045 1.963,-2.045 0.9,0 1.964,0.701 1.964,2.045 V 3.156 C 3.927,4.009 3.413,5.201 1.94,5.201 0.806,5.201 0,4.36 0,3.109 Z m -0.97,3.063 c 0,2.501 2.08,2.992 2.922,2.992 1.391,0 2.933,-0.959 2.933,-2.922 v -3.11 c 0,-2.279 -1.94,-2.921 -2.898,-2.921 -1.099,0 -2.957,0.701 -2.957,2.921 z"
             style="fill:#ffffff;fill-opacity:1;fill-rule:nonzero;stroke:none"
             id="path38" /></g><g
           id="g40"
           transform="translate(169.2524,130.376)"><path
             d="M 0,0 H -1.742 V 0.83 H 0.97 V -7.819 H 0 Z"
             style="fill:#ffffff;fill-opacity:1;fill-rule:nonzero;stroke:none"
             id="path42" /></g><g
           id="g44"
           transform="translate(174.2397,125.3032)"><path
             d="m 0,0 c 0,-1.215 0.854,-2.045 1.964,-2.045 0.9,0 1.964,0.701 1.964,2.045 V 3.156 C 3.928,4.009 3.413,5.201 1.94,5.201 0.807,5.201 0,4.36 0,3.109 Z m -0.97,3.063 c 0,2.501 2.081,2.992 2.922,2.992 1.391,0 2.934,-0.959 2.934,-2.922 v -3.11 c 0,-2.279 -1.94,-2.921 -2.899,-2.921 -1.098,0 -2.957,0.701 -2.957,2.921 z"
             style="fill:#ffffff;fill-opacity:1;fill-rule:nonzero;stroke:none"
             id="path46" /></g><g
           id="g48"
           transform="translate(180.8408,125.3032)"><path
             d="m 0,0 c 0,-1.215 0.854,-2.045 1.964,-2.045 0.9,0 1.964,0.701 1.964,2.045 V 3.156 C 3.928,4.009 3.413,5.201 1.94,5.201 0.807,5.201 0,4.36 0,3.109 Z m -0.97,3.063 c 0,2.501 2.08,2.992 2.922,2.992 1.391,0 2.934,-0.959 2.934,-2.922 v -3.11 c 0,-2.279 -1.941,-2.921 -2.899,-2.921 -1.098,0 -2.957,0.701 -2.957,2.921 z"
             style="fill:#ffffff;fill-opacity:1;fill-rule:nonzero;stroke:none"
             id="path50" /></g><g
           id="g52"
           transform="translate(187.4424,125.3032)"><path
             d="m 0,0 c 0,-1.215 0.854,-2.045 1.964,-2.045 0.9,0 1.964,0.701 1.964,2.045 V 3.156 C 3.928,4.009 3.413,5.201 1.94,5.201 0.807,5.201 0,4.36 0,3.109 Z m -0.97,3.063 c 0,2.501 2.08,2.992 2.922,2.992 1.391,0 2.934,-0.959 2.934,-2.922 v -3.11 c 0,-2.279 -1.941,-2.921 -2.899,-2.921 -1.098,0 -2.957,0.701 -2.957,2.921 z"
             style="fill:#ffffff;fill-opacity:1;fill-rule:nonzero;stroke:none"
             id="path54" /></g><g
           id="g56"
           transform="translate(194.043,125.3032)"><path
             d="m 0,0 c 0,-1.215 0.854,-2.045 1.964,-2.045 0.9,0 1.964,0.701 1.964,2.045 V 3.156 C 3.928,4.009 3.413,5.201 1.94,5.201 0.807,5.201 0,4.36 0,3.109 Z m -0.97,3.063 c 0,2.501 2.08,2.992 2.922,2.992 1.391,0 2.934,-0.959 2.934,-2.922 v -3.11 c 0,-2.279 -1.941,-2.921 -2.899,-2.921 -1.098,0 -2.957,0.701 -2.957,2.921 z"
             style="fill:#ffffff;fill-opacity:1;fill-rule:nonzero;stroke:none"
             id="path58" /></g><g
           id="g60"
           transform="translate(202.2568,130.376)"><path
             d="M 0,0 H -1.741 V 0.83 H 0.97 V -7.819 H 0 Z"
             style="fill:#ffffff;fill-opacity:1;fill-rule:nonzero;stroke:none"
             id="path62" /></g><g
           id="g64"
           transform="translate(207.2451,125.3032)"><path
             d="m 0,0 c 0,-1.215 0.854,-2.045 1.964,-2.045 0.9,0 1.964,0.701 1.964,2.045 V 3.156 C 3.928,4.009 3.413,5.201 1.94,5.201 0.807,5.201 0,4.36 0,3.109 Z m -0.97,3.063 c 0,2.501 2.08,2.992 2.922,2.992 1.391,0 2.934,-0.959 2.934,-2.922 v -3.11 c 0,-2.279 -1.941,-2.921 -2.899,-2.921 -1.098,0 -2.957,0.701 -2.957,2.921 z"
             style="fill:#ffffff;fill-opacity:1;fill-rule:nonzero;stroke:none"
             id="path66" /></g><g
           id="g68"
           transform="translate(216.4746,125.3032)"><path
             d="m 0,0 c 0,-1.215 0.854,-2.045 1.964,-2.045 0.9,0 1.964,0.701 1.964,2.045 V 3.156 C 3.928,4.009 3.413,5.201 1.94,5.201 0.807,5.201 0,4.36 0,3.109 Z m -0.97,3.063 c 0,2.501 2.08,2.992 2.922,2.992 1.391,0 2.934,-0.959 2.934,-2.922 v -3.11 c 0,-2.279 -1.941,-2.921 -2.899,-2.921 -1.098,0 -2.957,0.701 -2.957,2.921 z"
             style="fill:#ffffff;fill-opacity:1;fill-rule:nonzero;stroke:none"
             id="path70" /></g><g
           id="g72"
           transform="translate(224.6885,130.376)"><path
             d="M 0,0 H -1.741 V 0.83 H 0.97 V -7.819 H 0 Z"
             style="fill:#ffffff;fill-opacity:1;fill-rule:nonzero;stroke:none"
             id="path74" /></g><g
           id="g76"
           transform="translate(229.6758,125.3032)"><path
             d="m 0,0 c 0,-1.215 0.854,-2.045 1.964,-2.045 0.9,0 1.964,0.701 1.964,2.045 V 3.156 C 3.928,4.009 3.413,5.201 1.94,5.201 0.807,5.201 0,4.36 0,3.109 Z m -0.97,3.063 c 0,2.501 2.08,2.992 2.922,2.992 1.391,0 2.934,-0.959 2.934,-2.922 v -3.11 c 0,-2.279 -1.941,-2.921 -2.899,-2.921 -1.098,0 -2.957,0.701 -2.957,2.921 z"
             style="fill:#ffffff;fill-opacity:1;fill-rule:nonzero;stroke:none"
             id="path78" /></g><g
           id="g80"
           transform="translate(236.2773,125.3032)"><path
             d="m 0,0 c 0,-1.215 0.854,-2.045 1.964,-2.045 0.9,0 1.964,0.701 1.964,2.045 V 3.156 C 3.928,4.009 3.413,5.201 1.94,5.201 0.807,5.201 0,4.36 0,3.109 Z m -0.97,3.063 c 0,2.501 2.08,2.992 2.922,2.992 1.391,0 2.934,-0.959 2.934,-2.922 v -3.11 c 0,-2.279 -1.941,-2.921 -2.899,-2.921 -1.098,0 -2.957,0.701 -2.957,2.921 z"
             style="fill:#ffffff;fill-opacity:1;fill-rule:nonzero;stroke:none"
             id="path82" /></g><g
           id="g84"
           transform="translate(244.4912,130.376)"><path
             d="M 0,0 H -1.741 V 0.83 H 0.97 V -7.819 H 0 Z"
             style="fill:#ffffff;fill-opacity:1;fill-rule:nonzero;stroke:none"
             id="path86" /></g><g
           id="g88"
           transform="translate(249.4785,125.3032)"><path
             d="m 0,0 c 0,-1.215 0.854,-2.045 1.964,-2.045 0.9,0 1.964,0.701 1.964,2.045 V 3.156 C 3.928,4.009 3.413,5.201 1.94,5.201 0.807,5.201 0,4.36 0,3.109 Z m -0.97,3.063 c 0,2.501 2.08,2.992 2.922,2.992 1.391,0 2.934,-0.959 2.934,-2.922 v -3.11 c 0,-2.279 -1.941,-2.921 -2.899,-2.921 -1.098,0 -2.957,0.701 -2.957,2.921 z"
             style="fill:#ffffff;fill-opacity:1;fill-rule:nonzero;stroke:none"
             id="path90" /></g><g
           id="g92"
           transform="translate(256.0801,125.3032)"><path
             d="m 0,0 c 0,-1.215 0.854,-2.045 1.964,-2.045 0.9,0 1.964,0.701 1.964,2.045 V 3.156 C 3.928,4.009 3.413,5.201 1.94,5.201 0.807,5.201 0,4.36 0,3.109 Z m -0.97,3.063 c 0,2.501 2.08,2.992 2.922,2.992 1.391,0 2.934,-0.959 2.934,-2.922 v -3.11 c 0,-2.279 -1.941,-2.921 -2.899,-2.921 -1.098,0 -2.957,0.701 -2.957,2.921 z"
             style="fill:#ffffff;fill-opacity:1;fill-rule:nonzero;stroke:none"
             id="path94" /></g><g
           id="g96"
           transform="translate(264.2939,130.376)"><path
             d="M 0,0 H -1.741 V 0.83 H 0.97 V -7.819 H 0 Z"
             style="fill:#ffffff;fill-opacity:1;fill-rule:nonzero;stroke:none"
             id="path98" /></g><g
           id="g100"
           transform="translate(161.0386,114.3887)"><path
             d="m 0,0 c 0,-1.215 0.853,-2.045 1.963,-2.045 0.9,0 1.964,0.701 1.964,2.045 V 3.156 C 3.927,4.009 3.413,5.202 1.94,5.202 0.806,5.202 0,4.36 0,3.109 Z m -0.97,3.063 c 0,2.501 2.08,2.992 2.922,2.992 1.391,0 2.933,-0.959 2.933,-2.922 v -3.11 c 0,-2.279 -1.94,-2.921 -2.898,-2.921 -1.099,0 -2.957,0.701 -2.957,2.921 z"
             style="fill:#ffffff;fill-opacity:1;fill-rule:nonzero;stroke:none"
             id="path102" /></g><g
           id="g104"
           transform="translate(169.2524,119.4614)"><path
             d="M 0,0 H -1.742 V 0.83 H 0.97 V -7.819 H 0 Z"
             style="fill:#ffffff;fill-opacity:1;fill-rule:nonzero;stroke:none"
             id="path106" /></g><g
           id="g108"
           transform="translate(174.2397,114.3887)"><path
             d="m 0,0 c 0,-1.215 0.854,-2.045 1.964,-2.045 0.9,0 1.964,0.701 1.964,2.045 V 3.156 C 3.928,4.009 3.413,5.202 1.94,5.202 0.807,5.202 0,4.36 0,3.109 Z m -0.97,3.063 c 0,2.501 2.081,2.992 2.922,2.992 1.391,0 2.934,-0.959 2.934,-2.922 v -3.11 c 0,-2.279 -1.94,-2.921 -2.899,-2.921 -1.098,0 -2.957,0.701 -2.957,2.921 z"
             style="fill:#ffffff;fill-opacity:1;fill-rule:nonzero;stroke:none"
             id="path110" /></g><g
           id="g112"
           transform="translate(182.4541,119.4614)"><path
             d="M 0,0 H -1.741 V 0.83 H 0.97 V -7.819 H 0 Z"
             style="fill:#ffffff;fill-opacity:1;fill-rule:nonzero;stroke:none"
             id="path114" /></g><g
           id="g116"
           transform="translate(187.4424,114.3887)"><path
             d="m 0,0 c 0,-1.215 0.854,-2.045 1.964,-2.045 0.9,0 1.964,0.701 1.964,2.045 V 3.156 C 3.928,4.009 3.413,5.202 1.94,5.202 0.807,5.202 0,4.36 0,3.109 Z m -0.97,3.063 c 0,2.501 2.08,2.992 2.922,2.992 1.391,0 2.934,-0.959 2.934,-2.922 v -3.11 c 0,-2.279 -1.941,-2.921 -2.899,-2.921 -1.098,0 -2.957,0.701 -2.957,2.921 z"
             style="fill:#ffffff;fill-opacity:1;fill-rule:nonzero;stroke:none"
             id="path118" /></g><g
           id="g120"
           transform="translate(194.043,114.3887)"><path
             d="m 0,0 c 0,-1.215 0.854,-2.045 1.964,-2.045 0.9,0 1.964,0.701 1.964,2.045 V 3.156 C 3.928,4.009 3.413,5.202 1.94,5.202 0.807,5.202 0,4.36 0,3.109 Z m -0.97,3.063 c 0,2.501 2.08,2.992 2.922,2.992 1.391,0 2.934,-0.959 2.934,-2.922 v -3.11 c 0,-2.279 -1.941,-2.921 -2.899,-2.921 -1.098,0 -2.957,0.701 -2.957,2.921 z"
             style="fill:#ffffff;fill-opacity:1;fill-rule:nonzero;stroke:none"
             id="path122" /></g><g
           id="g124"
           transform="translate(202.2568,119.4614)"><path
             d="M 0,0 H -1.741 V 0.83 H 0.97 V -7.819 H 0 Z"
             style="fill:#ffffff;fill-opacity:1;fill-rule:nonzero;stroke:none"
             id="path126" /></g><g
           id="g128"
           transform="translate(208.8584,119.4614)"><path
             d="M 0,0 H -1.741 V 0.83 H 0.97 V -7.819 H 0 Z"
             style="fill:#ffffff;fill-opacity:1;fill-rule:nonzero;stroke:none"
             id="path130" /></g><g
           id="g132"
           transform="translate(215.0723,114.3887)"><path
             d="m 0,0 c 0,-1.215 0.854,-2.045 1.964,-2.045 0.9,0 1.964,0.701 1.964,2.045 V 3.156 C 3.928,4.009 3.413,5.202 1.94,5.202 0.807,5.202 0,4.36 0,3.109 Z m -0.97,3.063 c 0,2.501 2.08,2.992 2.922,2.992 1.391,0 2.934,-0.959 2.934,-2.922 v -3.11 c 0,-2.279 -1.941,-2.921 -2.899,-2.921 -1.098,0 -2.957,0.701 -2.957,2.921 z"
             style="fill:#ffffff;fill-opacity:1;fill-rule:nonzero;stroke:none"
             id="path134" /></g><g
           id="g136"
           transform="translate(223.2871,119.4614)"><path
             d="M 0,0 H -1.741 V 0.83 H 0.97 V -7.819 H 0 Z"
             style="fill:#ffffff;fill-opacity:1;fill-rule:nonzero;stroke:none"
             id="path138" /></g><g
           id="g140"
           transform="translate(227.9941,114.3887)"><path
             d="m 0,0 c 0,-1.215 0.854,-2.045 1.964,-2.045 0.9,0 1.964,0.701 1.964,2.045 V 3.156 C 3.928,4.009 3.413,5.202 1.94,5.202 0.807,5.202 0,4.36 0,3.109 Z m -0.97,3.063 c 0,2.501 2.08,2.992 2.922,2.992 1.391,0 2.934,-0.959 2.934,-2.922 v -3.11 c 0,-2.279 -1.941,-2.921 -2.899,-2.921 -1.098,0 -2.957,0.701 -2.957,2.921 z"
             style="fill:#ffffff;fill-opacity:1;fill-rule:nonzero;stroke:none"
             id="path142" /></g><g
           id="g144"
           transform="translate(234.3145,114.3887)"><path
             d="m 0,0 c 0,-1.215 0.854,-2.045 1.964,-2.045 0.9,0 1.964,0.701 1.964,2.045 V 3.156 C 3.928,4.009 3.413,5.202 1.94,5.202 0.807,5.202 0,4.36 0,3.109 Z m -0.97,3.063 c 0,2.501 2.08,2.992 2.922,2.992 1.391,0 2.934,-0.959 2.934,-2.922 v -3.11 c 0,-2.279 -1.941,-2.921 -2.899,-2.921 -1.098,0 -2.957,0.701 -2.957,2.921 z"
             style="fill:#ffffff;fill-opacity:1;fill-rule:nonzero;stroke:none"
             id="path146" /></g><g
           id="g148"
           transform="translate(161.0386,103.4741)"><path
             d="m 0,0 c 0,-1.215 0.853,-2.045 1.963,-2.045 0.9,0 1.964,0.701 1.964,2.045 V 3.156 C 3.927,4.009 3.413,5.201 1.94,5.201 0.806,5.201 0,4.36 0,3.109 Z m -0.97,3.063 c 0,2.501 2.08,2.992 2.922,2.992 1.391,0 2.933,-0.959 2.933,-2.922 v -3.11 c 0,-2.279 -1.94,-2.921 -2.898,-2.921 -1.099,0 -2.957,0.701 -2.957,2.921 z"
             style="fill:#ffffff;fill-opacity:1;fill-rule:nonzero;stroke:none"
             id="path150" /></g><g
           id="g152"
           transform="translate(169.2524,108.5469)"><path
             d="M 0,0 H -1.742 V 0.83 H 0.97 V -7.819 H 0 Z"
             style="fill:#ffffff;fill-opacity:1;fill-rule:nonzero;stroke:none"
             id="path154" /></g><g
           id="g156"
           transform="translate(174.2397,103.4741)"><path
             d="m 0,0 c 0,-1.215 0.854,-2.045 1.964,-2.045 0.9,0 1.964,0.701 1.964,2.045 V 3.156 C 3.928,4.009 3.413,5.201 1.94,5.201 0.807,5.201 0,4.36 0,3.109 Z m -0.97,3.063 c 0,2.501 2.081,2.992 2.922,2.992 1.391,0 2.934,-0.959 2.934,-2.922 v -3.11 c 0,-2.279 -1.94,-2.921 -2.899,-2.921 -1.098,0 -2.957,0.701 -2.957,2.921 z"
             style="fill:#ffffff;fill-opacity:1;fill-rule:nonzero;stroke:none"
             id="path158" /></g><g
           id="g160"
           transform="translate(180.8408,103.4741)"><path
             d="m 0,0 c 0,-1.215 0.854,-2.045 1.964,-2.045 0.9,0 1.964,0.701 1.964,2.045 V 3.156 C 3.928,4.009 3.413,5.201 1.94,5.201 0.807,5.201 0,4.36 0,3.109 Z m -0.97,3.063 c 0,2.501 2.08,2.992 2.922,2.992 1.391,0 2.934,-0.959 2.934,-2.922 v -3.11 c 0,-2.279 -1.941,-2.921 -2.899,-2.921 -1.098,0 -2.957,0.701 -2.957,2.921 z"
             style="fill:#ffffff;fill-opacity:1;fill-rule:nonzero;stroke:none"
             id="path162" /></g><g
           id="g164"
           transform="translate(215.3408,103.4741)"><path
             d="m 0,0 c 0,-1.215 0.854,-2.045 1.964,-2.045 0.9,0 1.964,0.701 1.964,2.045 V 3.156 C 3.928,4.009 3.413,5.201 1.94,5.201 0.807,5.201 0,4.36 0,3.109 Z m -0.97,3.063 c 0,2.501 2.08,2.992 2.922,2.992 1.391,0 2.934,-0.959 2.934,-2.922 v -3.11 c 0,-2.279 -1.941,-2.921 -2.899,-2.921 -1.098,0 -2.957,0.701 -2.957,2.921 z"
             style="fill:#ffffff;fill-opacity:1;fill-rule:nonzero;stroke:none"
             id="path166" /></g><g
           id="g168"
           transform="translate(223.5557,108.5469)"><path
             d="M 0,0 H -1.741 V 0.83 H 0.97 V -7.819 H 0 Z"
             style="fill:#ffffff;fill-opacity:1;fill-rule:nonzero;stroke:none"
             id="path170" /></g><g
           id="g172"
           transform="translate(228.2627,103.4741)"><path
             d="m 0,0 c 0,-1.215 0.854,-2.045 1.964,-2.045 0.9,0 1.964,0.701 1.964,2.045 V 3.156 C 3.928,4.009 3.413,5.201 1.94,5.201 0.807,5.201 0,4.36 0,3.109 Z m -0.97,3.063 c 0,2.501 2.08,2.992 2.922,2.992 1.391,0 2.934,-0.959 2.934,-2.922 v -3.11 c 0,-2.279 -1.941,-2.921 -2.899,-2.921 -1.098,0 -2.957,0.701 -2.957,2.921 z"
             style="fill:#ffffff;fill-opacity:1;fill-rule:nonzero;stroke:none"
             id="path174" /></g><g
           id="g176"
           transform="translate(234.583,103.4741)"><path
             d="m 0,0 c 0,-1.215 0.854,-2.045 1.964,-2.045 0.9,0 1.964,0.701 1.964,2.045 V 3.156 C 3.928,4.009 3.413,5.201 1.94,5.201 0.807,5.201 0,4.36 0,3.109 Z m -0.97,3.063 c 0,2.501 2.08,2.992 2.922,2.992 1.391,0 2.934,-0.959 2.934,-2.922 v -3.11 c 0,-2.279 -1.941,-2.921 -2.899,-2.921 -1.098,0 -2.957,0.701 -2.957,2.921 z"
             style="fill:#ffffff;fill-opacity:1;fill-rule:nonzero;stroke:none"
             id="path178" /></g><g
           id="g180"
           transform="translate(161.0386,92.5596)"><path
             d="m 0,0 c 0,-1.215 0.853,-2.045 1.963,-2.045 0.9,0 1.964,0.701 1.964,2.045 V 3.156 C 3.927,4.009 3.413,5.202 1.94,5.202 0.806,5.202 0,4.36 0,3.109 Z m -0.97,3.063 c 0,2.501 2.08,2.992 2.922,2.992 1.391,0 2.933,-0.959 2.933,-2.922 v -3.11 c 0,-2.279 -1.94,-2.921 -2.898,-2.921 -1.099,0 -2.957,0.701 -2.957,2.921 z"
             style="fill:#ffffff;fill-opacity:1;fill-rule:nonzero;stroke:none"
             id="path182" /></g><g
           id="g184"
           transform="translate(169.2524,97.6323)"><path
             d="M 0,0 H -1.742 V 0.83 H 0.97 V -7.819 H 0 Z"
             style="fill:#ffffff;fill-opacity:1;fill-rule:nonzero;stroke:none"
             id="path186" /></g><g
           id="g188"
           transform="translate(174.2397,92.5596)"><path
             d="m 0,0 c 0,-1.215 0.854,-2.045 1.964,-2.045 0.9,0 1.964,0.701 1.964,2.045 V 3.156 C 3.928,4.009 3.413,5.202 1.94,5.202 0.807,5.202 0,4.36 0,3.109 Z m -0.97,3.063 c 0,2.501 2.081,2.992 2.922,2.992 1.391,0 2.934,-0.959 2.934,-2.922 v -3.11 c 0,-2.279 -1.94,-2.921 -2.899,-2.921 -1.098,0 -2.957,0.701 -2.957,2.921 z"
             style="fill:#ffffff;fill-opacity:1;fill-rule:nonzero;stroke:none"
             id="path190" /></g><g
           id="g192"
           transform="translate(182.4541,97.6323)"><path
             d="M 0,0 H -1.741 V 0.83 H 0.97 V -7.819 H 0 Z"
             style="fill:#ffffff;fill-opacity:1;fill-rule:nonzero;stroke:none"
             id="path194" /></g><g
           id="g196"
           transform="translate(169.6646,30.0811)"><path
             d="m 0,0 h 2.991 c 0.541,0 1.31,0.029 1.965,0.313 0.855,0.371 1.51,1.083 1.51,2.421 C 6.466,3.96 5.839,4.7 4.985,5.07 4.301,5.355 3.589,5.355 2.849,5.355 H 0 Z m 0,8.916 h 2.364 c 0.598,0 1.282,0.057 1.823,0.284 0.827,0.428 1.196,1.112 1.196,2.109 0,1.082 -0.569,1.737 -1.167,1.994 -0.485,0.227 -1.111,0.313 -1.88,0.313 H 0 Z m -4.244,8.432 h 6.922 c 2.051,0 3.646,-0.428 4.728,-1.254 C 8.83,15.153 9.457,13.616 9.457,11.878 9.457,9.941 8.459,8.432 6.865,7.549 10.397,6.353 10.54,3.39 10.54,2.479 10.54,0.569 9.742,-1.225 8.261,-2.25 6.58,-3.531 5.241,-3.731 2.25,-3.731 h -6.494 z"
             style="fill:#ffffff;fill-opacity:1;fill-rule:nonzero;stroke:none"
             id="path198" /></g><path
           d="m 197.918,47.429 h 4.245 V 26.35 h -4.245 z"
           style="fill:#ffffff;fill-opacity:1;fill-rule:nonzero;stroke:none"
           id="path200" /><g
           id="g202"
           transform="translate(224.0312,32.9014)"><path
             d="m 0,0 c 0.143,-2.848 2.051,-3.39 2.962,-3.39 1.624,0 2.878,1.311 2.878,2.792 0,1.794 -1.511,2.25 -4.444,3.418 -1.595,0.57 -5.27,1.88 -5.27,5.868 0,4.044 3.561,6.239 6.978,6.239 2.792,0 6.496,-1.482 6.667,-6.154 H 5.583 C 5.412,9.742 5.042,11.365 2.962,11.365 1.566,11.365 0.37,10.396 0.37,8.973 0.342,7.406 1.481,7.007 5.042,5.526 8.261,4.13 10.055,2.593 10.055,-0.398 c 0,-3.39 -2.079,-6.552 -7.035,-6.552 -4.786,0 -7.264,2.877 -7.236,6.95 z"
             style="fill:#ffffff;fill-opacity:1;fill-rule:nonzero;stroke:none"
             id="path204" /></g><path
           d="m 252.204,47.429 h 4.244 V 26.35 h -4.244 z"
           style="fill:#ffffff;fill-opacity:1;fill-rule:nonzero;stroke:none"
           id="path206" /><path
           id="path208"
           style="fill:#ffffff;fill-opacity:1;fill-rule:nonzero;stroke:none;stroke-width:1.33333"
           d="m 249.78516,62.900391 v 40.894529 c 2.64163,-3.00858 7.60371,-6.925779 15.6582,-6.925779 8.74091,0 14.41803,4.626969 17.19922,7.626949 V 62.900391 Z m 36.14257,14.861328 V 106.0625 h 24.42383 c 0.608,0 1.18384,0.27471 1.5625,0.74805 l 4.76758,5.96289 2.10352,-7.33203 V 77.761719 Z m -72.28711,14.53125 V 106.0625 h 32.85743 V 92.292969 Z m 51.80274,8.576171 c -10.32,0 -14.43328,8.0046 -14.47461,8.08594 -0.24386,0.48965 -0.67745,0.84392 -1.18359,1.00586 v 31 h 32.85742 v -30.94141 c -0.55313,-0.0931 -1.05093,-0.40217 -1.35742,-0.88476 -0.216,-0.33067 -5.4578,-8.26563 -15.8418,-8.26563 z m -51.80274,9.19336 v 30.89844 h 32.85743 V 110.0625 Z m 72.28711,0 v 30.89844 h 32.85743 v -22.37305 c -0.24626,0.1991 -0.5313,0.35099 -0.85352,0.41602 -0.132,0.0267 -0.26253,0.0391 -0.39453,0.0391 -0.60133,0 -1.17921,-0.27195 -1.56055,-0.75195 l -6.58398,-8.22852 z"
           transform="matrix(0.75000002,0,0,-0.75000002,0,156.61101)" /><path
           id="path214"
           style="fill:#ffffff;fill-opacity:1;fill-rule:nonzero;stroke:none;stroke-width:1.33333"
           d="m 322.07227,48.779297 v 45.203125 l 10.16211,-35.423828 c 0.24533,-0.86 1.0393,-1.449219 1.91796,-1.449219 0.036,0 0.0753,0.0012 0.11133,0.0039 0.93067,0.05067 1.70133,0.737584 1.86133,1.65625 l 11.08008,64.021485 7.72461,-15.6211 V 48.779297 Z m 11.59961,19.267578 -11.59961,40.435545 v 32.47852 h 32.85742 v -24.75391 l -6.85547,13.86328 c -0.34,0.68667 -1.03902,1.11524 -1.79102,1.11524 -0.096,0 -0.19306,-0.008 -0.28906,-0.0215 -0.85733,-0.12533 -1.53559,-0.788 -1.68359,-1.63867 z"
           transform="matrix(0.75000002,0,0,-0.75000002,0,156.61101)" /><g
           id="g216"
           transform="translate(268.7168,67.7949)"><path
             id="path218"
             style="fill:#ffffff;fill-opacity:1;fill-rule:nonzero;stroke:none;stroke-width:1.33333"
             d="m 208.82227,28.8125 v 77.25 h 39.21875 c 1.73466,-2.672 7.02901,-9.193359 17.40234,-9.193359 10.47733,0 16.6154,6.681359 18.55273,9.193359 h 26.35547 c 0.608,0 1.18384,0.27471 1.5625,0.74805 l 4.76758,5.96289 15.55274,-54.214846 c 0.24533,-0.86 1.03931,-1.449219 1.91796,-1.449219 0.036,0 0.0753,0.0012 0.11133,0.0039 0.93068,0.05067 1.70133,0.737584 1.86133,1.65625 l 11.08008,64.021485 12.79883,-25.882813 V 28.8125 Z m 1.70898,1.705078 h 147.75781 v 61.080078 c -3.084,6.053333 -9.22851,18.408204 -9.22851,18.408204 l -8.98438,-51.919922 c -0.48266,-2.774667 -2.78122,-4.815417 -5.58789,-4.96875 -0.10533,-0.0053 -0.21746,-0.0078 -0.32812,-0.0078 -2.66134,0 -5.03168,1.787656 -5.76368,4.347656 l -13.41601,46.775386 c -1.14,-1.37866 -2.81914,-2.17187 -4.61914,-2.17187 h -24.49024 c -3.256,-3.612 -9.97725,-9.19336 -20.41992,-9.193359 -10.36666,0 -16.49207,5.490692 -19.4414,9.193359 h -35.47852 z m 123.14063,37.529297 -14.2129,49.544925 c -0.20532,0.72133 -0.79401,1.26411 -1.52734,1.41211 -0.132,0.0267 -0.26253,0.0391 -0.39453,0.0391 -0.60133,0 -1.1792,-0.27195 -1.56055,-0.75195 l -6.58398,-8.22852 H 282.9707 c -0.68266,0 -1.31888,-0.3504 -1.68554,-0.92773 -0.216,-0.33067 -5.4578,-8.26563 -15.8418,-8.26563 -10.32,0 -14.43328,8.0046 -14.47461,8.08594 -0.33733,0.67733 -1.0304,1.10742 -1.78906,1.10742 h -40.35742 v 69.93164 h 151.18164 v -65.04883 -8.99804 l -11.92969,24.12304 c -0.34,0.68667 -1.03902,1.11524 -1.79102,1.11524 -0.096,0 -0.19306,-0.008 -0.28906,-0.0215 -0.85733,-0.12533 -1.53559,-0.788 -1.68359,-1.63867 z m -0.95899,17.875 7.66211,44.285155 c 0.44667,2.56933 2.47869,4.54206 5.05469,4.91406 0.272,0.0413 0.56666,0.0625 0.86133,0.0625 2.3,0 4.36024,-1.28303 5.3789,-3.3457 l 7.27344,-14.74609 -0.6543,1.33008 v 59.85351 H 210.53125 v -64.21484 h 38.65625 c 2.27333,0 4.31637,-1.25273 5.3457,-3.27539 0.204,-0.376 3.35264,-5.91797 10.91797,-5.91797 8.168,0 12.31104,6.18264 12.48438,6.44531 1.08933,1.71067 2.98225,2.74805 5.04492,2.74805 h 24.49805 l 5.38281,6.73047 c 1.13466,1.428 2.84431,2.2539 4.68164,2.2539 0.39467,0 0.79302,-0.0399 1.17969,-0.11719 2.21333,-0.444 3.97179,-2.06832 4.59179,-4.23632 z"
             transform="matrix(0.75000002,0,0,-0.75000002,-268.7168,88.816106)" /></g><g
           id="g220"
           transform="translate(156.5293,74.0645)" /><g
           id="g224"
           transform="translate(294.0156,100.4424)"><path
             d="m 0,0 h 3.899 c 0.873,0 1.833,0.087 2.62,0.408 1.28,0.552 2.24,1.658 2.269,3.579 0,1.745 -0.932,3.026 -2.299,3.637 C 5.529,8.031 4.802,8.061 3.463,8.061 H 0 Z m 0,10.097 h 3.26 c 0.989,0 1.862,0.117 2.531,0.437 1.367,0.757 1.746,1.891 1.746,3.201 0,1.571 -0.844,2.648 -1.746,3.055 -0.553,0.291 -1.28,0.465 -2.677,0.495 H 0 Z m -2.386,9.312 h 5.674 c 1.95,0 3.288,-0.349 4.249,-1.018 1.746,-0.99 2.327,-2.794 2.327,-4.482 0,-2.532 -1.426,-3.812 -2.88,-4.568 C 10.854,8.148 11.116,4.86 11.116,3.87 11.087,1.542 10.01,-0.204 8.177,-1.164 6.896,-1.949 5.675,-2.124 3.551,-2.124 h -5.937 z"
             style="fill:#ffffff;fill-opacity:1;fill-rule:nonzero;stroke:none"
             id="path226" /></g><path
           d="m 308.406,119.851 h 2.386 V 98.318 h -2.386 z"
           style="fill:#ffffff;fill-opacity:1;fill-rule:nonzero;stroke:none"
           id="path228" /><g
           id="g230"
           transform="translate(316.4951,109.085)"><path
             d="m 0,0 c 0,-5.063 3.813,-9.021 8.846,-9.021 5.092,0 8.817,4.103 8.817,9.021 0,4.917 -3.725,9.021 -8.846,9.021 C 3.754,9.021 0,5.005 0,0.029 Z m -2.415,-0.058 c 0,6.634 5.15,11.203 11.232,11.203 6.315,0 11.232,-4.831 11.232,-11.145 0,-6.314 -4.889,-11.145 -11.232,-11.145 -6.373,0 -11.232,4.918 -11.232,11.058 z"
             style="fill:#ffffff;fill-opacity:1;fill-rule:nonzero;stroke:none"
             id="path232" /></g><g
           id="g234"
           transform="translate(340.9121,104.3125)"><path
             d="m 0,0 c 0.35,-3.579 2.969,-4.335 4.307,-4.335 2.241,0 4.306,1.716 4.306,4.103 0,3.025 -2.59,3.695 -5.092,4.51 -1.746,0.523 -5.5,1.629 -5.5,5.703 -0.057,3.812 3.114,5.936 6.403,5.936 2.677,0 5.761,-1.484 6.11,-5.558 H 8.148 C 7.886,11.756 7.187,13.88 4.336,13.88 2.183,13.88 0.408,12.425 0.408,10.185 0.379,7.566 2.503,6.926 5.762,5.82 7.799,5.034 11,3.899 11,-0.058 11,-3.579 8.352,-6.373 4.336,-6.373 0.728,-6.373 -2.27,-4.103 -2.415,0 Z"
             style="fill:#ffffff;fill-opacity:1;fill-rule:nonzero;stroke:none"
             id="path236" /></g><g
           id="g238"
           transform="translate(358.1719,117.7271)"><path
             d="M 0,0 H -5.296 V 2.124 H 7.74 V 0 H 2.415 V -19.409 H 0 Z"
             style="fill:#ffffff;fill-opacity:1;fill-rule:nonzero;stroke:none"
             id="path240" /></g><g
           id="g242"
           transform="translate(374.4268,117.145)"><path
             d="m 0,0 -4.277,-10.795 h 8.584 z m -7.479,-18.827 h -2.589 l 8.992,21.533 h 2.327 l 8.904,-21.533 H 7.536 l -2.502,6.053 H -5.005 Z"
             style="fill:#ffffff;fill-opacity:1;fill-rule:nonzero;stroke:none"
             id="path244" /></g><g
           id="g246"
           transform="translate(388.3701,117.7271)"><path
             d="M 0,0 H -5.296 V 2.124 H 7.74 V 0 H 2.415 V -19.409 H 0 Z"
             style="fill:#ffffff;fill-opacity:1;fill-rule:nonzero;stroke:none"
             id="path248" /></g><path
           d="m 398.258,119.851 h 2.386 V 98.318 h -2.386 z"
           style="fill:#ffffff;fill-opacity:1;fill-rule:nonzero;stroke:none"
           id="path250" /><g
           id="g252"
           transform="translate(406.332,104.3125)"><path
             d="m 0,0 c 0.35,-3.579 2.969,-4.335 4.307,-4.335 2.241,0 4.306,1.716 4.306,4.103 0,3.025 -2.59,3.695 -5.092,4.51 -1.746,0.523 -5.5,1.629 -5.5,5.703 -0.057,3.812 3.114,5.936 6.403,5.936 2.677,0 5.761,-1.484 6.11,-5.558 H 8.148 C 7.886,11.756 7.187,13.88 4.336,13.88 2.183,13.88 0.408,12.425 0.408,10.185 0.379,7.566 2.503,6.926 5.762,5.82 7.799,5.034 11,3.899 11,-0.058 11,-3.579 8.352,-6.373 4.336,-6.373 0.728,-6.373 -2.27,-4.103 -2.415,0 Z"
             style="fill:#ffffff;fill-opacity:1;fill-rule:nonzero;stroke:none"
             id="path254" /></g><g
           id="g256"
           transform="translate(423.5947,117.7271)"><path
             d="M 0,0 H -5.296 V 2.124 H 7.74 V 0 H 2.415 V -19.409 H 0 Z"
             style="fill:#ffffff;fill-opacity:1;fill-rule:nonzero;stroke:none"
             id="path258" /></g><path
           d="m 433.483,119.851 h 2.386 V 98.318 h -2.386 z"
           style="fill:#ffffff;fill-opacity:1;fill-rule:nonzero;stroke:none"
           id="path260" /><g
           id="g262"
           transform="translate(460.2354,104.1089)"><path
             d="m 0,0 c -1.396,-3.317 -5.15,-6.169 -9.894,-6.169 -6.372,0 -11.231,4.918 -11.231,11.145 0,6.14 4.743,11.145 11.203,11.145 5.325,0 8.671,-3.55 9.922,-6.286 h -2.59 c -0.726,1.281 -3.171,4.162 -7.332,4.162 -5.034,0 -8.817,-3.987 -8.817,-8.992 0,-5.092 3.812,-9.049 8.817,-9.049 4.51,0 6.809,3.23 7.332,4.044 z"
             style="fill:#ffffff;fill-opacity:1;fill-rule:nonzero;stroke:none"
             id="path264" /></g><g
           id="g266"
           transform="translate(464.7148,104.3125)"><path
             d="m 0,0 c 0.35,-3.579 2.969,-4.335 4.307,-4.335 2.241,0 4.306,1.716 4.306,4.103 0,3.025 -2.59,3.695 -5.092,4.51 -1.746,0.523 -5.5,1.629 -5.5,5.703 -0.057,3.812 3.114,5.936 6.403,5.936 2.677,0 5.761,-1.484 6.11,-5.558 H 8.148 C 7.886,11.756 7.187,13.88 4.336,13.88 2.183,13.88 0.408,12.425 0.408,10.185 0.379,7.566 2.503,6.926 5.762,5.82 7.799,5.034 11,3.899 11,-0.058 11,-3.579 8.352,-6.373 4.336,-6.373 0.728,-6.373 -2.27,-4.103 -2.415,0 Z"
             style="fill:#ffffff;fill-opacity:1;fill-rule:nonzero;stroke:none"
             id="path268" /></g><g
           id="g270"
           transform="translate(494.2227,118.3672)"><path
             d="m 0,0 c -1.805,0 -2.881,-1.484 -2.881,-2.881 0,-1.687 1.367,-2.851 2.386,-3.899 2.328,1.135 3.521,1.863 3.521,3.783 C 3.026,-1.426 1.833,0 0.029,0 Z m -0.96,-9.253 c -3.26,-1.514 -4.19,-3.201 -4.22,-4.947 0.03,-2.212 1.746,-4.161 4.278,-4.161 2.503,0 3.695,1.455 4.918,3.957 z m 11.406,2.473 -3.811,-7.245 4.83,-4.918 -1.514,-1.455 -4.452,4.568 c -1.454,-2.851 -3.055,-4.626 -6.518,-4.626 -3.957,0 -6.489,2.968 -6.489,6.11 0,3.579 3.056,5.471 5.18,6.46 -1.455,1.543 -2.619,2.852 -2.677,4.86 0,2.648 2.153,4.888 5.005,4.888 2.881,0 5.062,-2.24 5.062,-4.888 0,-2.91 -2.269,-4.074 -4.277,-5.063 l 4.395,-4.481 2.967,5.79 z"
             style="fill:#ffffff;fill-opacity:1;fill-rule:nonzero;stroke:none"
             id="path272" /></g><g
           id="g274"
           transform="translate(291.6299,67.3584)"><path
             d="m 0,0 v 21.532 h 3.375 l 7.974,-18.069 7.943,18.069 h 3.376 V 0 h -2.27 L 20.456,19.146 12.104,0 H 10.563 L 2.183,19.146 2.24,0 Z"
             style="fill:#ffffff;fill-opacity:1;fill-rule:nonzero;stroke:none"
             id="path276" /></g><g
           id="g278"
           transform="translate(318.6953,88.8906)"><path
             d="M 0,0 H 11.931 V -2.124 H 2.386 v -7.479 h 9.486 v -2.124 H 2.386 v -7.681 h 9.545 v -2.124 H 0 Z"
             style="fill:#ffffff;fill-opacity:1;fill-rule:nonzero;stroke:none"
             id="path280" /></g><g
           id="g282"
           transform="translate(336.4014,69.4824)"><path
             d="m 0,0 h 4.277 c 5.53,0 8.411,3.404 8.411,8.583 0,2.503 -0.67,4.715 -2.096,6.286 -1.367,1.455 -3.375,2.415 -6.315,2.415 H 0 Z m -2.386,19.408 h 6.431 c 3.056,0 6.314,-0.669 8.468,-3.23 1.746,-1.92 2.59,-4.451 2.59,-7.507 0,-6.488 -3.696,-10.795 -10.942,-10.795 h -6.547 z"
             style="fill:#ffffff;fill-opacity:1;fill-rule:nonzero;stroke:none"
             id="path284" /></g><path
           d="m 354.893,88.891 h 2.386 V 67.359 h -2.386 z"
           style="fill:#ffffff;fill-opacity:1;fill-rule:nonzero;stroke:none"
           id="path286" /><g
           id="g288"
           transform="translate(381.6455,73.1494)"><path
             d="m 0,0 c -1.396,-3.317 -5.15,-6.169 -9.894,-6.169 -6.372,0 -11.231,4.917 -11.231,11.144 0,6.14 4.743,11.145 11.203,11.145 5.325,0 8.671,-3.55 9.922,-6.286 h -2.59 c -0.726,1.281 -3.171,4.162 -7.332,4.162 -5.034,0 -8.817,-3.987 -8.817,-8.992 0,-5.092 3.812,-9.049 8.817,-9.049 4.51,0 6.809,3.23 7.332,4.045 z"
             style="fill:#ffffff;fill-opacity:1;fill-rule:nonzero;stroke:none"
             id="path290" /></g><g
           id="g292"
           transform="translate(392.2295,86.1846)"><path
             d="m 0,0 -4.277,-10.795 h 8.584 z m -7.479,-18.826 h -2.589 l 8.992,21.532 h 2.327 l 8.904,-21.532 H 7.536 l -2.502,6.053 H -5.005 Z"
             style="fill:#ffffff;fill-opacity:1;fill-rule:nonzero;stroke:none"
             id="path294" /></g><g
           id="g296"
           transform="translate(404.5771,88.8906)"><path
             d="m 0,0 h 2.415 v -19.408 h 8.206 v -2.124 H 0 Z"
             style="fill:#ffffff;fill-opacity:1;fill-rule:nonzero;stroke:none"
             id="path298" /></g><path
           d="m 425.849,88.891 h 2.386 V 67.359 h -2.386 z"
           style="fill:#ffffff;fill-opacity:1;fill-rule:nonzero;stroke:none"
           id="path300" /><g
           id="g302"
           transform="translate(447.6436,70.9082)"><path
             d="M 0,0 -0.029,17.982 H 2.299 V -3.55 h -2.328 l -12.775,18.128 0.059,-18.128 h -2.328 v 21.532 h 2.444 z"
             style="fill:#ffffff;fill-opacity:1;fill-rule:nonzero;stroke:none"
             id="path304" /></g><g
           id="g306"
           transform="translate(454.3086,88.8906)"><path
             d="M 0,0 H 10.941 V -2.124 H 2.386 v -7.565 h 8.497 v -2.154 H 2.386 v -9.689 H 0 Z"
             style="fill:#ffffff;fill-opacity:1;fill-rule:nonzero;stroke:none"
             id="path308" /></g><g
           id="g310"
           transform="translate(469.7109,78.1245)"><path
             d="m 0,0 c 0,-5.063 3.813,-9.02 8.846,-9.02 5.092,0 8.817,4.103 8.817,9.02 0,4.917 -3.725,9.021 -8.846,9.021 C 3.754,9.021 0,5.005 0,0.029 Z m -2.415,-0.059 c 0,6.635 5.15,11.204 11.232,11.204 6.315,0 11.232,-4.831 11.232,-11.145 0,-6.314 -4.889,-11.144 -11.232,-11.144 -6.373,0 -11.232,4.917 -11.232,11.057 z"
             style="fill:#ffffff;fill-opacity:1;fill-rule:nonzero;stroke:none"
             id="path312" /></g><g
           id="g314"
           transform="translate(492.9639,88.8906)"><path
             d="m 0,0 h 5.616 c 3.376,0 4.947,-0.407 6.053,-1.105 1.746,-1.048 2.938,-3.347 2.938,-5.791 0.03,-1.455 -0.378,-2.997 -1.28,-4.219 -1.28,-1.746 -2.822,-2.154 -4.801,-2.357 l 5.354,-8.06 h -2.618 l -6.082,9.398 h 0.698 c 1.514,0 3.608,0.03 4.772,1.106 1.135,1.106 1.63,2.415 1.63,3.957 0,1.601 -0.786,3.288 -2.125,4.161 -1.076,0.699 -2.415,0.786 -4.364,0.786 H 2.416 V -21.532 H 0 Z"
             style="fill:#ffffff;fill-opacity:1;fill-rule:nonzero;stroke:none"
             id="path316" /></g><g
           id="g318"
           transform="translate(510.5029,67.3584)"><path
             d="m 0,0 v 21.532 h 3.375 l 7.974,-18.069 7.943,18.069 h 3.376 V 0 h -2.27 L 20.456,19.146 12.104,0 H 10.563 L 2.183,19.146 2.24,0 Z"
             style="fill:#ffffff;fill-opacity:1;fill-rule:nonzero;stroke:none"
             id="path320" /></g><g
           id="g322"
           transform="translate(545.4453,86.1846)"><path
             d="m 0,0 -4.277,-10.795 h 8.584 z m -7.479,-18.826 h -2.589 l 8.992,21.532 h 2.327 l 8.904,-21.532 H 7.536 l -2.502,6.053 H -5.005 Z"
             style="fill:#ffffff;fill-opacity:1;fill-rule:nonzero;stroke:none"
             id="path324" /></g><g
           id="g326"
           transform="translate(559.3877,86.7666)"><path
             d="M 0,0 H -5.296 V 2.124 H 7.74 V 0 H 2.415 V -19.408 H 0 Z"
             style="fill:#ffffff;fill-opacity:1;fill-rule:nonzero;stroke:none"
             id="path328" /></g><path
           d="m 569.276,88.891 h 2.386 V 67.359 h -2.386 z"
           style="fill:#ffffff;fill-opacity:1;fill-rule:nonzero;stroke:none"
           id="path330" /><g
           id="g332"
           transform="translate(596.0283,73.1494)"><path
             d="m 0,0 c -1.396,-3.317 -5.15,-6.169 -9.894,-6.169 -6.372,0 -11.231,4.917 -11.231,11.144 0,6.14 4.743,11.145 11.203,11.145 5.325,0 8.671,-3.55 9.922,-6.286 h -2.59 c -0.726,1.281 -3.171,4.162 -7.332,4.162 -5.034,0 -8.817,-3.987 -8.817,-8.992 0,-5.092 3.812,-9.049 8.817,-9.049 4.51,0 6.809,3.23 7.332,4.045 z"
             style="fill:#ffffff;fill-opacity:1;fill-rule:nonzero;stroke:none"
             id="path334" /></g><g
           id="g336"
           transform="translate(600.5078,73.3526)"><path
             d="m 0,0 c 0.35,-3.579 2.969,-4.336 4.307,-4.336 2.241,0 4.306,1.717 4.306,4.104 0,3.025 -2.59,3.695 -5.092,4.509 -1.746,0.524 -5.5,1.63 -5.5,5.703 -0.057,3.812 3.114,5.937 6.403,5.937 2.677,0 5.761,-1.484 6.11,-5.558 H 8.148 C 7.886,11.755 7.187,13.88 4.336,13.88 2.183,13.88 0.408,12.425 0.408,10.184 0.379,7.565 2.503,6.925 5.762,5.819 7.799,5.034 11,3.899 11,-0.058 11,-3.579 8.352,-6.372 4.336,-6.372 0.728,-6.372 -2.27,-4.103 -2.415,0 Z"
             style="fill:#ffffff;fill-opacity:1;fill-rule:nonzero;stroke:none"
             id="path338" /></g><g
           id="g340"
           transform="translate(291.4258,57.9317)"><path
             d="m 0,0 h 5.616 c 3.376,0 4.947,-0.407 6.053,-1.106 1.746,-1.047 2.938,-3.346 2.938,-5.79 0.03,-1.456 -0.378,-2.998 -1.28,-4.22 -1.28,-1.746 -2.822,-2.154 -4.801,-2.357 l 5.355,-8.06 h -2.619 l -6.082,9.398 h 0.698 c 1.514,0 3.608,0.03 4.772,1.107 1.135,1.105 1.63,2.415 1.63,3.957 0,1.6 -0.786,3.288 -2.124,4.161 -1.077,0.698 -2.416,0.786 -4.365,0.786 H 2.416 V -21.533 H 0 Z"
             style="fill:#ffffff;fill-opacity:1;fill-rule:nonzero;stroke:none"
             id="path342" /></g><g
           id="g344"
           transform="translate(308.9639,57.9317)"><path
             d="M 0,0 H 11.931 V -2.124 H 2.386 v -7.479 h 9.486 v -2.124 H 2.386 v -7.682 h 9.545 v -2.124 H 0 Z"
             style="fill:#ffffff;fill-opacity:1;fill-rule:nonzero;stroke:none"
             id="path346" /></g><g
           id="g348"
           transform="translate(325.1797,42.3926)"><path
             d="m 0,0 c 0.35,-3.579 2.969,-4.336 4.307,-4.336 2.241,0 4.306,1.717 4.306,4.104 0,3.026 -2.59,3.695 -5.092,4.509 -1.746,0.525 -5.5,1.63 -5.5,5.703 -0.057,3.813 3.114,5.937 6.403,5.937 2.677,0 5.761,-1.484 6.11,-5.558 H 8.148 C 7.886,11.756 7.187,13.88 4.336,13.88 2.183,13.88 0.408,12.425 0.408,10.185 0.379,7.565 2.503,6.926 5.762,5.82 7.799,5.034 11,3.899 11,-0.058 11,-3.579 8.352,-6.372 4.336,-6.372 0.728,-6.372 -2.27,-4.103 -2.415,0 Z"
             style="fill:#ffffff;fill-opacity:1;fill-rule:nonzero;stroke:none"
             id="path350" /></g><g
           id="g352"
           transform="translate(339.4687,57.9317)"><path
             d="M 0,0 H 11.931 V -2.124 H 2.386 v -7.479 h 9.486 v -2.124 H 2.386 v -7.682 h 9.545 v -2.124 H 0 Z"
             style="fill:#ffffff;fill-opacity:1;fill-rule:nonzero;stroke:none"
             id="path354" /></g><g
           id="g356"
           transform="translate(363.3877,55.2256)"><path
             d="m 0,0 -4.277,-10.796 h 8.584 z m -7.479,-18.827 h -2.589 l 8.992,21.533 h 2.327 l 8.904,-21.533 H 7.536 l -2.502,6.053 H -5.005 Z"
             style="fill:#ffffff;fill-opacity:1;fill-rule:nonzero;stroke:none"
             id="path358" /></g><g
           id="g360"
           transform="translate(375.6221,57.9317)"><path
             d="m 0,0 h 5.616 c 3.376,0 4.947,-0.407 6.053,-1.106 1.746,-1.047 2.938,-3.346 2.938,-5.79 0.03,-1.456 -0.378,-2.998 -1.28,-4.22 -1.28,-1.746 -2.822,-2.154 -4.801,-2.357 l 5.354,-8.06 h -2.618 l -6.082,9.398 h 0.698 c 1.514,0 3.608,0.03 4.772,1.107 1.135,1.105 1.63,2.415 1.63,3.957 0,1.6 -0.786,3.288 -2.125,4.161 -1.076,0.698 -2.415,0.786 -4.364,0.786 H 2.416 V -21.533 H 0 Z"
             style="fill:#ffffff;fill-opacity:1;fill-rule:nonzero;stroke:none"
             id="path362" /></g><g
           id="g364"
           transform="translate(413.0566,42.1895)"><path
             d="m 0,0 c -1.396,-3.317 -5.15,-6.169 -9.894,-6.169 -6.372,0 -11.231,4.917 -11.231,11.145 0,6.139 4.743,11.144 11.203,11.144 5.324,0 8.671,-3.55 9.922,-6.285 h -2.59 c -0.726,1.28 -3.171,4.161 -7.332,4.161 -5.034,0 -8.817,-3.986 -8.817,-8.991 0,-5.093 3.812,-9.05 8.817,-9.05 4.51,0 6.809,3.23 7.332,4.045 z"
             style="fill:#ffffff;fill-opacity:1;fill-rule:nonzero;stroke:none"
             id="path366" /></g><g
           id="g368"
           transform="translate(416.0264,36.3985)"><path
             d="M 0,0 V 21.533 H 2.386 V 11.96 h 10.388 v 9.573 h 2.415 V 0 H 12.774 V 9.835 H 2.386 V 0 Z"
             style="fill:#ffffff;fill-opacity:1;fill-rule:nonzero;stroke:none"
             id="path370" /></g><g
           id="g372"
           transform="translate(461.5381,52.3447)"><path
             d="M 0,0 C -0.669,0.931 -1.484,1.717 -2.415,2.327 -3.813,3.288 -5.5,3.841 -7.42,3.841 c -4.714,0 -8.817,-3.609 -8.817,-8.991 0,-5.471 4.132,-9.079 8.845,-9.079 2.271,0 4.279,0.786 5.762,1.949 1.514,1.193 2.561,2.823 2.91,4.51 H -9.428 v 1.979 H 4.073 c -0.028,-1.251 -0.319,-2.822 -0.96,-4.161 -1.862,-4.045 -6.169,-6.402 -10.505,-6.402 -6.285,0 -11.26,4.831 -11.26,11.204 0,6.46 5.063,11.115 11.29,11.115 4.365,0 8.41,-2.444 10.097,-5.965 z"
             style="fill:#ffffff;fill-opacity:1;fill-rule:nonzero;stroke:none"
             id="path374" /></g><g
           id="g376"
           transform="translate(468.4521,57.9317)"><path
             d="m 0,0 h 5.616 c 3.376,0 4.947,-0.407 6.053,-1.106 1.746,-1.047 2.938,-3.346 2.938,-5.79 0.03,-1.456 -0.378,-2.998 -1.28,-4.22 -1.28,-1.746 -2.822,-2.154 -4.801,-2.357 l 5.354,-8.06 h -2.618 l -6.082,9.398 h 0.698 c 1.514,0 3.608,0.03 4.772,1.107 1.135,1.105 1.63,2.415 1.63,3.957 0,1.6 -0.786,3.288 -2.125,4.161 -1.076,0.698 -2.415,0.786 -4.364,0.786 H 2.416 V -21.533 H 0 Z"
             style="fill:#ffffff;fill-opacity:1;fill-rule:nonzero;stroke:none"
             id="path378" /></g><g
           id="g380"
           transform="translate(487.1631,47.1651)"><path
             d="m 0,0 c 0,-5.063 3.813,-9.021 8.846,-9.021 5.092,0 8.817,4.103 8.817,9.021 0,4.918 -3.725,9.021 -8.846,9.021 C 3.754,9.021 0,5.005 0,0.029 Z m -2.415,-0.059 c 0,6.635 5.15,11.204 11.232,11.204 6.315,0 11.232,-4.831 11.232,-11.145 0,-6.314 -4.889,-11.145 -11.232,-11.145 -6.373,0 -11.232,4.917 -11.232,11.057 z"
             style="fill:#ffffff;fill-opacity:1;fill-rule:nonzero;stroke:none"
             id="path382" /></g><g
           id="g384"
           transform="translate(512.7803,57.9317)"><path
             d="m 0,0 v -13.647 c 0,-1.63 0,-2.881 1.018,-4.336 0.756,-1.077 2.182,-1.804 3.753,-1.804 1.542,0 2.968,0.698 3.696,1.774 1.018,1.426 1.018,2.678 1.018,4.366 V 0 h 2.387 v -13.647 c 0.028,-2.503 -0.291,-4.976 -2.444,-6.635 -1.194,-1.019 -2.794,-1.629 -4.657,-1.629 -1.512,0 -3.404,0.436 -4.743,1.629 -2.269,1.833 -2.444,4.277 -2.444,6.635 V 0 Z"
             style="fill:#ffffff;fill-opacity:1;fill-rule:nonzero;stroke:none"
             id="path386" /></g><g
           id="g388"
           transform="translate(531.2461,46.9902)"><path
             d="m 0,0 h 3.434 c 1.803,0 2.909,0.204 3.986,0.902 0.931,0.612 1.601,1.979 1.601,3.492 0,1.543 -0.67,2.91 -1.63,3.521 C 6.313,8.613 5.208,8.817 3.375,8.817 H 0 Z m 3.259,10.941 c 3.026,0 4.452,-0.349 5.79,-1.368 C 10.475,8.468 11.348,6.46 11.348,4.452 11.348,2.415 10.446,0.35 9.137,-0.669 7.711,-1.775 6.256,-2.124 3.462,-2.124 H 0 v -8.468 h -2.416 v 21.533 z"
             style="fill:#ffffff;fill-opacity:1;fill-rule:nonzero;stroke:none"
             id="path390" /></g></g></g></g></svg>
