<?xml version="1.0" encoding="UTF-8" standalone="no"?>
<svg
   xmlns:dc="http://purl.org/dc/elements/1.1/"
   xmlns:cc="http://creativecommons.org/ns#"
   xmlns:rdf="http://www.w3.org/1999/02/22-rdf-syntax-ns#"
   xmlns:svg="http://www.w3.org/2000/svg"
   xmlns="http://www.w3.org/2000/svg"
   xmlns:sodipodi="http://sodipodi.sourceforge.net/DTD/sodipodi-0.dtd"
   xmlns:inkscape="http://www.inkscape.org/namespaces/inkscape"
   version="1.1"
   id="svg2"
   xml:space="preserve"
   width="839.05469"
   height="208.81467"
   viewBox="0 0 839.05469 208.81467"
   sodipodi:docname="VUB-BISI_NEGATIVE.svg"
   inkscape:version="1.0.1 (3bc2e813f5, 2020-09-07)"><metadata
     id="metadata8"><rdf:RDF><cc:Work
         rdf:about=""><dc:format>image/svg+xml</dc:format><dc:type
           rdf:resource="http://purl.org/dc/dcmitype/StillImage" /><dc:title></dc:title></cc:Work></rdf:RDF></metadata><defs
     id="defs6"><clipPath
       clipPathUnits="userSpaceOnUse"
       id="clipPath22"><path
         d="M 0,156.611 H 629.291 V 0 H 0 Z"
         id="path20" /></clipPath></defs><sodipodi:namedview
     pagecolor="#ffffff"
     bordercolor="#666666"
     borderopacity="1"
     objecttolerance="10"
     gridtolerance="10"
     guidetolerance="10"
     inkscape:pageopacity="0"
     inkscape:pageshadow="2"
     inkscape:window-width="1920"
     inkscape:window-height="1001"
     id="namedview4"
     showgrid="false"
     inkscape:pagecheckerboard="false"
     inkscape:zoom="1.670928"
     inkscape:cx="381.94502"
     inkscape:cy="30.37747"
     inkscape:window-x="-9"
     inkscape:window-y="-9"
     inkscape:window-maximized="1"
     inkscape:current-layer="g10"
     inkscape:document-rotation="0" /><g
     id="g10"
     inkscape:groupmode="layer"
     inkscape:label="VUB-BISI_MONO"
     transform="matrix(1.3333333,0,0,-1.3333333,0,208.81467)"><path
       id="path14"
       style="fill:#ffffff;fill-opacity:1;fill-rule:nonzero;stroke:none;stroke-width:1.33333"
       d="M 28.820312 28.814453 L 28.820312 69.125 L 47.291016 121.28125 L 47.347656 121.28125 L 63.076172 75.332031 C 63.076172 75.332031 63.098052 75.265828 63.136719 75.173828 C 64.160719 71.676495 67.408328 69.125 71.236328 69.125 L 75.179688 69.123047 L 87.277344 69.125 L 87.277344 116.83203 C 87.33601 119.16536 87.588531 121.42635 88.644531 123.54102 C 90.355198 126.54768 93.518901 128.69991 97.240234 129.14258 C 97.368234 129.15724 97.495667 129.17097 97.625 129.18164 C 97.962333 129.20964 98.305677 129.22656 98.652344 129.22656 C 98.99901 129.22656 99.342974 129.20964 99.681641 129.18164 C 99.809641 129.17097 99.936456 129.15724 100.06445 129.14258 C 103.78579 128.69991 106.94949 126.54768 108.66016 123.54102 C 109.71616 121.42635 109.96806 119.16536 110.02539 116.83203 L 110.02539 69.125 L 122.66016 69.125 L 122.66016 114.14258 C 122.66016 119.20924 122.34683 124.06745 120.29883 128.43945 C 116.56683 135.84079 108.78598 141.03301 99.695312 141.40234 C 99.349979 141.41834 99.001677 141.42773 98.652344 141.42773 C 98.30301 141.42773 97.954708 141.41834 97.609375 141.40234 C 88.518709 141.03301 80.737859 135.84079 77.005859 128.43945 C 74.959193 124.06745 74.644531 119.20924 74.644531 114.14258 L 74.644531 82.263672 L 74.541016 82.263672 L 74.396484 82.703125 L 53.800781 139.66016 L 41.056641 139.66016 L 28.820312 106.54102 L 28.820312 179.99414 L 180.00195 179.99414 L 180.00195 28.814453 L 28.820312 28.814453 z M 142.99414 69.095703 C 149.39547 69.095703 155.88983 68.808198 161.8125 71.769531 C 167.6405 74.730865 171.74805 81.036287 171.74805 87.626953 C 171.74805 93.166953 169.17039 98.613037 164.01172 101.0957 C 171.74905 103.58104 176.04883 110.17069 176.04883 118.19336 C 176.04883 125.07203 172.89455 130.90115 167.44922 135.00781 C 161.81322 139.11715 154.64985 139.49683 147.86719 139.6875 L 126.58789 139.6875 L 126.59961 69.125 L 142.99414 69.095703 z M 147.91016 81.787109 C 147.12541 81.789797 146.36259 81.800781 145.66992 81.800781 L 139.7207 81.791016 L 139.7207 96.240234 L 145.76562 96.222656 C 148.53629 96.222656 152.16639 96.320495 154.65039 95.173828 C 157.13439 94.027161 158.66211 91.352401 158.66211 88.677734 C 158.66211 85.811068 156.84624 83.519417 154.26758 82.46875 C 152.81558 81.84175 150.26441 81.779047 147.91016 81.787109 z M 139.7207 108.92969 L 139.7207 126.98047 L 148.72656 126.98438 C 152.5479 126.98438 156.08282 126.79467 159.52148 124.5 C 161.90948 122.87733 162.96094 120.58305 162.96094 117.62305 C 162.96094 114.18571 161.33663 112.08266 158.2793 110.36133 C 155.3193 108.83333 152.16567 108.92969 149.01367 108.92969 L 139.7207 108.92969 z "
       transform="matrix(0.75000002,0,0,-0.75000002,0,156.61101)" /><g
       id="g16"><g
         id="g18"
         clip-path="url(#clipPath22)"><g
           id="g24"
           transform="translate(21.6147,104.7676)" /><g
           id="g28"
           transform="translate(119.6411,63.2363)" /><g
           id="g32"
           transform="translate(10.9683,104.7671)"><path
             d="M 0,0 10.646,-28.076 V -10.523 0 Z"
             style="fill:#ffffff;fill-opacity:1;fill-rule:nonzero;stroke:none"
             id="path34" /></g><g
           id="g36"
           transform="translate(161.0386,125.3032)"><path
             d="m 0,0 c 0,-1.215 0.853,-2.045 1.963,-2.045 0.9,0 1.964,0.701 1.964,2.045 V 3.156 C 3.927,4.009 3.413,5.201 1.94,5.201 0.806,5.201 0,4.36 0,3.109 Z m -0.97,3.063 c 0,2.501 2.08,2.992 2.922,2.992 1.391,0 2.933,-0.959 2.933,-2.922 v -3.11 c 0,-2.279 -1.94,-2.921 -2.898,-2.921 -1.099,0 -2.957,0.701 -2.957,2.921 z"
             style="fill:#ffffff;fill-opacity:1;fill-rule:nonzero;stroke:none"
             id="path38" /></g><g
           id="g40"
           transform="translate(169.2524,130.376)"><path
             d="M 0,0 H -1.742 V 0.83 H 0.97 V -7.819 H 0 Z"
             style="fill:#ffffff;fill-opacity:1;fill-rule:nonzero;stroke:none"
             id="path42" /></g><g
           id="g44"
           transform="translate(174.2397,125.3032)"><path
             d="m 0,0 c 0,-1.215 0.854,-2.045 1.964,-2.045 0.9,0 1.964,0.701 1.964,2.045 V 3.156 C 3.928,4.009 3.413,5.201 1.94,5.201 0.807,5.201 0,4.36 0,3.109 Z m -0.97,3.063 c 0,2.501 2.081,2.992 2.922,2.992 1.391,0 2.934,-0.959 2.934,-2.922 v -3.11 c 0,-2.279 -1.94,-2.921 -2.899,-2.921 -1.098,0 -2.957,0.701 -2.957,2.921 z"
             style="fill:#ffffff;fill-opacity:1;fill-rule:nonzero;stroke:none"
             id="path46" /></g><g
           id="g48"
           transform="translate(180.8408,125.3032)"><path
             d="m 0,0 c 0,-1.215 0.854,-2.045 1.964,-2.045 0.9,0 1.964,0.701 1.964,2.045 V 3.156 C 3.928,4.009 3.413,5.201 1.94,5.201 0.807,5.201 0,4.36 0,3.109 Z m -0.97,3.063 c 0,2.501 2.08,2.992 2.922,2.992 1.391,0 2.934,-0.959 2.934,-2.922 v -3.11 c 0,-2.279 -1.941,-2.921 -2.899,-2.921 -1.098,0 -2.957,0.701 -2.957,2.921 z"
             style="fill:#ffffff;fill-opacity:1;fill-rule:nonzero;stroke:none"
             id="path50" /></g><g
           id="g52"
           transform="translate(187.4424,125.3032)"><path
             d="m 0,0 c 0,-1.215 0.854,-2.045 1.964,-2.045 0.9,0 1.964,0.701 1.964,2.045 V 3.156 C 3.928,4.009 3.413,5.201 1.94,5.201 0.807,5.201 0,4.36 0,3.109 Z m -0.97,3.063 c 0,2.501 2.08,2.992 2.922,2.992 1.391,0 2.934,-0.959 2.934,-2.922 v -3.11 c 0,-2.279 -1.941,-2.921 -2.899,-2.921 -1.098,0 -2.957,0.701 -2.957,2.921 z"
             style="fill:#ffffff;fill-opacity:1;fill-rule:nonzero;stroke:none"
             id="path54" /></g><g
           id="g56"
           transform="translate(194.043,125.3032)"><path
             d="m 0,0 c 0,-1.215 0.854,-2.045 1.964,-2.045 0.9,0 1.964,0.701 1.964,2.045 V 3.156 C 3.928,4.009 3.413,5.201 1.94,5.201 0.807,5.201 0,4.36 0,3.109 Z m -0.97,3.063 c 0,2.501 2.08,2.992 2.922,2.992 1.391,0 2.934,-0.959 2.934,-2.922 v -3.11 c 0,-2.279 -1.941,-2.921 -2.899,-2.921 -1.098,0 -2.957,0.701 -2.957,2.921 z"
             style="fill:#ffffff;fill-opacity:1;fill-rule:nonzero;stroke:none"
             id="path58" /></g><g
           id="g60"
           transform="translate(202.2568,130.376)"><path
             d="M 0,0 H -1.741 V 0.83 H 0.97 V -7.819 H 0 Z"
             style="fill:#ffffff;fill-opacity:1;fill-rule:nonzero;stroke:none"
             id="path62" /></g><g
           id="g64"
           transform="translate(207.2451,125.3032)"><path
             d="m 0,0 c 0,-1.215 0.854,-2.045 1.964,-2.045 0.9,0 1.964,0.701 1.964,2.045 V 3.156 C 3.928,4.009 3.413,5.201 1.94,5.201 0.807,5.201 0,4.36 0,3.109 Z m -0.97,3.063 c 0,2.501 2.08,2.992 2.922,2.992 1.391,0 2.934,-0.959 2.934,-2.922 v -3.11 c 0,-2.279 -1.941,-2.921 -2.899,-2.921 -1.098,0 -2.957,0.701 -2.957,2.921 z"
             style="fill:#ffffff;fill-opacity:1;fill-rule:nonzero;stroke:none"
             id="path66" /></g><g
           id="g68"
           transform="translate(216.4746,125.3032)"><path
             d="m 0,0 c 0,-1.215 0.854,-2.045 1.964,-2.045 0.9,0 1.964,0.701 1.964,2.045 V 3.156 C 3.928,4.009 3.413,5.201 1.94,5.201 0.807,5.201 0,4.36 0,3.109 Z m -0.97,3.063 c 0,2.501 2.08,2.992 2.922,2.992 1.391,0 2.934,-0.959 2.934,-2.922 v -3.11 c 0,-2.279 -1.941,-2.921 -2.899,-2.921 -1.098,0 -2.957,0.701 -2.957,2.921 z"
             style="fill:#ffffff;fill-opacity:1;fill-rule:nonzero;stroke:none"
             id="path70" /></g><g
           id="g72"
           transform="translate(224.6885,130.376)"><path
             d="M 0,0 H -1.741 V 0.83 H 0.97 V -7.819 H 0 Z"
             style="fill:#ffffff;fill-opacity:1;fill-rule:nonzero;stroke:none"
             id="path74" /></g><g
           id="g76"
           transform="translate(229.6758,125.3032)"><path
             d="m 0,0 c 0,-1.215 0.854,-2.045 1.964,-2.045 0.9,0 1.964,0.701 1.964,2.045 V 3.156 C 3.928,4.009 3.413,5.201 1.94,5.201 0.807,5.201 0,4.36 0,3.109 Z m -0.97,3.063 c 0,2.501 2.08,2.992 2.922,2.992 1.391,0 2.934,-0.959 2.934,-2.922 v -3.11 c 0,-2.279 -1.941,-2.921 -2.899,-2.921 -1.098,0 -2.957,0.701 -2.957,2.921 z"
             style="fill:#ffffff;fill-opacity:1;fill-rule:nonzero;stroke:none"
             id="path78" /></g><g
           id="g80"
           transform="translate(236.2773,125.3032)"><path
             d="m 0,0 c 0,-1.215 0.854,-2.045 1.964,-2.045 0.9,0 1.964,0.701 1.964,2.045 V 3.156 C 3.928,4.009 3.413,5.201 1.94,5.201 0.807,5.201 0,4.36 0,3.109 Z m -0.97,3.063 c 0,2.501 2.08,2.992 2.922,2.992 1.391,0 2.934,-0.959 2.934,-2.922 v -3.11 c 0,-2.279 -1.941,-2.921 -2.899,-2.921 -1.098,0 -2.957,0.701 -2.957,2.921 z"
             style="fill:#ffffff;fill-opacity:1;fill-rule:nonzero;stroke:none"
             id="path82" /></g><g
           id="g84"
           transform="translate(244.4912,130.376)"><path
             d="M 0,0 H -1.741 V 0.83 H 0.97 V -7.819 H 0 Z"
             style="fill:#ffffff;fill-opacity:1;fill-rule:nonzero;stroke:none"
             id="path86" /></g><g
           id="g88"
           transform="translate(249.4785,125.3032)"><path
             d="m 0,0 c 0,-1.215 0.854,-2.045 1.964,-2.045 0.9,0 1.964,0.701 1.964,2.045 V 3.156 C 3.928,4.009 3.413,5.201 1.94,5.201 0.807,5.201 0,4.36 0,3.109 Z m -0.97,3.063 c 0,2.501 2.08,2.992 2.922,2.992 1.391,0 2.934,-0.959 2.934,-2.922 v -3.11 c 0,-2.279 -1.941,-2.921 -2.899,-2.921 -1.098,0 -2.957,0.701 -2.957,2.921 z"
             style="fill:#ffffff;fill-opacity:1;fill-rule:nonzero;stroke:none"
             id="path90" /></g><g
           id="g92"
           transform="translate(256.0801,125.3032)"><path
             d="m 0,0 c 0,-1.215 0.854,-2.045 1.964,-2.045 0.9,0 1.964,0.701 1.964,2.045 V 3.156 C 3.928,4.009 3.413,5.201 1.94,5.201 0.807,5.201 0,4.36 0,3.109 Z m -0.97,3.063 c 0,2.501 2.08,2.992 2.922,2.992 1.391,0 2.934,-0.959 2.934,-2.922 v -3.11 c 0,-2.279 -1.941,-2.921 -2.899,-2.921 -1.098,0 -2.957,0.701 -2.957,2.921 z"
             style="fill:#ffffff;fill-opacity:1;fill-rule:nonzero;stroke:none"
             id="path94" /></g><g
           id="g96"
           transform="translate(264.2939,130.376)"><path
             d="M 0,0 H -1.741 V 0.83 H 0.97 V -7.819 H 0 Z"
             style="fill:#ffffff;fill-opacity:1;fill-rule:nonzero;stroke:none"
             id="path98" /></g><g
           id="g100"
           transform="translate(161.0386,114.3887)"><path
             d="m 0,0 c 0,-1.215 0.853,-2.045 1.963,-2.045 0.9,0 1.964,0.701 1.964,2.045 V 3.156 C 3.927,4.009 3.413,5.202 1.94,5.202 0.806,5.202 0,4.36 0,3.109 Z m -0.97,3.063 c 0,2.501 2.08,2.992 2.922,2.992 1.391,0 2.933,-0.959 2.933,-2.922 v -3.11 c 0,-2.279 -1.94,-2.921 -2.898,-2.921 -1.099,0 -2.957,0.701 -2.957,2.921 z"
             style="fill:#ffffff;fill-opacity:1;fill-rule:nonzero;stroke:none"
             id="path102" /></g><g
           id="g104"
           transform="translate(169.2524,119.4614)"><path
             d="M 0,0 H -1.742 V 0.83 H 0.97 V -7.819 H 0 Z"
             style="fill:#ffffff;fill-opacity:1;fill-rule:nonzero;stroke:none"
             id="path106" /></g><g
           id="g108"
           transform="translate(174.2397,114.3887)"><path
             d="m 0,0 c 0,-1.215 0.854,-2.045 1.964,-2.045 0.9,0 1.964,0.701 1.964,2.045 V 3.156 C 3.928,4.009 3.413,5.202 1.94,5.202 0.807,5.202 0,4.36 0,3.109 Z m -0.97,3.063 c 0,2.501 2.081,2.992 2.922,2.992 1.391,0 2.934,-0.959 2.934,-2.922 v -3.11 c 0,-2.279 -1.94,-2.921 -2.899,-2.921 -1.098,0 -2.957,0.701 -2.957,2.921 z"
             style="fill:#ffffff;fill-opacity:1;fill-rule:nonzero;stroke:none"
             id="path110" /></g><g
           id="g112"
           transform="translate(182.4541,119.4614)"><path
             d="M 0,0 H -1.741 V 0.83 H 0.97 V -7.819 H 0 Z"
             style="fill:#ffffff;fill-opacity:1;fill-rule:nonzero;stroke:none"
             id="path114" /></g><g
           id="g116"
           transform="translate(187.4424,114.3887)"><path
             d="m 0,0 c 0,-1.215 0.854,-2.045 1.964,-2.045 0.9,0 1.964,0.701 1.964,2.045 V 3.156 C 3.928,4.009 3.413,5.202 1.94,5.202 0.807,5.202 0,4.36 0,3.109 Z m -0.97,3.063 c 0,2.501 2.08,2.992 2.922,2.992 1.391,0 2.934,-0.959 2.934,-2.922 v -3.11 c 0,-2.279 -1.941,-2.921 -2.899,-2.921 -1.098,0 -2.957,0.701 -2.957,2.921 z"
             style="fill:#ffffff;fill-opacity:1;fill-rule:nonzero;stroke:none"
             id="path118" /></g><g
           id="g120"
           transform="translate(194.043,114.3887)"><path
             d="m 0,0 c 0,-1.215 0.854,-2.045 1.964,-2.045 0.9,0 1.964,0.701 1.964,2.045 V 3.156 C 3.928,4.009 3.413,5.202 1.94,5.202 0.807,5.202 0,4.36 0,3.109 Z m -0.97,3.063 c 0,2.501 2.08,2.992 2.922,2.992 1.391,0 2.934,-0.959 2.934,-2.922 v -3.11 c 0,-2.279 -1.941,-2.921 -2.899,-2.921 -1.098,0 -2.957,0.701 -2.957,2.921 z"
             style="fill:#ffffff;fill-opacity:1;fill-rule:nonzero;stroke:none"
             id="path122" /></g><g
           id="g124"
           transform="translate(202.2568,119.4614)"><path
             d="M 0,0 H -1.741 V 0.83 H 0.97 V -7.819 H 0 Z"
             style="fill:#ffffff;fill-opacity:1;fill-rule:nonzero;stroke:none"
             id="path126" /></g><g
           id="g128"
           transform="translate(208.8584,119.4614)"><path
             d="M 0,0 H -1.741 V 0.83 H 0.97 V -7.819 H 0 Z"
             style="fill:#ffffff;fill-opacity:1;fill-rule:nonzero;stroke:none"
             id="path130" /></g><g
           id="g132"
           transform="translate(215.0723,114.3887)"><path
             d="m 0,0 c 0,-1.215 0.854,-2.045 1.964,-2.045 0.9,0 1.964,0.701 1.964,2.045 V 3.156 C 3.928,4.009 3.413,5.202 1.94,5.202 0.807,5.202 0,4.36 0,3.109 Z m -0.97,3.063 c 0,2.501 2.08,2.992 2.922,2.992 1.391,0 2.934,-0.959 2.934,-2.922 v -3.11 c 0,-2.279 -1.941,-2.921 -2.899,-2.921 -1.098,0 -2.957,0.701 -2.957,2.921 z"
             style="fill:#ffffff;fill-opacity:1;fill-rule:nonzero;stroke:none"
             id="path134" /></g><g
           id="g136"
           transform="translate(223.2871,119.4614)"><path
             d="M 0,0 H -1.741 V 0.83 H 0.97 V -7.819 H 0 Z"
             style="fill:#ffffff;fill-opacity:1;fill-rule:nonzero;stroke:none"
             id="path138" /></g><g
           id="g140"
           transform="translate(227.9941,114.3887)"><path
             d="m 0,0 c 0,-1.215 0.854,-2.045 1.964,-2.045 0.9,0 1.964,0.701 1.964,2.045 V 3.156 C 3.928,4.009 3.413,5.202 1.94,5.202 0.807,5.202 0,4.36 0,3.109 Z m -0.97,3.063 c 0,2.501 2.08,2.992 2.922,2.992 1.391,0 2.934,-0.959 2.934,-2.922 v -3.11 c 0,-2.279 -1.941,-2.921 -2.899,-2.921 -1.098,0 -2.957,0.701 -2.957,2.921 z"
             style="fill:#ffffff;fill-opacity:1;fill-rule:nonzero;stroke:none"
             id="path142" /></g><g
           id="g144"
           transform="translate(234.3145,114.3887)"><path
             d="m 0,0 c 0,-1.215 0.854,-2.045 1.964,-2.045 0.9,0 1.964,0.701 1.964,2.045 V 3.156 C 3.928,4.009 3.413,5.202 1.94,5.202 0.807,5.202 0,4.36 0,3.109 Z m -0.97,3.063 c 0,2.501 2.08,2.992 2.922,2.992 1.391,0 2.934,-0.959 2.934,-2.922 v -3.11 c 0,-2.279 -1.941,-2.921 -2.899,-2.921 -1.098,0 -2.957,0.701 -2.957,2.921 z"
             style="fill:#ffffff;fill-opacity:1;fill-rule:nonzero;stroke:none"
             id="path146" /></g><g
           id="g148"
           transform="translate(161.0386,103.4741)"><path
             d="m 0,0 c 0,-1.215 0.853,-2.045 1.963,-2.045 0.9,0 1.964,0.701 1.964,2.045 V 3.156 C 3.927,4.009 3.413,5.201 1.94,5.201 0.806,5.201 0,4.36 0,3.109 Z m -0.97,3.063 c 0,2.501 2.08,2.992 2.922,2.992 1.391,0 2.933,-0.959 2.933,-2.922 v -3.11 c 0,-2.279 -1.94,-2.921 -2.898,-2.921 -1.099,0 -2.957,0.701 -2.957,2.921 z"
             style="fill:#ffffff;fill-opacity:1;fill-rule:nonzero;stroke:none"
             id="path150" /></g><g
           id="g152"
           transform="translate(169.2524,108.5469)"><path
             d="M 0,0 H -1.742 V 0.83 H 0.97 V -7.819 H 0 Z"
             style="fill:#ffffff;fill-opacity:1;fill-rule:nonzero;stroke:none"
             id="path154" /></g><g
           id="g156"
           transform="translate(174.2397,103.4741)"><path
             d="m 0,0 c 0,-1.215 0.854,-2.045 1.964,-2.045 0.9,0 1.964,0.701 1.964,2.045 V 3.156 C 3.928,4.009 3.413,5.201 1.94,5.201 0.807,5.201 0,4.36 0,3.109 Z m -0.97,3.063 c 0,2.501 2.081,2.992 2.922,2.992 1.391,0 2.934,-0.959 2.934,-2.922 v -3.11 c 0,-2.279 -1.94,-2.921 -2.899,-2.921 -1.098,0 -2.957,0.701 -2.957,2.921 z"
             style="fill:#ffffff;fill-opacity:1;fill-rule:nonzero;stroke:none"
             id="path158" /></g><g
           id="g160"
           transform="translate(180.8408,103.4741)"><path
             d="m 0,0 c 0,-1.215 0.854,-2.045 1.964,-2.045 0.9,0 1.964,0.701 1.964,2.045 V 3.156 C 3.928,4.009 3.413,5.201 1.94,5.201 0.807,5.201 0,4.36 0,3.109 Z m -0.97,3.063 c 0,2.501 2.08,2.992 2.922,2.992 1.391,0 2.934,-0.959 2.934,-2.922 v -3.11 c 0,-2.279 -1.941,-2.921 -2.899,-2.921 -1.098,0 -2.957,0.701 -2.957,2.921 z"
             style="fill:#ffffff;fill-opacity:1;fill-rule:nonzero;stroke:none"
             id="path162" /></g><g
           id="g164"
           transform="translate(215.3408,103.4741)"><path
             d="m 0,0 c 0,-1.215 0.854,-2.045 1.964,-2.045 0.9,0 1.964,0.701 1.964,2.045 V 3.156 C 3.928,4.009 3.413,5.201 1.94,5.201 0.807,5.201 0,4.36 0,3.109 Z m -0.97,3.063 c 0,2.501 2.08,2.992 2.922,2.992 1.391,0 2.934,-0.959 2.934,-2.922 v -3.11 c 0,-2.279 -1.941,-2.921 -2.899,-2.921 -1.098,0 -2.957,0.701 -2.957,2.921 z"
             style="fill:#ffffff;fill-opacity:1;fill-rule:nonzero;stroke:none"
             id="path166" /></g><g
           id="g168"
           transform="translate(223.5557,108.5469)"><path
             d="M 0,0 H -1.741 V 0.83 H 0.97 V -7.819 H 0 Z"
             style="fill:#ffffff;fill-opacity:1;fill-rule:nonzero;stroke:none"
             id="path170" /></g><g
           id="g172"
           transform="translate(228.2627,103.4741)"><path
             d="m 0,0 c 0,-1.215 0.854,-2.045 1.964,-2.045 0.9,0 1.964,0.701 1.964,2.045 V 3.156 C 3.928,4.009 3.413,5.201 1.94,5.201 0.807,5.201 0,4.36 0,3.109 Z m -0.97,3.063 c 0,2.501 2.08,2.992 2.922,2.992 1.391,0 2.934,-0.959 2.934,-2.922 v -3.11 c 0,-2.279 -1.941,-2.921 -2.899,-2.921 -1.098,0 -2.957,0.701 -2.957,2.921 z"
             style="fill:#ffffff;fill-opacity:1;fill-rule:nonzero;stroke:none"
             id="path174" /></g><g
           id="g176"
           transform="translate(234.583,103.4741)"><path
             d="m 0,0 c 0,-1.215 0.854,-2.045 1.964,-2.045 0.9,0 1.964,0.701 1.964,2.045 V 3.156 C 3.928,4.009 3.413,5.201 1.94,5.201 0.807,5.201 0,4.36 0,3.109 Z m -0.97,3.063 c 0,2.501 2.08,2.992 2.922,2.992 1.391,0 2.934,-0.959 2.934,-2.922 v -3.11 c 0,-2.279 -1.941,-2.921 -2.899,-2.921 -1.098,0 -2.957,0.701 -2.957,2.921 z"
             style="fill:#ffffff;fill-opacity:1;fill-rule:nonzero;stroke:none"
             id="path178" /></g><g
           id="g180"
           transform="translate(161.0386,92.5596)"><path
             d="m 0,0 c 0,-1.215 0.853,-2.045 1.963,-2.045 0.9,0 1.964,0.701 1.964,2.045 V 3.156 C 3.927,4.009 3.413,5.202 1.94,5.202 0.806,5.202 0,4.36 0,3.109 Z m -0.97,3.063 c 0,2.501 2.08,2.992 2.922,2.992 1.391,0 2.933,-0.959 2.933,-2.922 v -3.11 c 0,-2.279 -1.94,-2.921 -2.898,-2.921 -1.099,0 -2.957,0.701 -2.957,2.921 z"
             style="fill:#ffffff;fill-opacity:1;fill-rule:nonzero;stroke:none"
             id="path182" /></g><g
           id="g184"
           transform="translate(169.2524,97.6323)"><path
             d="M 0,0 H -1.742 V 0.83 H 0.97 V -7.819 H 0 Z"
             style="fill:#ffffff;fill-opacity:1;fill-rule:nonzero;stroke:none"
             id="path186" /></g><g
           id="g188"
           transform="translate(174.2397,92.5596)"><path
             d="m 0,0 c 0,-1.215 0.854,-2.045 1.964,-2.045 0.9,0 1.964,0.701 1.964,2.045 V 3.156 C 3.928,4.009 3.413,5.202 1.94,5.202 0.807,5.202 0,4.36 0,3.109 Z m -0.97,3.063 c 0,2.501 2.081,2.992 2.922,2.992 1.391,0 2.934,-0.959 2.934,-2.922 v -3.11 c 0,-2.279 -1.94,-2.921 -2.899,-2.921 -1.098,0 -2.957,0.701 -2.957,2.921 z"
             style="fill:#ffffff;fill-opacity:1;fill-rule:nonzero;stroke:none"
             id="path190" /></g><g
           id="g192"
           transform="translate(182.4541,97.6323)"><path
             d="M 0,0 H -1.741 V 0.83 H 0.97 V -7.819 H 0 Z"
             style="fill:#ffffff;fill-opacity:1;fill-rule:nonzero;stroke:none"
             id="path194" /></g><g
           id="g196"
           transform="translate(169.6646,30.0811)"><path
             d="m 0,0 h 2.991 c 0.541,0 1.31,0.029 1.965,0.313 0.855,0.371 1.51,1.083 1.51,2.421 C 6.466,3.96 5.839,4.7 4.985,5.07 4.301,5.355 3.589,5.355 2.849,5.355 H 0 Z m 0,8.916 h 2.364 c 0.598,0 1.282,0.057 1.823,0.284 0.827,0.428 1.196,1.112 1.196,2.109 0,1.082 -0.569,1.737 -1.167,1.994 -0.485,0.227 -1.111,0.313 -1.88,0.313 H 0 Z m -4.244,8.432 h 6.922 c 2.051,0 3.646,-0.428 4.728,-1.254 C 8.83,15.153 9.457,13.616 9.457,11.878 9.457,9.941 8.459,8.432 6.865,7.549 10.397,6.353 10.54,3.39 10.54,2.479 10.54,0.569 9.742,-1.225 8.261,-2.25 6.58,-3.531 5.241,-3.731 2.25,-3.731 h -6.494 z"
             style="fill:#ffffff;fill-opacity:1;fill-rule:nonzero;stroke:none"
             id="path198" /></g><path
           d="m 197.918,47.429 h 4.245 V 26.35 h -4.245 z"
           style="fill:#ffffff;fill-opacity:1;fill-rule:nonzero;stroke:none"
           id="path200" /><g
           id="g202"
           transform="translate(224.0312,32.9014)"><path
             d="m 0,0 c 0.143,-2.848 2.051,-3.39 2.962,-3.39 1.624,0 2.878,1.311 2.878,2.792 0,1.794 -1.511,2.25 -4.444,3.418 -1.595,0.57 -5.27,1.88 -5.27,5.868 0,4.044 3.561,6.239 6.978,6.239 2.792,0 6.496,-1.482 6.667,-6.154 H 5.583 C 5.412,9.742 5.042,11.365 2.962,11.365 1.566,11.365 0.37,10.396 0.37,8.973 0.342,7.406 1.481,7.007 5.042,5.526 8.261,4.13 10.055,2.593 10.055,-0.398 c 0,-3.39 -2.079,-6.552 -7.035,-6.552 -4.786,0 -7.264,2.877 -7.236,6.95 z"
             style="fill:#ffffff;fill-opacity:1;fill-rule:nonzero;stroke:none"
             id="path204" /></g><path
           d="m 252.204,47.429 h 4.244 V 26.35 h -4.244 z"
           style="fill:#ffffff;fill-opacity:1;fill-rule:nonzero;stroke:none"
           id="path206" /><path
           id="path208"
           style="fill:#ffffff;fill-opacity:1;fill-rule:nonzero;stroke:none;stroke-width:1.33333"
           d="M 249.78516 62.900391 L 249.78516 103.79492 C 252.42679 100.78634 257.38887 96.869141 265.44336 96.869141 C 274.18427 96.869141 279.86139 101.49611 282.64258 104.49609 L 282.64258 62.900391 L 249.78516 62.900391 z M 285.92773 77.761719 L 285.92773 106.0625 L 310.35156 106.0625 C 310.95956 106.0625 311.5354 106.33721 311.91406 106.81055 L 316.68164 112.77344 L 318.78516 105.44141 L 318.78516 77.761719 L 285.92773 77.761719 z M 213.64062 92.292969 L 213.64062 106.0625 L 246.49805 106.0625 L 246.49805 92.292969 L 213.64062 92.292969 z M 265.44336 100.86914 C 255.12336 100.86914 251.01008 108.87374 250.96875 108.95508 C 250.72489 109.44473 250.2913 109.799 249.78516 109.96094 L 249.78516 140.96094 L 282.64258 140.96094 L 282.64258 110.01953 C 282.08945 109.92642 281.59165 109.61736 281.28516 109.13477 C 281.06916 108.8041 275.82736 100.86914 265.44336 100.86914 z M 213.64062 110.0625 L 213.64062 140.96094 L 246.49805 140.96094 L 246.49805 110.0625 L 213.64062 110.0625 z M 285.92773 110.0625 L 285.92773 140.96094 L 318.78516 140.96094 L 318.78516 118.58789 C 318.5389 118.78699 318.25386 118.93888 317.93164 119.00391 C 317.79964 119.03057 317.66911 119.04297 317.53711 119.04297 C 316.93578 119.04297 316.3579 118.77102 315.97656 118.29102 L 309.39258 110.0625 L 285.92773 110.0625 z "
           transform="matrix(0.75000002,0,0,-0.75000002,0,156.61101)" /><path
           id="path214"
           style="fill:#ffffff;fill-opacity:1;fill-rule:nonzero;stroke:none;stroke-width:1.33333"
           d="M 322.07227 48.779297 L 322.07227 93.982422 L 332.23438 58.558594 C 332.47971 57.698594 333.27368 57.109375 334.15234 57.109375 C 334.18834 57.109375 334.22767 57.110615 334.26367 57.113281 C 335.19434 57.163948 335.965 57.850865 336.125 58.769531 L 347.20508 122.79102 L 354.92969 107.16992 L 354.92969 48.779297 L 322.07227 48.779297 z M 333.67188 68.046875 L 322.07227 108.48242 L 322.07227 140.96094 L 354.92969 140.96094 L 354.92969 116.20703 L 348.07422 130.07031 C 347.73422 130.75698 347.0352 131.18555 346.2832 131.18555 C 346.1872 131.18555 346.09014 131.1774 345.99414 131.16406 C 345.13681 131.03873 344.45855 130.37606 344.31055 129.52539 L 333.67188 68.046875 z "
           transform="matrix(0.75000002,0,0,-0.75000002,0,156.61101)" /><g
           id="g216"
           transform="translate(268.7168,67.7949)"><path
             id="path218"
             style="fill:#ffffff;fill-opacity:1;fill-rule:nonzero;stroke:none;stroke-width:1.33333"
             d="M 208.82227 28.8125 L 208.82227 106.0625 L 248.04102 106.0625 C 249.77568 103.3905 255.07003 96.869141 265.44336 96.869141 C 275.92069 96.869141 282.05876 103.5505 283.99609 106.0625 L 310.35156 106.0625 C 310.95956 106.0625 311.5354 106.33721 311.91406 106.81055 L 316.68164 112.77344 L 332.23438 58.558594 C 332.47971 57.698594 333.27369 57.109375 334.15234 57.109375 C 334.18834 57.109375 334.22767 57.110615 334.26367 57.113281 C 335.19435 57.163948 335.965 57.850865 336.125 58.769531 L 347.20508 122.79102 L 360.00391 96.908203 L 360.00391 28.8125 L 208.82227 28.8125 z M 210.53125 30.517578 L 358.28906 30.517578 L 358.28906 91.597656 C 355.20506 97.650989 349.06055 110.00586 349.06055 110.00586 L 340.07617 58.085938 C 339.59351 55.311271 337.29495 53.270521 334.48828 53.117188 C 334.38295 53.111854 334.27082 53.109375 334.16016 53.109375 C 331.49882 53.109375 329.12848 54.897031 328.39648 57.457031 L 314.98047 104.23242 C 313.84047 102.85376 312.16133 102.06055 310.36133 102.06055 L 285.87109 102.06055 C 282.61509 98.448547 275.89384 92.867187 265.45117 92.867188 C 255.08451 92.867188 248.9591 98.35788 246.00977 102.06055 L 210.53125 102.06055 L 210.53125 30.517578 z M 333.67188 68.046875 L 319.45898 117.5918 C 319.25366 118.31313 318.66497 118.85591 317.93164 119.00391 C 317.79964 119.03057 317.66911 119.04297 317.53711 119.04297 C 316.93578 119.04297 316.35791 118.77102 315.97656 118.29102 L 309.39258 110.0625 L 282.9707 110.0625 C 282.28804 110.0625 281.65182 109.7121 281.28516 109.13477 C 281.06916 108.8041 275.82736 100.86914 265.44336 100.86914 C 255.12336 100.86914 251.01008 108.87374 250.96875 108.95508 C 250.63142 109.63241 249.93835 110.0625 249.17969 110.0625 L 208.82227 110.0625 L 208.82227 179.99414 L 360.00391 179.99414 L 360.00391 114.94531 L 360.00391 105.94727 L 348.07422 130.07031 C 347.73422 130.75698 347.0352 131.18555 346.2832 131.18555 C 346.1872 131.18555 346.09014 131.1774 345.99414 131.16406 C 345.13681 131.03873 344.45855 130.37606 344.31055 129.52539 L 333.67188 68.046875 z M 332.71289 85.921875 L 340.375 130.20703 C 340.82167 132.77636 342.85369 134.74909 345.42969 135.12109 C 345.70169 135.16243 345.99635 135.18359 346.29102 135.18359 C 348.59102 135.18359 350.65126 133.90056 351.66992 131.83789 L 358.94336 117.0918 L 358.28906 118.42188 L 358.28906 178.27539 L 210.53125 178.27539 L 210.53125 114.06055 L 249.1875 114.06055 C 251.46083 114.06055 253.50387 112.80782 254.5332 110.78516 C 254.7372 110.40916 257.88584 104.86719 265.45117 104.86719 C 273.61917 104.86719 277.76221 111.04983 277.93555 111.3125 C 279.02488 113.02317 280.9178 114.06055 282.98047 114.06055 L 307.47852 114.06055 L 312.86133 120.79102 C 313.99599 122.21902 315.70564 123.04492 317.54297 123.04492 C 317.93764 123.04492 318.33599 123.00507 318.72266 122.92773 C 320.93599 122.48373 322.69445 120.85941 323.31445 118.69141 L 332.71289 85.921875 z "
             transform="matrix(0.75000002,0,0,-0.75000002,-268.7168,88.816106)" /></g><g
           id="g220"
           transform="translate(156.5293,74.0645)" /><g
           id="g224"
           transform="translate(294.0156,100.4424)"><path
             d="m 0,0 h 3.899 c 0.873,0 1.833,0.087 2.62,0.408 1.28,0.552 2.24,1.658 2.269,3.579 0,1.745 -0.932,3.026 -2.299,3.637 C 5.529,8.031 4.802,8.061 3.463,8.061 H 0 Z m 0,10.097 h 3.26 c 0.989,0 1.862,0.117 2.531,0.437 1.367,0.757 1.746,1.891 1.746,3.201 0,1.571 -0.844,2.648 -1.746,3.055 -0.553,0.291 -1.28,0.465 -2.677,0.495 H 0 Z m -2.386,9.312 h 5.674 c 1.95,0 3.288,-0.349 4.249,-1.018 1.746,-0.99 2.327,-2.794 2.327,-4.482 0,-2.532 -1.426,-3.812 -2.88,-4.568 C 10.854,8.148 11.116,4.86 11.116,3.87 11.087,1.542 10.01,-0.204 8.177,-1.164 6.896,-1.949 5.675,-2.124 3.551,-2.124 h -5.937 z"
             style="fill:#ffffff;fill-opacity:1;fill-rule:nonzero;stroke:none"
             id="path226" /></g><path
           d="m 308.406,119.851 h 2.386 V 98.318 h -2.386 z"
           style="fill:#ffffff;fill-opacity:1;fill-rule:nonzero;stroke:none"
           id="path228" /><g
           id="g230"
           transform="translate(316.4951,109.085)"><path
             d="m 0,0 c 0,-5.063 3.813,-9.021 8.846,-9.021 5.092,0 8.817,4.103 8.817,9.021 0,4.917 -3.725,9.021 -8.846,9.021 C 3.754,9.021 0,5.005 0,0.029 Z m -2.415,-0.058 c 0,6.634 5.15,11.203 11.232,11.203 6.315,0 11.232,-4.831 11.232,-11.145 0,-6.314 -4.889,-11.145 -11.232,-11.145 -6.373,0 -11.232,4.918 -11.232,11.058 z"
             style="fill:#ffffff;fill-opacity:1;fill-rule:nonzero;stroke:none"
             id="path232" /></g><g
           id="g234"
           transform="translate(340.9121,104.3125)"><path
             d="m 0,0 c 0.35,-3.579 2.969,-4.335 4.307,-4.335 2.241,0 4.306,1.716 4.306,4.103 0,3.025 -2.59,3.695 -5.092,4.51 -1.746,0.523 -5.5,1.629 -5.5,5.703 -0.057,3.812 3.114,5.936 6.403,5.936 2.677,0 5.761,-1.484 6.11,-5.558 H 8.148 C 7.886,11.756 7.187,13.88 4.336,13.88 2.183,13.88 0.408,12.425 0.408,10.185 0.379,7.566 2.503,6.926 5.762,5.82 7.799,5.034 11,3.899 11,-0.058 11,-3.579 8.352,-6.373 4.336,-6.373 0.728,-6.373 -2.27,-4.103 -2.415,0 Z"
             style="fill:#ffffff;fill-opacity:1;fill-rule:nonzero;stroke:none"
             id="path236" /></g><g
           id="g238"
           transform="translate(358.1719,117.7271)"><path
             d="M 0,0 H -5.296 V 2.124 H 7.74 V 0 H 2.415 V -19.409 H 0 Z"
             style="fill:#ffffff;fill-opacity:1;fill-rule:nonzero;stroke:none"
             id="path240" /></g><g
           id="g242"
           transform="translate(374.4268,117.145)"><path
             d="m 0,0 -4.277,-10.795 h 8.584 z m -7.479,-18.827 h -2.589 l 8.992,21.533 h 2.327 l 8.904,-21.533 H 7.536 l -2.502,6.053 H -5.005 Z"
             style="fill:#ffffff;fill-opacity:1;fill-rule:nonzero;stroke:none"
             id="path244" /></g><g
           id="g246"
           transform="translate(388.3701,117.7271)"><path
             d="M 0,0 H -5.296 V 2.124 H 7.74 V 0 H 2.415 V -19.409 H 0 Z"
             style="fill:#ffffff;fill-opacity:1;fill-rule:nonzero;stroke:none"
             id="path248" /></g><path
           d="m 398.258,119.851 h 2.386 V 98.318 h -2.386 z"
           style="fill:#ffffff;fill-opacity:1;fill-rule:nonzero;stroke:none"
           id="path250" /><g
           id="g252"
           transform="translate(406.332,104.3125)"><path
             d="m 0,0 c 0.35,-3.579 2.969,-4.335 4.307,-4.335 2.241,0 4.306,1.716 4.306,4.103 0,3.025 -2.59,3.695 -5.092,4.51 -1.746,0.523 -5.5,1.629 -5.5,5.703 -0.057,3.812 3.114,5.936 6.403,5.936 2.677,0 5.761,-1.484 6.11,-5.558 H 8.148 C 7.886,11.756 7.187,13.88 4.336,13.88 2.183,13.88 0.408,12.425 0.408,10.185 0.379,7.566 2.503,6.926 5.762,5.82 7.799,5.034 11,3.899 11,-0.058 11,-3.579 8.352,-6.373 4.336,-6.373 0.728,-6.373 -2.27,-4.103 -2.415,0 Z"
             style="fill:#ffffff;fill-opacity:1;fill-rule:nonzero;stroke:none"
             id="path254" /></g><g
           id="g256"
           transform="translate(423.5947,117.7271)"><path
             d="M 0,0 H -5.296 V 2.124 H 7.74 V 0 H 2.415 V -19.409 H 0 Z"
             style="fill:#ffffff;fill-opacity:1;fill-rule:nonzero;stroke:none"
             id="path258" /></g><path
           d="m 433.483,119.851 h 2.386 V 98.318 h -2.386 z"
           style="fill:#ffffff;fill-opacity:1;fill-rule:nonzero;stroke:none"
           id="path260" /><g
           id="g262"
           transform="translate(460.2354,104.1089)"><path
             d="m 0,0 c -1.396,-3.317 -5.15,-6.169 -9.894,-6.169 -6.372,0 -11.231,4.918 -11.231,11.145 0,6.14 4.743,11.145 11.203,11.145 5.325,0 8.671,-3.55 9.922,-6.286 h -2.59 c -0.726,1.281 -3.171,4.162 -7.332,4.162 -5.034,0 -8.817,-3.987 -8.817,-8.992 0,-5.092 3.812,-9.049 8.817,-9.049 4.51,0 6.809,3.23 7.332,4.044 z"
             style="fill:#ffffff;fill-opacity:1;fill-rule:nonzero;stroke:none"
             id="path264" /></g><g
           id="g266"
           transform="translate(464.7148,104.3125)"><path
             d="m 0,0 c 0.35,-3.579 2.969,-4.335 4.307,-4.335 2.241,0 4.306,1.716 4.306,4.103 0,3.025 -2.59,3.695 -5.092,4.51 -1.746,0.523 -5.5,1.629 -5.5,5.703 -0.057,3.812 3.114,5.936 6.403,5.936 2.677,0 5.761,-1.484 6.11,-5.558 H 8.148 C 7.886,11.756 7.187,13.88 4.336,13.88 2.183,13.88 0.408,12.425 0.408,10.185 0.379,7.566 2.503,6.926 5.762,5.82 7.799,5.034 11,3.899 11,-0.058 11,-3.579 8.352,-6.373 4.336,-6.373 0.728,-6.373 -2.27,-4.103 -2.415,0 Z"
             style="fill:#ffffff;fill-opacity:1;fill-rule:nonzero;stroke:none"
             id="path268" /></g><g
           id="g270"
           transform="translate(494.2227,118.3672)"><path
             d="m 0,0 c -1.805,0 -2.881,-1.484 -2.881,-2.881 0,-1.687 1.367,-2.851 2.386,-3.899 2.328,1.135 3.521,1.863 3.521,3.783 C 3.026,-1.426 1.833,0 0.029,0 Z m -0.96,-9.253 c -3.26,-1.514 -4.19,-3.201 -4.22,-4.947 0.03,-2.212 1.746,-4.161 4.278,-4.161 2.503,0 3.695,1.455 4.918,3.957 z m 11.406,2.473 -3.811,-7.245 4.83,-4.918 -1.514,-1.455 -4.452,4.568 c -1.454,-2.851 -3.055,-4.626 -6.518,-4.626 -3.957,0 -6.489,2.968 -6.489,6.11 0,3.579 3.056,5.471 5.18,6.46 -1.455,1.543 -2.619,2.852 -2.677,4.86 0,2.648 2.153,4.888 5.005,4.888 2.881,0 5.062,-2.24 5.062,-4.888 0,-2.91 -2.269,-4.074 -4.277,-5.063 l 4.395,-4.481 2.967,5.79 z"
             style="fill:#ffffff;fill-opacity:1;fill-rule:nonzero;stroke:none"
             id="path272" /></g><g
           id="g274"
           transform="translate(291.6299,67.3584)"><path
             d="m 0,0 v 21.532 h 3.375 l 7.974,-18.069 7.943,18.069 h 3.376 V 0 h -2.27 L 20.456,19.146 12.104,0 H 10.563 L 2.183,19.146 2.24,0 Z"
             style="fill:#ffffff;fill-opacity:1;fill-rule:nonzero;stroke:none"
             id="path276" /></g><g
           id="g278"
           transform="translate(318.6953,88.8906)"><path
             d="M 0,0 H 11.931 V -2.124 H 2.386 v -7.479 h 9.486 v -2.124 H 2.386 v -7.681 h 9.545 v -2.124 H 0 Z"
             style="fill:#ffffff;fill-opacity:1;fill-rule:nonzero;stroke:none"
             id="path280" /></g><g
           id="g282"
           transform="translate(336.4014,69.4824)"><path
             d="m 0,0 h 4.277 c 5.53,0 8.411,3.404 8.411,8.583 0,2.503 -0.67,4.715 -2.096,6.286 -1.367,1.455 -3.375,2.415 -6.315,2.415 H 0 Z m -2.386,19.408 h 6.431 c 3.056,0 6.314,-0.669 8.468,-3.23 1.746,-1.92 2.59,-4.451 2.59,-7.507 0,-6.488 -3.696,-10.795 -10.942,-10.795 h -6.547 z"
             style="fill:#ffffff;fill-opacity:1;fill-rule:nonzero;stroke:none"
             id="path284" /></g><path
           d="m 354.893,88.891 h 2.386 V 67.359 h -2.386 z"
           style="fill:#ffffff;fill-opacity:1;fill-rule:nonzero;stroke:none"
           id="path286" /><g
           id="g288"
           transform="translate(381.6455,73.1494)"><path
             d="m 0,0 c -1.396,-3.317 -5.15,-6.169 -9.894,-6.169 -6.372,0 -11.231,4.917 -11.231,11.144 0,6.14 4.743,11.145 11.203,11.145 5.325,0 8.671,-3.55 9.922,-6.286 h -2.59 c -0.726,1.281 -3.171,4.162 -7.332,4.162 -5.034,0 -8.817,-3.987 -8.817,-8.992 0,-5.092 3.812,-9.049 8.817,-9.049 4.51,0 6.809,3.23 7.332,4.045 z"
             style="fill:#ffffff;fill-opacity:1;fill-rule:nonzero;stroke:none"
             id="path290" /></g><g
           id="g292"
           transform="translate(392.2295,86.1846)"><path
             d="m 0,0 -4.277,-10.795 h 8.584 z m -7.479,-18.826 h -2.589 l 8.992,21.532 h 2.327 l 8.904,-21.532 H 7.536 l -2.502,6.053 H -5.005 Z"
             style="fill:#ffffff;fill-opacity:1;fill-rule:nonzero;stroke:none"
             id="path294" /></g><g
           id="g296"
           transform="translate(404.5771,88.8906)"><path
             d="m 0,0 h 2.415 v -19.408 h 8.206 v -2.124 H 0 Z"
             style="fill:#ffffff;fill-opacity:1;fill-rule:nonzero;stroke:none"
             id="path298" /></g><path
           d="m 425.849,88.891 h 2.386 V 67.359 h -2.386 z"
           style="fill:#ffffff;fill-opacity:1;fill-rule:nonzero;stroke:none"
           id="path300" /><g
           id="g302"
           transform="translate(447.6436,70.9082)"><path
             d="M 0,0 -0.029,17.982 H 2.299 V -3.55 h -2.328 l -12.775,18.128 0.059,-18.128 h -2.328 v 21.532 h 2.444 z"
             style="fill:#ffffff;fill-opacity:1;fill-rule:nonzero;stroke:none"
             id="path304" /></g><g
           id="g306"
           transform="translate(454.3086,88.8906)"><path
             d="M 0,0 H 10.941 V -2.124 H 2.386 v -7.565 h 8.497 v -2.154 H 2.386 v -9.689 H 0 Z"
             style="fill:#ffffff;fill-opacity:1;fill-rule:nonzero;stroke:none"
             id="path308" /></g><g
           id="g310"
           transform="translate(469.7109,78.1245)"><path
             d="m 0,0 c 0,-5.063 3.813,-9.02 8.846,-9.02 5.092,0 8.817,4.103 8.817,9.02 0,4.917 -3.725,9.021 -8.846,9.021 C 3.754,9.021 0,5.005 0,0.029 Z m -2.415,-0.059 c 0,6.635 5.15,11.204 11.232,11.204 6.315,0 11.232,-4.831 11.232,-11.145 0,-6.314 -4.889,-11.144 -11.232,-11.144 -6.373,0 -11.232,4.917 -11.232,11.057 z"
             style="fill:#ffffff;fill-opacity:1;fill-rule:nonzero;stroke:none"
             id="path312" /></g><g
           id="g314"
           transform="translate(492.9639,88.8906)"><path
             d="m 0,0 h 5.616 c 3.376,0 4.947,-0.407 6.053,-1.105 1.746,-1.048 2.938,-3.347 2.938,-5.791 0.03,-1.455 -0.378,-2.997 -1.28,-4.219 -1.28,-1.746 -2.822,-2.154 -4.801,-2.357 l 5.354,-8.06 h -2.618 l -6.082,9.398 h 0.698 c 1.514,0 3.608,0.03 4.772,1.106 1.135,1.106 1.63,2.415 1.63,3.957 0,1.601 -0.786,3.288 -2.125,4.161 -1.076,0.699 -2.415,0.786 -4.364,0.786 H 2.416 V -21.532 H 0 Z"
             style="fill:#ffffff;fill-opacity:1;fill-rule:nonzero;stroke:none"
             id="path316" /></g><g
           id="g318"
           transform="translate(510.5029,67.3584)"><path
             d="m 0,0 v 21.532 h 3.375 l 7.974,-18.069 7.943,18.069 h 3.376 V 0 h -2.27 L 20.456,19.146 12.104,0 H 10.563 L 2.183,19.146 2.24,0 Z"
             style="fill:#ffffff;fill-opacity:1;fill-rule:nonzero;stroke:none"
             id="path320" /></g><g
           id="g322"
           transform="translate(545.4453,86.1846)"><path
             d="m 0,0 -4.277,-10.795 h 8.584 z m -7.479,-18.826 h -2.589 l 8.992,21.532 h 2.327 l 8.904,-21.532 H 7.536 l -2.502,6.053 H -5.005 Z"
             style="fill:#ffffff;fill-opacity:1;fill-rule:nonzero;stroke:none"
             id="path324" /></g><g
           id="g326"
           transform="translate(559.3877,86.7666)"><path
             d="M 0,0 H -5.296 V 2.124 H 7.74 V 0 H 2.415 V -19.408 H 0 Z"
             style="fill:#ffffff;fill-opacity:1;fill-rule:nonzero;stroke:none"
             id="path328" /></g><path
           d="m 569.276,88.891 h 2.386 V 67.359 h -2.386 z"
           style="fill:#ffffff;fill-opacity:1;fill-rule:nonzero;stroke:none"
           id="path330" /><g
           id="g332"
           transform="translate(596.0283,73.1494)"><path
             d="m 0,0 c -1.396,-3.317 -5.15,-6.169 -9.894,-6.169 -6.372,0 -11.231,4.917 -11.231,11.144 0,6.14 4.743,11.145 11.203,11.145 5.325,0 8.671,-3.55 9.922,-6.286 h -2.59 c -0.726,1.281 -3.171,4.162 -7.332,4.162 -5.034,0 -8.817,-3.987 -8.817,-8.992 0,-5.092 3.812,-9.049 8.817,-9.049 4.51,0 6.809,3.23 7.332,4.045 z"
             style="fill:#ffffff;fill-opacity:1;fill-rule:nonzero;stroke:none"
             id="path334" /></g><g
           id="g336"
           transform="translate(600.5078,73.3526)"><path
             d="m 0,0 c 0.35,-3.579 2.969,-4.336 4.307,-4.336 2.241,0 4.306,1.717 4.306,4.104 0,3.025 -2.59,3.695 -5.092,4.509 -1.746,0.524 -5.5,1.63 -5.5,5.703 -0.057,3.812 3.114,5.937 6.403,5.937 2.677,0 5.761,-1.484 6.11,-5.558 H 8.148 C 7.886,11.755 7.187,13.88 4.336,13.88 2.183,13.88 0.408,12.425 0.408,10.184 0.379,7.565 2.503,6.925 5.762,5.819 7.799,5.034 11,3.899 11,-0.058 11,-3.579 8.352,-6.372 4.336,-6.372 0.728,-6.372 -2.27,-4.103 -2.415,0 Z"
             style="fill:#ffffff;fill-opacity:1;fill-rule:nonzero;stroke:none"
             id="path338" /></g><g
           id="g340"
           transform="translate(291.4258,57.9317)"><path
             d="m 0,0 h 5.616 c 3.376,0 4.947,-0.407 6.053,-1.106 1.746,-1.047 2.938,-3.346 2.938,-5.79 0.03,-1.456 -0.378,-2.998 -1.28,-4.22 -1.28,-1.746 -2.822,-2.154 -4.801,-2.357 l 5.355,-8.06 h -2.619 l -6.082,9.398 h 0.698 c 1.514,0 3.608,0.03 4.772,1.107 1.135,1.105 1.63,2.415 1.63,3.957 0,1.6 -0.786,3.288 -2.124,4.161 -1.077,0.698 -2.416,0.786 -4.365,0.786 H 2.416 V -21.533 H 0 Z"
             style="fill:#ffffff;fill-opacity:1;fill-rule:nonzero;stroke:none"
             id="path342" /></g><g
           id="g344"
           transform="translate(308.9639,57.9317)"><path
             d="M 0,0 H 11.931 V -2.124 H 2.386 v -7.479 h 9.486 v -2.124 H 2.386 v -7.682 h 9.545 v -2.124 l -11.931,0 z"
             style="fill:#ffffff;fill-opacity:1;fill-rule:nonzero;stroke:none"
             id="path346" /></g><g
           id="g348"
           transform="translate(325.1797,42.3926)"><path
             d="m 0,0 c 0.35,-3.579 2.969,-4.336 4.307,-4.336 2.241,0 4.306,1.717 4.306,4.104 0,3.026 -2.59,3.695 -5.092,4.509 -1.746,0.525 -5.5,1.63 -5.5,5.703 -0.057,3.813 3.114,5.937 6.403,5.937 2.677,0 5.761,-1.484 6.11,-5.558 H 8.148 C 7.886,11.756 7.187,13.88 4.336,13.88 2.183,13.88 0.408,12.425 0.408,10.185 0.379,7.565 2.503,6.926 5.762,5.82 7.799,5.034 11,3.899 11,-0.058 11,-3.579 8.352,-6.372 4.336,-6.372 0.728,-6.372 -2.27,-4.103 -2.415,0 Z"
             style="fill:#ffffff;fill-opacity:1;fill-rule:nonzero;stroke:none"
             id="path350" /></g><g
           id="g352"
           transform="translate(339.4687,57.9317)"><path
             d="M 0,0 H 11.931 V -2.124 H 2.386 v -7.479 h 9.486 v -2.124 H 2.386 v -7.682 h 9.545 v -2.124 l -11.931,0 z"
             style="fill:#ffffff;fill-opacity:1;fill-rule:nonzero;stroke:none"
             id="path354" /></g><g
           id="g356"
           transform="translate(363.3877,55.2256)"><path
             d="m 0,0 -4.277,-10.796 h 8.584 z m -7.479,-18.827 h -2.589 l 8.992,21.533 h 2.327 l 8.904,-21.533 H 7.536 l -2.502,6.053 H -5.005 Z"
             style="fill:#ffffff;fill-opacity:1;fill-rule:nonzero;stroke:none"
             id="path358" /></g><g
           id="g360"
           transform="translate(375.6221,57.9317)"><path
             d="m 0,0 h 5.616 c 3.376,0 4.947,-0.407 6.053,-1.106 1.746,-1.047 2.938,-3.346 2.938,-5.79 0.03,-1.456 -0.378,-2.998 -1.28,-4.22 -1.28,-1.746 -2.822,-2.154 -4.801,-2.357 l 5.354,-8.06 h -2.618 l -6.082,9.398 h 0.698 c 1.514,0 3.608,0.03 4.772,1.107 1.135,1.105 1.63,2.415 1.63,3.957 0,1.6 -0.786,3.288 -2.125,4.161 -1.076,0.698 -2.415,0.786 -4.364,0.786 H 2.416 V -21.533 H 0 Z"
             style="fill:#ffffff;fill-opacity:1;fill-rule:nonzero;stroke:none"
             id="path362" /></g><g
           id="g364"
           transform="translate(413.0566,42.1895)"><path
             d="m 0,0 c -1.396,-3.317 -5.15,-6.169 -9.894,-6.169 -6.372,0 -11.231,4.917 -11.231,11.145 0,6.139 4.743,11.144 11.203,11.144 5.324,0 8.671,-3.55 9.922,-6.285 h -2.59 c -0.726,1.28 -3.171,4.161 -7.332,4.161 -5.034,0 -8.817,-3.986 -8.817,-8.991 0,-5.093 3.812,-9.05 8.817,-9.05 4.51,0 6.809,3.23 7.332,4.045 z"
             style="fill:#ffffff;fill-opacity:1;fill-rule:nonzero;stroke:none"
             id="path366" /></g><g
           id="g368"
           transform="translate(416.0264,36.3985)"><path
             d="M 0,0 V 21.533 H 2.386 V 11.96 h 10.388 v 9.573 h 2.415 V 0 H 12.774 V 9.835 H 2.386 L 2.386,0 Z"
             style="fill:#ffffff;fill-opacity:1;fill-rule:nonzero;stroke:none"
             id="path370" /></g><g
           id="g372"
           transform="translate(461.5381,52.3447)"><path
             d="M 0,0 C -0.669,0.931 -1.484,1.717 -2.415,2.327 -3.813,3.288 -5.5,3.841 -7.42,3.841 c -4.714,0 -8.817,-3.609 -8.817,-8.991 0,-5.471 4.132,-9.079 8.845,-9.079 2.271,0 4.279,0.786 5.762,1.949 1.514,1.193 2.561,2.823 2.91,4.51 H -9.428 v 1.979 H 4.073 c -0.028,-1.251 -0.319,-2.822 -0.96,-4.161 -1.862,-4.045 -6.169,-6.402 -10.505,-6.402 -6.285,0 -11.26,4.831 -11.26,11.204 0,6.46 5.063,11.115 11.29,11.115 4.365,0 8.41,-2.444 10.097,-5.965 z"
             style="fill:#ffffff;fill-opacity:1;fill-rule:nonzero;stroke:none"
             id="path374" /></g><g
           id="g376"
           transform="translate(468.4521,57.9317)"><path
             d="m 0,0 h 5.616 c 3.376,0 4.947,-0.407 6.053,-1.106 1.746,-1.047 2.938,-3.346 2.938,-5.79 0.03,-1.456 -0.378,-2.998 -1.28,-4.22 -1.28,-1.746 -2.822,-2.154 -4.801,-2.357 l 5.354,-8.06 h -2.618 l -6.082,9.398 h 0.698 c 1.514,0 3.608,0.03 4.772,1.107 1.135,1.105 1.63,2.415 1.63,3.957 0,1.6 -0.786,3.288 -2.125,4.161 -1.076,0.698 -2.415,0.786 -4.364,0.786 H 2.416 V -21.533 H 0 Z"
             style="fill:#ffffff;fill-opacity:1;fill-rule:nonzero;stroke:none"
             id="path378" /></g><g
           id="g380"
           transform="translate(487.1631,47.1651)"><path
             d="m 0,0 c 0,-5.063 3.813,-9.021 8.846,-9.021 5.092,0 8.817,4.103 8.817,9.021 0,4.918 -3.725,9.021 -8.846,9.021 C 3.754,9.021 0,5.005 0,0.029 Z m -2.415,-0.059 c 0,6.635 5.15,11.204 11.232,11.204 6.315,0 11.232,-4.831 11.232,-11.145 0,-6.314 -4.889,-11.145 -11.232,-11.145 -6.373,0 -11.232,4.917 -11.232,11.057 z"
             style="fill:#ffffff;fill-opacity:1;fill-rule:nonzero;stroke:none"
             id="path382" /></g><g
           id="g384"
           transform="translate(512.7803,57.9317)"><path
             d="m 0,0 v -13.647 c 0,-1.63 0,-2.881 1.018,-4.336 0.756,-1.077 2.182,-1.804 3.753,-1.804 1.542,0 2.968,0.698 3.696,1.774 1.018,1.426 1.018,2.678 1.018,4.366 V 0 h 2.387 v -13.647 c 0.028,-2.503 -0.291,-4.976 -2.444,-6.635 -1.194,-1.019 -2.794,-1.629 -4.657,-1.629 -1.512,0 -3.404,0.436 -4.743,1.629 -2.269,1.833 -2.444,4.277 -2.444,6.635 l 0,13.647 z"
             style="fill:#ffffff;fill-opacity:1;fill-rule:nonzero;stroke:none"
             id="path386" /></g><g
           id="g388"
           transform="translate(531.2461,46.9902)"><path
             d="m 0,0 h 3.434 c 1.803,0 2.909,0.204 3.986,0.902 0.931,0.612 1.601,1.979 1.601,3.492 0,1.543 -0.67,2.91 -1.63,3.521 C 6.313,8.613 5.208,8.817 3.375,8.817 H 0 Z m 3.259,10.941 c 3.026,0 4.452,-0.349 5.79,-1.368 C 10.475,8.468 11.348,6.46 11.348,4.452 11.348,2.415 10.446,0.35 9.137,-0.669 7.711,-1.775 6.256,-2.124 3.462,-2.124 H 0 v -8.468 h -2.416 v 21.533 z"
             style="fill:#ffffff;fill-opacity:1;fill-rule:nonzero;stroke:none"
             id="path390" /></g></g></g></g></svg>
