<?xml version="1.0" encoding="UTF-8" standalone="no"?>
<svg
   xmlns:dc="http://purl.org/dc/elements/1.1/"
   xmlns:cc="http://creativecommons.org/ns#"
   xmlns:rdf="http://www.w3.org/1999/02/22-rdf-syntax-ns#"
   xmlns:svg="http://www.w3.org/2000/svg"
   xmlns="http://www.w3.org/2000/svg"
   xmlns:sodipodi="http://sodipodi.sourceforge.net/DTD/sodipodi-0.dtd"
   xmlns:inkscape="http://www.inkscape.org/namespaces/inkscape"
   version="1.1"
   id="svg2"
   xml:space="preserve"
   width="975"
   height="208.81332"
   viewBox="0 0 974.99999 208.81332"
   sodipodi:docname="ICDS Core Facility_NEGATIVE.svg"
   inkscape:version="1.0.1 (3bc2e813f5, 2020-09-07)"
   inkscape:export-filename="C:\Users\Suzanne\OneDrive - Vrije Universiteit Brussel\Administratie\Logo\ICDS logo files\ICDS-Long.png"
   inkscape:export-xdpi="96"
   inkscape:export-ydpi="96"><metadata
     id="metadata8"><rdf:RDF><cc:Work
         rdf:about=""><dc:format>image/svg+xml</dc:format><dc:type
           rdf:resource="http://purl.org/dc/dcmitype/StillImage" /><dc:title /></cc:Work></rdf:RDF></metadata><defs
     id="defs6"><rect
       x="128.5484"
       y="193.69126"
       width="157.719"
       height="108.2773"
       id="rect1454" /></defs><sodipodi:namedview
     pagecolor="#1e1e1e"
     bordercolor="#666666"
     borderopacity="1"
     objecttolerance="10"
     gridtolerance="10"
     guidetolerance="10"
     inkscape:pageopacity="0"
     inkscape:pageshadow="2"
     inkscape:window-width="1920"
     inkscape:window-height="1001"
     id="namedview4"
     showgrid="false"
     inkscape:zoom="1.0726375"
     inkscape:cx="477.40241"
     inkscape:cy="12.746159"
     inkscape:window-x="-9"
     inkscape:window-y="-9"
     inkscape:window-maximized="1"
     inkscape:current-layer="g10"
     inkscape:document-rotation="0"
     showguides="true"
     inkscape:guide-bbox="true" /><g
     id="g10"
     inkscape:groupmode="layer"
     inkscape:label="ink_ext_XXXXXX"
     transform="matrix(1.3333333,0,0,-1.3333333,0,208.81332)"><g
   id="g12"
   transform="scale(0.1)"
   style="display:inline"><g
   id="g1238"
   transform="matrix(3.3326219,0,0,-3.3326219,1339.9227,431.73857)"
   style="opacity:1"><path
     inkscape:connector-curvature="0"
     id="path1244"
     d="M 0,-104.21227 V -339.71239 H 235.5 471 V -104.21227 131.2875 H 235.5 0 Z"
     style="opacity:0;fill:#ffffff" /><path
     inkscape:connector-curvature="0"
     id="path1242"
     d="m 64.463018,64.04042 c -0.262034,-0.689075 -0.360909,-77.30279 -0.219722,-170.2527 L 64.5,-275.21232 h 170 170 v 170.00004 169.99982 l -169.78028,0.25288 c -135.298561,0.20153 -169.877037,-0.002 -170.256702,-1 z M 400.5,-105.21228 v -166.00003 h -166 -166 l -0.256741,165.00003 c -0.141207,90.74991 -0.04232,165.563655 0.219748,166.252775 0.37968,0.99839 34.158283,1.20156 166.256743,1 L 400.5,60.787545 Z M 75.463515,-23.94986 c -0.26582,-0.69437 -0.366356,-25.337475 -0.223412,-54.76244 L 75.5,-132.21228 h 36.5 36.5 v 54.49998 54.49994 l -36.27659,0.2625 c -28.484677,0.20612 -36.380395,-0.009 -36.759895,-1 z m 81.001695,-1.5e-4 c -0.26482,-0.69429 -0.36533,-40.187305 -0.22335,-87.76227 l 0.25814,-86.5 h 37 37 v 87.5 87.49992 l -36.77665,0.26235 c -28.8856,0.20606 -36.87996,-0.009 -37.25814,-1 z m 81.99938,1.5e-4 c -0.26523,-0.69437 -0.36576,-32.762465 -0.22341,-71.26242 l 0.25882,-70 h 36.5 36.5 v 70.999995 70.999925 l -36.27659,0.2625 c -28.48512,0.20612 -36.38016,-0.009 -36.75882,-1 z m 81.00108,-1.5e-4 c -0.26457,-0.69429 -0.36508,-47.3873 -0.22336,-103.76227 l 0.25769,-102.5 h 37 37 v 103.50001 103.49991 l -36.77665,0.26235 c -28.88579,0.20606 -36.87986,-0.009 -37.25768,-1 z"
     style="opacity:1;fill:#f96504;stroke:#ffffff;stroke-opacity:1;fill-opacity:0" /><path
     inkscape:connector-curvature="0"
     id="path1240"
     d="m 64.463012,64.04042 c -0.26203,-0.689075 -0.36091,-77.30279 -0.21972,-170.2527 L 64.5,-275.21232 l 170,0 h 170 v 170.00004 169.99982 l -169.78028,0.25288 c -135.298561,0.20153 -169.877038,-0.002 -170.256708,-1 z M 400.5,-105.21228 V -271.21231 H 234.5 68.499993 l -0.256741,165.00003 c -0.1412,90.74991 -0.0423,165.563655 0.21975,166.252775 0.379681,0.99839 34.158288,1.20156 166.256748,1 L 400.5,60.787545 Z M 75.678944,-23.36674 c -0.37342,-0.37342 -0.67895,-4.320705 -0.67895,-8.77173 0,-6.622135 0.31802,-8.29246 1.75,-9.19162 0.962501,-0.60436 17.194634,-13.987585 36.071406,-29.74051 18.87677,-15.75292 34.74461,-28.641679 35.26188,-28.641679 0.57549,0 0.83885,14.844664 0.6786,38.249959 l -0.26188,38.24996 -36.07105,0.26229 c -19.839082,0.14425 -36.376576,-0.0433 -36.750006,-0.41667 z m 80.999856,-1.5e-4 C 156.30546,-23.74023 156,-42.76703 156,-65.648665 v -41.602995 l 18.91187,-15.73031 c 10.40153,-8.65166 19.40147,-15.73031 19.99988,-15.73031 0.5984,0 8.9591,4.3875 18.57934,9.75 l 17.49133,9.75 -0.24121,47.99997 -0.24121,47.99995 -36.5712,0.26214 c -20.11415,0.14417 -36.87665,-0.0433 -37.25,-0.41667 z m 82.00015,1.5e-4 C 238.30553,-23.74016 238,-44.22067 238,-68.87898 c 0,-34.51764 0.27963,-44.8333 1.21532,-44.8333 0.66843,0 9.18717,4.5 18.93055,10 9.74338,5.500001 18.1549,9.999995 18.69228,9.999995 0.53737,0 8.28647,-7.649995 17.22022,-16.999995 8.93375,-9.35 16.62935,-17 17.10133,-17 0.47197,0 0.74163,23.51251 0.59922,52.249975 L 311.5,-23.21236 l -36.07105,0.26229 c -19.83907,0.14425 -36.37657,-0.0433 -36.75,-0.41667 z m 80.99985,-1.5e-4 C 319.30546,-23.74023 319,-49.458695 319,-80.51903 v -56.47337 l 15.32171,-15.60994 c 8.42694,-8.58547 24.68113,-25.28494 36.12041,-37.10994 11.43928,-11.825 21.42179,-21.86114 22.18337,-22.30253 1.17622,-0.68171 1.34628,13.4692 1.12959,94.00001 l -0.25508,94.80244 -36.5712,0.26214 c -20.11415,0.14417 -36.87665,-0.0433 -37.25,-0.41667 z"
     style="opacity:1;fill:#ffffff;fill-opacity:1"
     sodipodi:nodetypes="sscccccssccccsssccsssssscsssscssscccsssssssssscsssscsssscss" /></g><g
   aria-label="I C D S "
   transform="scale(1,-1)"
   id="text3838"
   style="font-style:normal;font-variant:normal;font-weight:600;font-stretch:normal;font-size:302.527px;line-height:1.25;font-family:'ITC Avant Garde Gothic Std';-inkscape-font-specification:'ITC Avant Garde Gothic Std Semi-Bold';letter-spacing:0px;word-spacing:0px;opacity:1;fill:#ffffff;fill-opacity:1;stroke:none;stroke-width:3.54524"><path
     d="m 1686.3858,-256.99261 h 45.0765 V -480.8626 h -45.0765 z"
     style="word-spacing:-12.6px;fill:#ffffff;fill-opacity:1"
     id="path978" /><path
     d="m 2021.6909,-332.01931 c -4.2354,8.16823 -22.387,39.63104 -62.3206,39.63104 -42.6563,0 -72.0014,-36.00072 -72.0014,-76.84186 0,-39.63104 28.135,-76.23681 71.6989,-76.23681 35.6982,0.30253 55.6649,25.41227 62.6231,40.84115 h 47.4967 c -8.7733,-32.67292 -45.379,-80.16966 -109.8173,-80.47219 -70.7913,0 -117.0779,56.27002 -117.0779,115.86785 0,62.32056 49.0093,116.47289 117.3804,116.47289 52.3372,0 95.9011,-32.97544 109.5148,-79.26207 z"
     style="word-spacing:-12.6px;fill:#ffffff;fill-opacity:1"
     id="path980" /><path
     d="m 2178.5055,-256.99261 h 74.4216 c 81.3798,0 114.6578,-49.00938 114.6578,-112.23752 0,-27.52996 -6.6556,-52.33718 -22.9921,-72.90901 -26.6223,-36.00072 -67.161,-38.72346 -94.9934,-38.72346 h -71.0939 z m 45.0765,-184.23895 h 32.0679 c 27.2274,0 42.3538,10.28592 51.7321,22.387 10.5885,13.91624 15.1264,32.67291 15.1264,50.21948 0,40.23609 -18.7567,72.00143 -67.161,72.00143 h -31.7654 z"
     style="word-spacing:-12.6px;fill:#ffffff;fill-opacity:1"
     id="path982" /><path
     d="m 2466.304,-326.57383 c -0.3026,43.26137 26.0173,73.81659 76.8418,73.81659 52.6397,0 74.7242,-33.58049 74.7242,-69.58121 0,-31.76533 -19.0592,-48.10179 -53.2448,-62.92562 -37.8158,-15.7314 -49.9169,-19.96678 -49.6144,-36.60576 0,-15.12635 12.7061,-25.41227 27.53,-25.41227 22.0844,0 26.0173,17.24404 27.8325,27.52995 h 44.4714 c -1.8151,-49.61442 -41.1437,-65.34583 -70.7913,-65.34583 -36.3032,0 -74.1191,23.29458 -74.1191,66.25342 0,42.35378 39.026,56.27002 55.9675,62.32056 31.1603,12.40361 47.1942,17.24404 47.1942,36.30324 0,15.7314 -13.3112,29.64765 -30.5552,29.64765 -9.6809,0 -29.9502,-5.74802 -31.4628,-36.00072 z"
     style="word-spacing:-12.6px;fill:#ffffff;fill-opacity:1"
     id="path984" /></g>


<g
   aria-label="01001001"
   transform="scale(1,-1)"
   id="text3842"
   style="font-style:normal;font-variant:normal;font-weight:300;font-stretch:normal;font-size:120px;line-height:1.25;font-family:'ITC Avant Garde Gothic Std';-inkscape-font-specification:'ITC Avant Garde Gothic Std Light';letter-spacing:0px;word-spacing:0px;opacity:1;fill:#ffffff;fill-opacity:1;stroke:none;stroke-width:3.06783"><path
     d="m 1579.7014,-1247.5085 c 0,22.8 19.08,30 30.36,30 9.84,0 29.76,-6.6 29.76,-30 v -31.92 c 0,-20.16 -15.84,-30 -30.12,-30 -8.64,0 -30,5.04 -30,30.72 z m 9.96,-31.68 c 0,-12.84 8.28,-21.48 19.92,-21.48 15.12,0 20.4,12.24 20.4,21 v 32.4 c 0,13.8 -10.92,21 -20.16,21 -11.4,0 -20.16,-8.52 -20.16,-21 z"
     style="font-style:normal;font-variant:normal;font-weight:300;font-stretch:normal;font-size:120px;font-family:'ITC Avant Garde Gothic Std';-inkscape-font-specification:'ITC Avant Garde Gothic Std Light';opacity:1;fill:#ffffff;fill-opacity:1;stroke-width:3.06783"
     id="path987" /><path
     d="m 1675.3411,-1219.0685 h 9.96 v -88.8 h -27.84 v 8.52 h 17.88 z"
     style="font-style:normal;font-variant:normal;font-weight:300;font-stretch:normal;font-size:120px;font-family:'ITC Avant Garde Gothic Std';-inkscape-font-specification:'ITC Avant Garde Gothic Std Light';opacity:1;fill:#ffffff;fill-opacity:1;stroke-width:3.06783"
     id="path989" /><path
     d="m 1717.9409,-1247.5085 c 0,22.8 19.08,30 30.36,30 9.84,0 29.76,-6.6 29.76,-30 v -31.92 c 0,-20.16 -15.84,-30 -30.12,-30 -8.64,0 -30,5.04 -30,30.72 z m 9.96,-31.68 c 0,-12.84 8.28,-21.48 19.92,-21.48 15.12,0 20.4,12.24 20.4,21 v 32.4 c 0,13.8 -10.92,21 -20.16,21 -11.4,0 -20.16,-8.52 -20.16,-21 z"
     style="font-style:normal;font-variant:normal;font-weight:300;font-stretch:normal;font-size:120px;font-family:'ITC Avant Garde Gothic Std';-inkscape-font-specification:'ITC Avant Garde Gothic Std Light';opacity:1;fill:#ffffff;fill-opacity:1;stroke-width:3.06783"
     id="path991" /><path
     d="m 1787.0607,-1247.5085 c 0,22.8 19.08,30 30.36,30 9.84,0 29.76,-6.6 29.76,-30 v -31.92 c 0,-20.16 -15.84,-30 -30.12,-30 -8.64,0 -30,5.04 -30,30.72 z m 9.96,-31.68 c 0,-12.84 8.28,-21.48 19.92,-21.48 15.12,0 20.4,12.24 20.4,21 v 32.4 c 0,13.8 -10.92,21 -20.16,21 -11.4,0 -20.16,-8.52 -20.16,-21 z"
     style="font-style:normal;font-variant:normal;font-weight:300;font-stretch:normal;font-size:120px;font-family:'ITC Avant Garde Gothic Std';-inkscape-font-specification:'ITC Avant Garde Gothic Std Light';opacity:1;fill:#ffffff;fill-opacity:1;stroke-width:3.06783"
     id="path993" /><path
     d="m 1882.7005,-1219.0685 h 9.96 v -88.8 h -27.84 v 8.52 h 17.88 z"
     style="font-style:normal;font-variant:normal;font-weight:300;font-stretch:normal;font-size:120px;font-family:'ITC Avant Garde Gothic Std';-inkscape-font-specification:'ITC Avant Garde Gothic Std Light';opacity:1;fill:#ffffff;fill-opacity:1;stroke-width:3.06783"
     id="path995" /><path
     d="m 1925.3004,-1247.5085 c 0,22.8 19.08,30 30.36,30 9.84,0 29.76,-6.6 29.76,-30 v -31.92 c 0,-20.16 -15.84,-30 -30.12,-30 -8.64,0 -30,5.04 -30,30.72 z m 9.96,-31.68 c 0,-12.84 8.28,-21.48 19.92,-21.48 15.12,0 20.4,12.24 20.4,21 v 32.4 c 0,13.8 -10.92,21 -20.16,21 -11.4,0 -20.16,-8.52 -20.16,-21 z"
     style="font-style:normal;font-variant:normal;font-weight:300;font-stretch:normal;font-size:120px;font-family:'ITC Avant Garde Gothic Std';-inkscape-font-specification:'ITC Avant Garde Gothic Std Light';opacity:1;fill:#ffffff;fill-opacity:1;stroke-width:3.06783"
     id="path997" /><path
     d="m 1994.4201,-1247.5085 c 0,22.8 19.08,30 30.36,30 9.84,0 29.76,-6.6 29.76,-30 v -31.92 c 0,-20.16 -15.84,-30 -30.12,-30 -8.64,0 -30,5.04 -30,30.72 z m 9.96,-31.68 c 0,-12.84 8.28,-21.48 19.92,-21.48 15.12,0 20.4,12.24 20.4,21 v 32.4 c 0,13.8 -10.92,21 -20.16,21 -11.4,0 -20.16,-8.52 -20.16,-21 z"
     style="font-style:normal;font-variant:normal;font-weight:300;font-stretch:normal;font-size:120px;font-family:'ITC Avant Garde Gothic Std';-inkscape-font-specification:'ITC Avant Garde Gothic Std Light';opacity:1;fill:#ffffff;fill-opacity:1;stroke-width:3.06783"
     id="path999" /><path
     d="m 2090.0599,-1219.0685 h 9.96 v -88.8 h -27.84 v 8.52 h 17.88 z"
     style="font-style:normal;font-variant:normal;font-weight:300;font-stretch:normal;font-size:120px;font-family:'ITC Avant Garde Gothic Std';-inkscape-font-specification:'ITC Avant Garde Gothic Std Light';opacity:1;fill:#ffffff;fill-opacity:1;stroke-width:3.06783"
     id="path1001" /></g>


<g
   aria-label="01001011"
   transform="scale(1,-1)"
   id="text3842-9"
   style="font-style:normal;font-variant:normal;font-weight:300;font-stretch:normal;font-size:120px;line-height:1.25;font-family:'ITC Avant Garde Gothic Std';-inkscape-font-specification:'ITC Avant Garde Gothic Std Light';letter-spacing:0px;word-spacing:0px;opacity:1;fill:#ffffff;fill-opacity:1;stroke:none;stroke-width:3.06783"><path
     d="m 1581.6297,-1138.5019 c 0,22.8 19.08,30 30.36,30 9.84,0 29.76,-6.6 29.76,-30 v -31.92 c 0,-20.16 -15.84,-30 -30.12,-30 -8.64,0 -30,5.04 -30,30.72 z m 9.96,-31.68 c 0,-12.84 8.28,-21.48 19.92,-21.48 15.12,0 20.4,12.24 20.4,21 v 32.4 c 0,13.8 -10.92,21 -20.16,21 -11.4,0 -20.16,-8.52 -20.16,-21 z"
     style="font-style:normal;font-variant:normal;font-weight:300;font-stretch:normal;font-size:120px;font-family:'ITC Avant Garde Gothic Std';-inkscape-font-specification:'ITC Avant Garde Gothic Std Light';opacity:1;fill:#ffffff;fill-opacity:1;stroke-width:3.06783"
     id="path1004" /><path
     d="m 1677.2695,-1110.0619 h 9.96 v -88.8 h -27.84 v 8.52 h 17.88 z"
     style="font-style:normal;font-variant:normal;font-weight:300;font-stretch:normal;font-size:120px;font-family:'ITC Avant Garde Gothic Std';-inkscape-font-specification:'ITC Avant Garde Gothic Std Light';opacity:1;fill:#ffffff;fill-opacity:1;stroke-width:3.06783"
     id="path1006" /><path
     d="m 1719.8693,-1138.5019 c 0,22.8 19.08,30 30.36,30 9.84,0 29.76,-6.6 29.76,-30 v -31.92 c 0,-20.16 -15.84,-30 -30.12,-30 -8.64,0 -30,5.04 -30,30.72 z m 9.96,-31.68 c 0,-12.84 8.28,-21.48 19.92,-21.48 15.12,0 20.4,12.24 20.4,21 v 32.4 c 0,13.8 -10.92,21 -20.16,21 -11.4,0 -20.16,-8.52 -20.16,-21 z"
     style="font-style:normal;font-variant:normal;font-weight:300;font-stretch:normal;font-size:120px;font-family:'ITC Avant Garde Gothic Std';-inkscape-font-specification:'ITC Avant Garde Gothic Std Light';opacity:1;fill:#ffffff;fill-opacity:1;stroke-width:3.06783"
     id="path1008" /><path
     d="m 1788.9891,-1138.5019 c 0,22.8 19.08,30 30.36,30 9.84,0 29.76,-6.6 29.76,-30 v -31.92 c 0,-20.16 -15.84,-30 -30.12,-30 -8.64,0 -30,5.04 -30,30.72 z m 9.96,-31.68 c 0,-12.84 8.28,-21.48 19.92,-21.48 15.12,0 20.4,12.24 20.4,21 v 32.4 c 0,13.8 -10.92,21 -20.16,21 -11.4,0 -20.16,-8.52 -20.16,-21 z"
     style="font-style:normal;font-variant:normal;font-weight:300;font-stretch:normal;font-size:120px;font-family:'ITC Avant Garde Gothic Std';-inkscape-font-specification:'ITC Avant Garde Gothic Std Light';opacity:1;fill:#ffffff;fill-opacity:1;stroke-width:3.06783"
     id="path1010" /><path
     d="m 1884.6289,-1110.0619 h 9.96 v -88.8 h -27.84 v 8.52 h 17.88 z"
     style="font-style:normal;font-variant:normal;font-weight:300;font-stretch:normal;font-size:120px;font-family:'ITC Avant Garde Gothic Std';-inkscape-font-specification:'ITC Avant Garde Gothic Std Light';opacity:1;fill:#ffffff;fill-opacity:1;stroke-width:3.06783"
     id="path1012" /><path
     d="m 1927.2287,-1138.5019 c 0,22.8 19.08,30 30.36,30 9.84,0 29.76,-6.6 29.76,-30 v -31.92 c 0,-20.16 -15.84,-30 -30.12,-30 -8.64,0 -30,5.04 -30,30.72 z m 9.96,-31.68 c 0,-12.84 8.28,-21.48 19.92,-21.48 15.12,0 20.4,12.24 20.4,21 v 32.4 c 0,13.8 -10.92,21 -20.16,21 -11.4,0 -20.16,-8.52 -20.16,-21 z"
     style="font-style:normal;font-variant:normal;font-weight:300;font-stretch:normal;font-size:120px;font-family:'ITC Avant Garde Gothic Std';-inkscape-font-specification:'ITC Avant Garde Gothic Std Light';opacity:1;fill:#ffffff;fill-opacity:1;stroke-width:3.06783"
     id="path1014" /><path
     d="m 2022.8685,-1110.0619 h 9.96 v -88.8 h -27.84 v 8.52 h 17.88 z"
     style="font-style:normal;font-variant:normal;font-weight:300;font-stretch:normal;font-size:120px;font-family:'ITC Avant Garde Gothic Std';-inkscape-font-specification:'ITC Avant Garde Gothic Std Light';opacity:1;fill:#ffffff;fill-opacity:1;stroke-width:3.06783"
     id="path1016" /><path
     d="m 2091.9883,-1110.0619 h 9.96 v -88.8 h -27.84 v 8.52 h 17.88 z"
     style="font-style:normal;font-variant:normal;font-weight:300;font-stretch:normal;font-size:120px;font-family:'ITC Avant Garde Gothic Std';-inkscape-font-specification:'ITC Avant Garde Gothic Std Light';opacity:1;fill:#ffffff;fill-opacity:1;stroke-width:3.06783"
     id="path1018" /></g>


<g
   aria-label="01001001"
   transform="scale(1,-1)"
   id="text3842-7"
   style="font-style:normal;font-variant:normal;font-weight:300;font-stretch:normal;font-size:120px;line-height:1.25;font-family:'ITC Avant Garde Gothic Std';-inkscape-font-specification:'ITC Avant Garde Gothic Std Light';letter-spacing:0px;word-spacing:0px;opacity:1;fill:#ffffff;fill-opacity:1;stroke:none;stroke-width:3.03845"><path
     d="m 2127.0225,-1248.5424 c 0,22.8 19.08,30 30.36,30 9.84,0 29.76,-6.6 29.76,-30 v -31.92 c 0,-20.16 -15.84,-30 -30.12,-30 -8.64,0 -30,5.04 -30,30.72 z m 9.96,-31.68 c 0,-12.84 8.28,-21.48 19.92,-21.48 15.12,0 20.4,12.24 20.4,21 v 32.4 c 0,13.8 -10.92,21 -20.16,21 -11.4,0 -20.16,-8.52 -20.16,-21 z"
     style="font-style:normal;font-variant:normal;font-weight:300;font-stretch:normal;font-size:120px;font-family:'ITC Avant Garde Gothic Std';-inkscape-font-specification:'ITC Avant Garde Gothic Std Light';opacity:1;fill:#ffffff;fill-opacity:1;stroke-width:3.03845"
     id="path1021" /><path
     d="m 2222.6623,-1220.1024 h 9.96 v -88.8 h -27.84 v 8.52 h 17.88 z"
     style="font-style:normal;font-variant:normal;font-weight:300;font-stretch:normal;font-size:120px;font-family:'ITC Avant Garde Gothic Std';-inkscape-font-specification:'ITC Avant Garde Gothic Std Light';opacity:1;fill:#ffffff;fill-opacity:1;stroke-width:3.03845"
     id="path1023" /><path
     d="m 2265.2621,-1248.5424 c 0,22.8 19.08,30 30.36,30 9.84,0 29.76,-6.6 29.76,-30 v -31.92 c 0,-20.16 -15.84,-30 -30.12,-30 -8.64,0 -30,5.04 -30,30.72 z m 9.96,-31.68 c 0,-12.84 8.28,-21.48 19.92,-21.48 15.12,0 20.4,12.24 20.4,21 v 32.4 c 0,13.8 -10.92,21 -20.16,21 -11.4,0 -20.16,-8.52 -20.16,-21 z"
     style="font-style:normal;font-variant:normal;font-weight:300;font-stretch:normal;font-size:120px;font-family:'ITC Avant Garde Gothic Std';-inkscape-font-specification:'ITC Avant Garde Gothic Std Light';opacity:1;fill:#ffffff;fill-opacity:1;stroke-width:3.03845"
     id="path1025" /><path
     d="m 2334.3819,-1248.5424 c 0,22.8 19.08,30 30.36,30 9.84,0 29.76,-6.6 29.76,-30 v -31.92 c 0,-20.16 -15.84,-30 -30.12,-30 -8.64,0 -30,5.04 -30,30.72 z m 9.96,-31.68 c 0,-12.84 8.28,-21.48 19.92,-21.48 15.12,0 20.4,12.24 20.4,21 v 32.4 c 0,13.8 -10.92,21 -20.16,21 -11.4,0 -20.16,-8.52 -20.16,-21 z"
     style="font-style:normal;font-variant:normal;font-weight:300;font-stretch:normal;font-size:120px;font-family:'ITC Avant Garde Gothic Std';-inkscape-font-specification:'ITC Avant Garde Gothic Std Light';opacity:1;fill:#ffffff;fill-opacity:1;stroke-width:3.03845"
     id="path1027" /><path
     d="m 2430.0217,-1220.1024 h 9.96 v -88.8 h -27.84 v 8.52 h 17.88 z"
     style="font-style:normal;font-variant:normal;font-weight:300;font-stretch:normal;font-size:120px;font-family:'ITC Avant Garde Gothic Std';-inkscape-font-specification:'ITC Avant Garde Gothic Std Light';opacity:1;fill:#ffffff;fill-opacity:1;stroke-width:3.03845"
     id="path1029" /><path
     d="m 2472.6215,-1248.5424 c 0,22.8 19.08,30 30.36,30 9.84,0 29.76,-6.6 29.76,-30 v -31.92 c 0,-20.16 -15.84,-30 -30.12,-30 -8.64,0 -30,5.04 -30,30.72 z m 9.96,-31.68 c 0,-12.84 8.28,-21.48 19.92,-21.48 15.12,0 20.4,12.24 20.4,21 v 32.4 c 0,13.8 -10.92,21 -20.16,21 -11.4,0 -20.16,-8.52 -20.16,-21 z"
     style="font-style:normal;font-variant:normal;font-weight:300;font-stretch:normal;font-size:120px;font-family:'ITC Avant Garde Gothic Std';-inkscape-font-specification:'ITC Avant Garde Gothic Std Light';opacity:1;fill:#ffffff;fill-opacity:1;stroke-width:3.03845"
     id="path1031" /><path
     d="m 2541.7413,-1248.5424 c 0,22.8 19.08,30 30.36,30 9.84,0 29.76,-6.6 29.76,-30 v -31.92 c 0,-20.16 -15.84,-30 -30.12,-30 -8.64,0 -30,5.04 -30,30.72 z m 9.96,-31.68 c 0,-12.84 8.28,-21.48 19.92,-21.48 15.12,0 20.4,12.24 20.4,21 v 32.4 c 0,13.8 -10.92,21 -20.16,21 -11.4,0 -20.16,-8.52 -20.16,-21 z"
     style="font-style:normal;font-variant:normal;font-weight:300;font-stretch:normal;font-size:120px;font-family:'ITC Avant Garde Gothic Std';-inkscape-font-specification:'ITC Avant Garde Gothic Std Light';opacity:1;fill:#ffffff;fill-opacity:1;stroke-width:3.03845"
     id="path1033" /><path
     d="m 2637.3811,-1220.1024 h 9.96 v -88.8 h -27.84 v 8.52 h 17.88 z"
     style="font-style:normal;font-variant:normal;font-weight:300;font-stretch:normal;font-size:120px;font-family:'ITC Avant Garde Gothic Std';-inkscape-font-specification:'ITC Avant Garde Gothic Std Light';opacity:1;fill:#ffffff;fill-opacity:1;stroke-width:3.03845"
     id="path1035" /></g>


<g
   aria-label="0101"
   transform="scale(1,-1)"
   id="text3842-9-5"
   style="font-style:normal;font-variant:normal;font-weight:300;font-stretch:normal;font-size:120px;line-height:1.25;font-family:'ITC Avant Garde Gothic Std';-inkscape-font-specification:'ITC Avant Garde Gothic Std Light';letter-spacing:0px;word-spacing:0px;opacity:1;fill:#ffffff;fill-opacity:1;stroke:none;stroke-width:3.03845"><path
     d="m 2128.9332,-1140.5796 c 0,22.8 19.08,30 30.36,30 9.84,0 29.76,-6.6 29.76,-30 v -31.92 c 0,-20.16 -15.84,-30 -30.12,-30 -8.64,0 -30,5.04 -30,30.72 z m 9.96,-31.68 c 0,-12.84 8.28,-21.48 19.92,-21.48 15.12,0 20.4,12.24 20.4,21 v 32.4 c 0,13.8 -10.92,21 -20.16,21 -11.4,0 -20.16,-8.52 -20.16,-21 z"
     style="font-style:normal;font-variant:normal;font-weight:300;font-stretch:normal;font-size:120px;font-family:'ITC Avant Garde Gothic Std';-inkscape-font-specification:'ITC Avant Garde Gothic Std Light';opacity:1;fill:#ffffff;fill-opacity:1;stroke-width:3.03845"
     id="path1038" /><path
     d="m 2224.573,-1112.1396 h 9.96 v -88.8 h -27.84 v 8.52 h 17.88 z"
     style="font-style:normal;font-variant:normal;font-weight:300;font-stretch:normal;font-size:120px;font-family:'ITC Avant Garde Gothic Std';-inkscape-font-specification:'ITC Avant Garde Gothic Std Light';opacity:1;fill:#ffffff;fill-opacity:1;stroke-width:3.03845"
     id="path1040" /><path
     d="m 2267.1728,-1140.5796 c 0,22.8 19.08,30 30.36,30 9.84,0 29.76,-6.6 29.76,-30 v -31.92 c 0,-20.16 -15.84,-30 -30.12,-30 -8.64,0 -30,5.04 -30,30.72 z m 9.96,-31.68 c 0,-12.84 8.28,-21.48 19.92,-21.48 15.12,0 20.4,12.24 20.4,21 v 32.4 c 0,13.8 -10.92,21 -20.16,21 -11.4,0 -20.16,-8.52 -20.16,-21 z"
     style="font-style:normal;font-variant:normal;font-weight:300;font-stretch:normal;font-size:120px;font-family:'ITC Avant Garde Gothic Std';-inkscape-font-specification:'ITC Avant Garde Gothic Std Light';opacity:1;fill:#ffffff;fill-opacity:1;stroke-width:3.03845"
     id="path1042" /><path
     d="m 2362.8126,-1112.1396 h 9.96 v -88.8 h -27.84 v 8.52 h 17.88 z"
     style="font-style:normal;font-variant:normal;font-weight:300;font-stretch:normal;font-size:120px;font-family:'ITC Avant Garde Gothic Std';-inkscape-font-specification:'ITC Avant Garde Gothic Std Light';opacity:1;fill:#ffffff;fill-opacity:1;stroke-width:3.03845"
     id="path1044" /></g>


<g
   aria-label="0100"
   transform="scale(1,-1)"
   id="text3842-71"
   style="font-style:normal;font-variant:normal;font-weight:300;font-stretch:normal;font-size:120px;line-height:1.25;font-family:'ITC Avant Garde Gothic Std';-inkscape-font-specification:'ITC Avant Garde Gothic Std Light';letter-spacing:0px;word-spacing:0px;opacity:1;fill:#ffffff;fill-opacity:1;stroke:none;stroke-width:3.06783"><path
     d="m 1578.4051,-1031.9321 c 0,22.8 19.08,30 30.36,30 9.84,0 29.76,-6.6 29.76,-30 v -31.92 c 0,-20.16 -15.84,-30 -30.12,-30 -8.64,0 -30,5.04 -30,30.72 z m 9.96,-31.68 c 0,-12.84 8.28,-21.48 19.92,-21.48 15.12,0 20.4,12.24 20.4,21 v 32.4 c 0,13.8 -10.92,21 -20.16,21 -11.4,0 -20.16,-8.52 -20.16,-21 z"
     style="font-style:normal;font-variant:normal;font-weight:300;font-stretch:normal;font-size:120px;font-family:'ITC Avant Garde Gothic Std';-inkscape-font-specification:'ITC Avant Garde Gothic Std Light';opacity:1;fill:#ffffff;fill-opacity:1;stroke-width:3.06783"
     id="path1047" /><path
     d="m 1674.0449,-1003.4921 h 9.96 v -88.8 h -27.84 v 8.52 h 17.88 z"
     style="font-style:normal;font-variant:normal;font-weight:300;font-stretch:normal;font-size:120px;font-family:'ITC Avant Garde Gothic Std';-inkscape-font-specification:'ITC Avant Garde Gothic Std Light';opacity:1;fill:#ffffff;fill-opacity:1;stroke-width:3.06783"
     id="path1049" /><path
     d="m 1716.6447,-1031.9321 c 0,22.8 19.08,30 30.36,30 9.84,0 29.76,-6.6 29.76,-30 v -31.92 c 0,-20.16 -15.84,-30 -30.12,-30 -8.64,0 -30,5.04 -30,30.72 z m 9.96,-31.68 c 0,-12.84 8.28,-21.48 19.92,-21.48 15.12,0 20.4,12.24 20.4,21 v 32.4 c 0,13.8 -10.92,21 -20.16,21 -11.4,0 -20.16,-8.52 -20.16,-21 z"
     style="font-style:normal;font-variant:normal;font-weight:300;font-stretch:normal;font-size:120px;font-family:'ITC Avant Garde Gothic Std';-inkscape-font-specification:'ITC Avant Garde Gothic Std Light';opacity:1;fill:#ffffff;fill-opacity:1;stroke-width:3.06783"
     id="path1051" /><path
     d="m 1785.7645,-1031.9321 c 0,22.8 19.08,30 30.36,30 9.84,0 29.76,-6.6 29.76,-30 v -31.92 c 0,-20.16 -15.84,-30 -30.12,-30 -8.64,0 -30,5.04 -30,30.72 z m 9.96,-31.68 c 0,-12.84 8.28,-21.48 19.92,-21.48 15.12,0 20.4,12.24 20.4,21 v 32.4 c 0,13.8 -10.92,21 -20.16,21 -11.4,0 -20.16,-8.52 -20.16,-21 z"
     style="font-style:normal;font-variant:normal;font-weight:300;font-stretch:normal;font-size:120px;font-family:'ITC Avant Garde Gothic Std';-inkscape-font-specification:'ITC Avant Garde Gothic Std Light';opacity:1;fill:#ffffff;fill-opacity:1;stroke-width:3.06783"
     id="path1053" /></g>


<g
   aria-label="0100"
   transform="scale(1,-1)"
   id="text3842-9-6"
   style="font-style:normal;font-variant:normal;font-weight:300;font-stretch:normal;font-size:120px;line-height:1.25;font-family:'ITC Avant Garde Gothic Std';-inkscape-font-specification:'ITC Avant Garde Gothic Std Light';letter-spacing:0px;word-spacing:0px;opacity:1;fill:#ffffff;fill-opacity:1;stroke:none;stroke-width:3.06783"><path
     d="m 1580.3334,-922.92523 c 0,22.8 19.08,30 30.36,30 9.84,0 29.76,-6.6 29.76,-30 v -31.92 c 0,-20.16 -15.84,-30 -30.12,-30 -8.64,0 -30,5.04 -30,30.72 z m 9.96,-31.68 c 0,-12.84 8.28,-21.48 19.92,-21.48 15.12,0 20.4,12.24 20.4,21 v 32.4 c 0,13.8 -10.92,21 -20.16,21 -11.4,0 -20.16,-8.52 -20.16,-21 z"
     style="font-style:normal;font-variant:normal;font-weight:300;font-stretch:normal;font-size:120px;font-family:'ITC Avant Garde Gothic Std';-inkscape-font-specification:'ITC Avant Garde Gothic Std Light';opacity:1;fill:#ffffff;fill-opacity:1;stroke-width:3.06783"
     id="path1056" /><path
     d="m 1675.9732,-894.48523 h 9.96 v -88.8 h -27.84 v 8.52 h 17.88 z"
     style="font-style:normal;font-variant:normal;font-weight:300;font-stretch:normal;font-size:120px;font-family:'ITC Avant Garde Gothic Std';-inkscape-font-specification:'ITC Avant Garde Gothic Std Light';opacity:1;fill:#ffffff;fill-opacity:1;stroke-width:3.06783"
     id="path1058" /><path
     d="m 1718.573,-922.92523 c 0,22.8 19.08,30 30.36,30 9.84,0 29.76,-6.6 29.76,-30 v -31.92 c 0,-20.16 -15.84,-30 -30.12,-30 -8.64,0 -30,5.04 -30,30.72 z m 9.96,-31.68 c 0,-12.84 8.28,-21.48 19.92,-21.48 15.12,0 20.4,12.24 20.4,21 v 32.4 c 0,13.8 -10.92,21 -20.16,21 -11.4,0 -20.16,-8.52 -20.16,-21 z"
     style="font-style:normal;font-variant:normal;font-weight:300;font-stretch:normal;font-size:120px;font-family:'ITC Avant Garde Gothic Std';-inkscape-font-specification:'ITC Avant Garde Gothic Std Light';opacity:1;fill:#ffffff;fill-opacity:1;stroke-width:3.06783"
     id="path1060" /><path
     d="m 1787.6928,-922.92523 c 0,22.8 19.08,30 30.36,30 9.84,0 29.76,-6.6 29.76,-30 v -31.92 c 0,-20.16 -15.84,-30 -30.12,-30 -8.64,0 -30,5.04 -30,30.72 z m 9.96,-31.68 c 0,-12.84 8.28,-21.48 19.92,-21.48 15.12,0 20.4,12.24 20.4,21 v 32.4 c 0,13.8 -10.92,21 -20.16,21 -11.4,0 -20.16,-8.52 -20.16,-21 z"
     style="font-style:normal;font-variant:normal;font-weight:300;font-stretch:normal;font-size:120px;font-family:'ITC Avant Garde Gothic Std';-inkscape-font-specification:'ITC Avant Garde Gothic Std Light';opacity:1;fill:#ffffff;fill-opacity:1;stroke-width:3.06783"
     id="path1062" /></g>


<g
   aria-label="0100"
   transform="scale(1,-1)"
   id="text3842-71-6"
   style="font-style:normal;font-variant:normal;font-weight:300;font-stretch:normal;font-size:120px;line-height:1.25;font-family:'ITC Avant Garde Gothic Std';-inkscape-font-specification:'ITC Avant Garde Gothic Std Light';letter-spacing:0px;word-spacing:0px;opacity:1;fill:#ffffff;fill-opacity:1;stroke:none;stroke-width:3.03845"><path
     d="m 2127.4288,-1033.8932 c 0,22.8 19.08,30 30.36,30 9.84,0 29.76,-6.6 29.76,-30 v -31.92 c 0,-20.16 -15.84,-30 -30.12,-30 -8.64,0 -30,5.04 -30,30.72 z m 9.96,-31.68 c 0,-12.84 8.28,-21.48 19.92,-21.48 15.12,0 20.4,12.24 20.4,21 v 32.4 c 0,13.8 -10.92,21 -20.16,21 -11.4,0 -20.16,-8.52 -20.16,-21 z"
     style="font-style:normal;font-variant:normal;font-weight:300;font-stretch:normal;font-size:120px;font-family:'ITC Avant Garde Gothic Std';-inkscape-font-specification:'ITC Avant Garde Gothic Std Light';opacity:1;fill:#ffffff;fill-opacity:1;stroke-width:3.03845"
     id="path1065" /><path
     d="m 2223.0686,-1005.4532 h 9.96 v -88.8 h -27.84 v 8.52 h 17.88 z"
     style="font-style:normal;font-variant:normal;font-weight:300;font-stretch:normal;font-size:120px;font-family:'ITC Avant Garde Gothic Std';-inkscape-font-specification:'ITC Avant Garde Gothic Std Light';opacity:1;fill:#ffffff;fill-opacity:1;stroke-width:3.03845"
     id="path1067" /><path
     d="m 2265.6684,-1033.8932 c 0,22.8 19.08,30 30.36,30 9.84,0 29.76,-6.6 29.76,-30 v -31.92 c 0,-20.16 -15.84,-30 -30.12,-30 -8.64,0 -30,5.04 -30,30.72 z m 9.96,-31.68 c 0,-12.84 8.28,-21.48 19.92,-21.48 15.12,0 20.4,12.24 20.4,21 v 32.4 c 0,13.8 -10.92,21 -20.16,21 -11.4,0 -20.16,-8.52 -20.16,-21 z"
     style="font-style:normal;font-variant:normal;font-weight:300;font-stretch:normal;font-size:120px;font-family:'ITC Avant Garde Gothic Std';-inkscape-font-specification:'ITC Avant Garde Gothic Std Light';opacity:1;fill:#ffffff;fill-opacity:1;stroke-width:3.03845"
     id="path1069" /><path
     d="m 2334.7882,-1033.8932 c 0,22.8 19.08,30 30.36,30 9.84,0 29.76,-6.6 29.76,-30 v -31.92 c 0,-20.16 -15.84,-30 -30.12,-30 -8.64,0 -30,5.04 -30,30.72 z m 9.96,-31.68 c 0,-12.84 8.28,-21.48 19.92,-21.48 15.12,0 20.4,12.24 20.4,21 v 32.4 c 0,13.8 -10.92,21 -20.16,21 -11.4,0 -20.16,-8.52 -20.16,-21 z"
     style="font-style:normal;font-variant:normal;font-weight:300;font-stretch:normal;font-size:120px;font-family:'ITC Avant Garde Gothic Std';-inkscape-font-specification:'ITC Avant Garde Gothic Std Light';opacity:1;fill:#ffffff;fill-opacity:1;stroke-width:3.03845"
     id="path1071" /></g>


<path
   id="path16"
   style="fill:#ffffff;fill-opacity:1;fill-rule:nonzero;stroke:none;stroke-width:0.133333"
   d="M 28.820312 28.814453 L 28.820312 69.123047 L 47.291016 121.2793 L 47.347656 121.2793 L 63.076172 75.332031 C 63.076172 75.332031 63.098719 75.265828 63.136719 75.173828 C 64.161252 71.676495 67.408728 69.123047 71.236328 69.123047 L 75.179688 69.123047 L 87.279297 69.123047 L 87.279297 116.83203 C 87.33703 119.16536 87.588265 121.42648 88.644531 123.54102 C 90.355998 126.54888 93.519787 128.69991 97.242188 129.14258 C 97.369254 129.15818 97.496867 129.17124 97.625 129.18164 C 97.963533 129.21031 98.305944 129.22461 98.652344 129.22461 C 98.998744 129.22461 99.341153 129.21031 99.679688 129.18164 C 99.807821 129.17124 99.935433 129.15818 100.0625 129.14258 C 103.78383 128.69991 106.94922 126.54888 108.66016 123.54102 C 109.71642 121.42648 109.96819 119.16536 110.02539 116.83203 L 110.02539 69.123047 L 122.66016 69.123047 L 122.66016 114.14258 C 122.66016 119.21031 122.34771 124.06705 120.30078 128.43945 C 116.56798 135.84052 108.78545 141.03154 99.695312 141.40234 C 99.349979 141.41688 99.001944 141.42578 98.652344 141.42578 C 98.302877 141.42578 97.954708 141.41688 97.609375 141.40234 C 88.519375 141.03154 80.736706 135.84052 77.003906 128.43945 C 74.957106 124.06705 74.644531 119.21031 74.644531 114.14258 L 74.644531 82.263672 L 74.541016 82.263672 L 74.396484 82.701172 L 53.800781 139.66016 L 41.056641 139.66016 L 28.820312 106.54102 L 28.820312 179.99414 L 180.00195 179.99414 L 180.00195 28.814453 L 28.820312 28.814453 z M 142.99609 69.09375 C 149.39609 69.09375 155.88983 68.808198 161.8125 71.769531 C 167.6405 74.730865 171.75 81.036287 171.75 87.626953 C 171.75 93.16802 169.16843 98.612903 164.00977 101.0957 C 171.74843 103.5801 176.04883 110.17003 176.04883 118.19336 C 176.04883 125.07096 172.89455 130.89906 167.44922 135.00586 C 161.81322 139.11533 154.64985 139.49683 147.86719 139.6875 L 126.58789 139.6875 L 126.59961 69.123047 L 142.99609 69.09375 z M 147.91016 81.787109 C 147.12534 81.789724 146.36292 81.798828 145.66992 81.798828 L 139.7207 81.789062 L 139.7207 96.238281 L 145.76562 96.222656 C 148.53629 96.222656 152.16444 96.319695 154.64844 95.173828 C 157.13244 94.027028 158.66211 91.352268 158.66211 88.677734 C 158.66211 85.811068 156.84624 83.519817 154.26758 82.46875 C 152.81558 81.84185 150.26459 81.779266 147.91016 81.787109 z M 139.7207 108.92773 L 139.7207 126.98047 L 148.72656 126.98242 C 152.5479 126.98242 156.08282 126.79231 159.52148 124.49805 C 161.90948 122.87565 162.96094 120.58203 162.96094 117.62109 C 162.96094 114.18349 161.33663 112.08279 158.2793 110.36133 C 155.3193 108.83279 152.16567 108.92773 149.01367 108.92773 L 139.7207 108.92773 z "
   transform="matrix(7.5000002,0,0,-7.5000002,0,1566.0999)" /><path
   d="M 109.684,1047.67 216.148,766.91 v 280.76 H 109.684"
   style="fill:#ffffff;fill-opacity:1;fill-rule:nonzero;stroke:none"
   id="path22"
   inkscape:connector-curvature="0" />















<g
   transform="scale(1,-1)"
   id="text866"
   style="font-size:80.0003px;line-height:1.25;font-family:sans-serif;-inkscape-font-specification:'sans-serif, Normal';stroke-width:7.5" /></g><g
   aria-label="INTERFACULTY CENTER"
   transform="scale(0.1,-0.1)"
   id="text522"
   style="font-style:normal;font-variant:normal;font-weight:300;font-stretch:normal;font-size:289.982px;line-height:1.25;font-family:'ITC Avant Garde Gothic Std';-inkscape-font-specification:'ITC Avant Garde Gothic Std Light';letter-spacing:0px;word-spacing:0px;display:inline;fill:#ffffff;fill-opacity:1;stroke:none;stroke-width:7.76738"><path
     d="m 2919.5199,-983.30975 h 23.7786 v -214.58665 h -23.7786 z"
     style="font-style:normal;font-variant:normal;font-weight:300;font-stretch:normal;line-height:1.25;font-family:'ITC Avant Garde Gothic Std';-inkscape-font-specification:'ITC Avant Garde Gothic Std Light';fill:#ffffff;fill-opacity:1;stroke-width:7.76738"
     id="path941" /><path
     d="m 3010.864,-1197.8964 h -24.3585 v 214.58665 h 23.1986 l -0.58,-180.65875 127.3021,180.65875 h 23.1985 v -214.58665 h -23.1985 l 0.29,179.2088 z"
     style="font-style:normal;font-variant:normal;font-weight:300;font-stretch:normal;line-height:1.25;font-family:'ITC Avant Garde Gothic Std';-inkscape-font-specification:'ITC Avant Garde Gothic Std Light';fill:#ffffff;fill-opacity:1;stroke-width:7.76738"
     id="path943" /><path
     d="m 3235.8897,-983.30975 h 24.0685 v -193.41795 h 53.0667 v -21.1687 H 3183.113 v 21.1687 h 52.7767 z"
     style="font-style:normal;font-variant:normal;font-weight:300;font-stretch:normal;line-height:1.25;font-family:'ITC Avant Garde Gothic Std';-inkscape-font-specification:'ITC Avant Garde Gothic Std Light';fill:#ffffff;fill-opacity:1;stroke-width:7.76738"
     id="path945" /><path
     d="m 3336.5134,-983.30975 h 118.8926 v -21.16865 h -95.1141 v -76.5553 h 94.5342 v -21.1687 h -94.5342 v -74.5253 h 95.1141 v -21.1687 h -118.8926 z"
     style="font-style:normal;font-variant:normal;font-weight:300;font-stretch:normal;line-height:1.25;font-family:'ITC Avant Garde Gothic Std';-inkscape-font-specification:'ITC Avant Garde Gothic Std Light';fill:#ffffff;fill-opacity:1;stroke-width:7.76738"
     id="path947" /><path
     d="m 3491.3634,-983.30975 h 24.0685 v -193.41795 h 33.6379 c 19.4288,0 32.7679,0.8699 43.4973,7.8295 13.3392,8.6994 21.1687,25.5184 21.1687,41.4674 0,15.369 -4.9297,28.4182 -16.239,39.4375 -11.5993,10.7294 -32.478,11.0194 -47.5571,11.0194 h -6.9595 l 60.6062,93.66415 h 26.0984 l -53.3567,-80.32505 c 19.7188,-2.0298 35.0878,-6.0896 47.847,-23.4885 8.9895,-12.1793 13.0492,-27.5483 12.7592,-42.0474 0,-24.3585 -11.8892,-47.2671 -29.2882,-57.7064 -11.0193,-6.9596 -26.6783,-11.0193 -60.3162,-11.0193 h -55.9665 z"
     style="font-style:normal;font-variant:normal;font-weight:300;font-stretch:normal;line-height:1.25;font-family:'ITC Avant Garde Gothic Std';-inkscape-font-specification:'ITC Avant Garde Gothic Std Light';fill:#ffffff;fill-opacity:1;stroke-width:7.76738"
     id="path949" /><path
     d="m 3663.6126,-983.30975 h 23.7785 v -96.56405 h 84.6748 v -21.4586 h -84.6748 v -75.3953 h 85.2547 v -21.1687 h -109.0332 z"
     style="font-style:normal;font-variant:normal;font-weight:300;font-stretch:normal;line-height:1.25;font-family:'ITC Avant Garde Gothic Std';-inkscape-font-specification:'ITC Avant Garde Gothic Std Light';fill:#ffffff;fill-opacity:1;stroke-width:7.76738"
     id="path951" /><path
     d="m 3815.8526,-1043.626 h 100.0438 l 24.9384,60.31625 h 26.0984 l -88.7345,-214.58665 h -23.1985 l -89.6045,214.58665 h 25.8084 z m 92.7942,-19.7188 h -85.5447 l 42.6274,-107.5833 z"
     style="font-style:normal;font-variant:normal;font-weight:300;font-stretch:normal;line-height:1.25;font-family:'ITC Avant Garde Gothic Std';-inkscape-font-specification:'ITC Avant Garde Gothic Std Light';fill:#ffffff;fill-opacity:1;stroke-width:7.76738"
     id="path953" /><path
     d="m 4153.9709,-1041.0162 c -5.2197,8.1195 -28.1283,40.3075 -73.0755,40.3075 -49.8769,0 -87.8645,-39.4375 -87.8645,-90.1844 0,-49.8769 37.6976,-89.6044 87.8645,-89.6044 41.4674,0 65.8259,28.7082 73.0755,41.4674 h 25.8084 c -12.4692,-27.2583 -45.8172,-62.6361 -98.8839,-62.6361 -64.376,0 -111.643,49.8769 -111.643,111.0631 0,62.0562 48.4269,111.06311 111.933,111.06311 47.2671,0 84.6747,-28.41821 98.5939,-61.47621 z"
     style="font-style:normal;font-variant:normal;font-weight:300;font-stretch:normal;line-height:1.25;font-family:'ITC Avant Garde Gothic Std';-inkscape-font-specification:'ITC Avant Garde Gothic Std Light';fill:#ffffff;fill-opacity:1;stroke-width:7.76738"
     id="path955" /><path
     d="m 4210.8069,-1197.8964 v 136.0015 c 0,23.4886 1.7399,47.8471 24.3585,66.11592 13.3392,11.88926 32.188,16.23899 47.2671,16.23899 18.5588,0 34.5078,-6.08962 46.3971,-16.23899 21.4587,-16.52902 24.6485,-41.17742 24.3585,-66.11592 v -136.0015 h -23.7785 v 136.0015 c 0,16.819 0,29.2882 -10.1494,43.4973 -7.2496,10.7294 -21.4587,17.6889 -36.8277,17.6889 -15.659,0 -29.8682,-7.2495 -37.4077,-17.9789 -10.1494,-14.4991 -10.1494,-26.9683 -10.1494,-43.2073 v -136.0015 z"
     style="font-style:normal;font-variant:normal;font-weight:300;font-stretch:normal;line-height:1.25;font-family:'ITC Avant Garde Gothic Std';-inkscape-font-specification:'ITC Avant Garde Gothic Std Light';fill:#ffffff;fill-opacity:1;stroke-width:7.76738"
     id="path957" /><path
     d="m 4396.1053,-983.30975 h 105.8435 v -21.16865 h -81.775 v -193.418 h -24.0685 z"
     style="font-style:normal;font-variant:normal;font-weight:300;font-stretch:normal;line-height:1.25;font-family:'ITC Avant Garde Gothic Std';-inkscape-font-specification:'ITC Avant Garde Gothic Std Light';fill:#ffffff;fill-opacity:1;stroke-width:7.76738"
     id="path959" /><path
     d="m 4538.4857,-983.30975 h 24.0685 v -193.41795 h 53.0667 v -21.1687 H 4485.709 v 21.1687 h 52.7767 z"
     style="font-style:normal;font-variant:normal;font-weight:300;font-stretch:normal;line-height:1.25;font-family:'ITC Avant Garde Gothic Std';-inkscape-font-specification:'ITC Avant Garde Gothic Std Light';fill:#ffffff;fill-opacity:1;stroke-width:7.76738"
     id="path961" /><path
     d="m 4690.4362,-983.30975 h 24.0685 v -75.39535 l 69.0158,-139.1913 h -26.0984 l -54.8066,115.9928 -55.0966,-115.9928 h -26.0984 l 69.0157,139.1913 z"
     style="font-style:normal;font-variant:normal;font-weight:300;font-stretch:normal;line-height:1.25;font-family:'ITC Avant Garde Gothic Std';-inkscape-font-specification:'ITC Avant Garde Gothic Std Light';fill:#ffffff;fill-opacity:1;stroke-width:7.76738"
     id="path963" /><path
     d="m 5067.122,-1041.0162 c -5.2197,8.1195 -28.1282,40.3075 -73.0755,40.3075 -49.8769,0 -87.8645,-39.4375 -87.8645,-90.1844 0,-49.8769 37.6977,-89.6044 87.8645,-89.6044 41.4675,0 65.826,28.7082 73.0755,41.4674 h 25.8084 c -12.4692,-27.2583 -45.8171,-62.6361 -98.8839,-62.6361 -64.376,0 -111.643,49.8769 -111.643,111.0631 0,62.0562 48.427,111.06311 111.933,111.06311 47.2671,0 84.6748,-28.41821 98.5939,-61.47621 z"
     style="font-style:normal;font-variant:normal;font-weight:300;font-stretch:normal;line-height:1.25;font-family:'ITC Avant Garde Gothic Std';-inkscape-font-specification:'ITC Avant Garde Gothic Std Light';fill:#ffffff;fill-opacity:1;stroke-width:7.76738"
     id="path965" /><path
     d="m 5124.538,-983.30975 h 118.8926 v -21.16865 h -95.1141 v -76.5553 h 94.5342 v -21.1687 h -94.5342 v -74.5253 h 95.1141 v -21.1687 H 5124.538 Z"
     style="font-style:normal;font-variant:normal;font-weight:300;font-stretch:normal;line-height:1.25;font-family:'ITC Avant Garde Gothic Std';-inkscape-font-specification:'ITC Avant Garde Gothic Std Light';fill:#ffffff;fill-opacity:1;stroke-width:7.76738"
     id="path967" /><path
     d="m 5305.7764,-1197.8964 h -24.3585 v 214.58665 h 23.1986 l -0.58,-180.65875 127.3021,180.65875 h 23.1985 v -214.58665 h -23.1985 l 0.29,179.2088 z"
     style="font-style:normal;font-variant:normal;font-weight:300;font-stretch:normal;line-height:1.25;font-family:'ITC Avant Garde Gothic Std';-inkscape-font-specification:'ITC Avant Garde Gothic Std Light';fill:#ffffff;fill-opacity:1;stroke-width:7.76738"
     id="path969" /><path
     d="m 5530.802,-983.30975 h 24.0685 v -193.41795 h 53.0667 v -21.1687 h -129.912 v 21.1687 h 52.7768 z"
     style="font-style:normal;font-variant:normal;font-weight:300;font-stretch:normal;line-height:1.25;font-family:'ITC Avant Garde Gothic Std';-inkscape-font-specification:'ITC Avant Garde Gothic Std Light';fill:#ffffff;fill-opacity:1;stroke-width:7.76738"
     id="path971" /><path
     d="m 5631.4257,-983.30975 h 118.8926 v -21.16865 h -95.1141 v -76.5553 h 94.5342 v -21.1687 h -94.5342 v -74.5253 h 95.1141 v -21.1687 h -118.8926 z"
     style="font-style:normal;font-variant:normal;font-weight:300;font-stretch:normal;line-height:1.25;font-family:'ITC Avant Garde Gothic Std';-inkscape-font-specification:'ITC Avant Garde Gothic Std Light';fill:#ffffff;fill-opacity:1;stroke-width:7.76738"
     id="path973" /><path
     d="m 5786.2757,-983.30975 h 24.0685 v -193.41795 h 33.6379 c 19.4288,0 32.768,0.8699 43.4973,7.8295 13.3392,8.6994 21.1687,25.5184 21.1687,41.4674 0,15.369 -4.9297,28.4182 -16.239,39.4375 -11.5993,10.7294 -32.478,11.0194 -47.557,11.0194 h -6.9596 l 60.6062,93.66415 h 26.0984 l -53.3567,-80.32505 c 19.7188,-2.0298 35.0879,-6.0896 47.8471,-23.4885 8.9894,-12.1793 13.0492,-27.5483 12.7592,-42.0474 0,-24.3585 -11.8893,-47.2671 -29.2882,-57.7064 -11.0193,-6.9596 -26.6783,-11.0193 -60.3163,-11.0193 h -55.9665 z"
     style="font-style:normal;font-variant:normal;font-weight:300;font-stretch:normal;line-height:1.25;font-family:'ITC Avant Garde Gothic Std';-inkscape-font-specification:'ITC Avant Garde Gothic Std Light';fill:#ffffff;fill-opacity:1;stroke-width:7.76738"
     id="path975" /></g>




<g
   aria-label="CORE FACILITY"
   transform="scale(0.1,-0.1)"
   id="text522-0"
   style="font-style:normal;font-variant:normal;font-weight:300;font-stretch:normal;font-size:289.982px;line-height:1.25;font-family:'ITC Avant Garde Gothic Std';-inkscape-font-specification:'ITC Avant Garde Gothic Std Light';letter-spacing:0px;word-spacing:0px;display:inline;fill:#ffffff;fill-opacity:1;stroke:none;stroke-width:7.76738"><path
     d="m 3093.788,-419.02948 c -5.2197,8.1195 -28.1282,40.3075 -73.0754,40.3075 -49.8769,0 -87.8646,-39.43755 -87.8646,-90.1844 0,-49.8769 37.6977,-89.60444 87.8646,-89.60444 41.4674,0 65.8259,28.70822 73.0754,41.46743 h 25.8084 c -12.4692,-27.25831 -45.8171,-62.63611 -98.8838,-62.63611 -64.376,0 -111.6431,49.8769 -111.6431,111.0631 0,62.05615 48.427,111.06311 111.933,111.06311 47.2671,0 84.6748,-28.41824 98.5939,-61.47619 z"
     style="font-style:normal;font-variant:normal;font-weight:300;font-stretch:normal;font-family:'ITC Avant Garde Gothic Std';-inkscape-font-specification:'ITC Avant Garde Gothic Std Light';fill:#ffffff;fill-opacity:1;stroke-width:7.76738"
     id="path916" /><path
     d="m 3141.0547,-467.74645 c 0,61.1862 48.427,110.19316 111.9331,110.19316 63.216,0 111.933,-48.13701 111.933,-111.06311 0,-62.92609 -49.007,-111.0631 -111.933,-111.0631 -60.6063,0 -111.9331,45.52717 -111.9331,111.64307 z m 24.0685,-1.15993 c 0,-49.58692 37.4077,-89.60444 87.8646,-89.60444 51.0368,0 88.1545,40.88747 88.1545,89.89442 0,49.00696 -37.1177,89.89442 -87.8646,89.89442 -50.1668,0 -88.1545,-39.43755 -88.1545,-89.89442 z"
     style="font-style:normal;font-variant:normal;font-weight:300;font-stretch:normal;font-family:'ITC Avant Garde Gothic Std';-inkscape-font-specification:'ITC Avant Garde Gothic Std Light';fill:#ffffff;fill-opacity:1;stroke-width:7.76738"
     id="path918" /><path
     d="m 3395.9488,-361.32306 h 24.0685 v -193.41799 h 33.6379 c 19.4288,0 32.768,0.86995 43.4973,7.82951 13.3392,8.69946 21.1687,25.51842 21.1687,41.46743 0,15.36905 -4.9297,28.41824 -16.239,39.43755 -11.5993,10.72933 -32.478,11.01932 -47.557,11.01932 h -6.9596 l 60.6062,93.66418 h 26.0984 l -53.3567,-80.32501 c 19.7188,-2.02988 35.0879,-6.08962 47.8471,-23.48854 8.9894,-12.17925 13.0492,-27.54829 12.7592,-42.04739 0,-24.35849 -11.8893,-47.26707 -29.2882,-57.70642 -11.0193,-6.95957 -26.6784,-11.01932 -60.3163,-11.01932 h -55.9665 z"
     style="font-style:normal;font-variant:normal;font-weight:300;font-stretch:normal;font-family:'ITC Avant Garde Gothic Std';-inkscape-font-specification:'ITC Avant Garde Gothic Std Light';fill:#ffffff;fill-opacity:1;stroke-width:7.76738"
     id="path920" /><path
     d="m 3568.1981,-361.32306 h 118.8926 v -21.16868 h -95.1141 v -76.55525 h 94.5342 v -21.16869 h -94.5342 v -74.52537 h 95.1141 v -21.16869 h -118.8926 z"
     style="font-style:normal;font-variant:normal;font-weight:300;font-stretch:normal;font-family:'ITC Avant Garde Gothic Std';-inkscape-font-specification:'ITC Avant Garde Gothic Std Light';fill:#ffffff;fill-opacity:1;stroke-width:7.76738"
     id="path922" /><path
     d="m 3808.5922,-361.32306 h 23.7785 v -96.564 h 84.6748 v -21.45867 h -84.6748 v -75.39532 h 85.2547 v -21.16869 h -109.0332 z"
     style="font-style:normal;font-variant:normal;font-weight:300;font-stretch:normal;font-family:'ITC Avant Garde Gothic Std';-inkscape-font-specification:'ITC Avant Garde Gothic Std Light';fill:#ffffff;fill-opacity:1;stroke-width:7.76738"
     id="path924" /><path
     d="m 3960.8321,-421.63931 h 100.0438 l 24.9385,60.31625 h 26.0984 l -88.7345,-214.58668 h -23.1986 l -89.6044,214.58668 h 25.8084 z m 92.7943,-19.71878 h -85.5447 l 42.6273,-107.58332 z"
     style="font-style:normal;font-variant:normal;font-weight:300;font-stretch:normal;font-family:'ITC Avant Garde Gothic Std';-inkscape-font-specification:'ITC Avant Garde Gothic Std Light';fill:#ffffff;fill-opacity:1;stroke-width:7.76738"
     id="path926" /><path
     d="m 4298.9505,-419.02948 c -5.2197,8.1195 -28.1283,40.3075 -73.0755,40.3075 -49.8769,0 -87.8645,-39.43755 -87.8645,-90.1844 0,-49.8769 37.6977,-89.60444 87.8645,-89.60444 41.4675,0 65.826,28.70822 73.0755,41.46743 h 25.8084 c -12.4692,-27.25831 -45.8172,-62.63611 -98.8839,-62.63611 -64.376,0 -111.643,49.8769 -111.643,111.0631 0,62.05615 48.427,111.06311 111.933,111.06311 47.2671,0 84.6748,-28.41824 98.5939,-61.47619 z"
     style="font-style:normal;font-variant:normal;font-weight:300;font-stretch:normal;font-family:'ITC Avant Garde Gothic Std';-inkscape-font-specification:'ITC Avant Garde Gothic Std Light';fill:#ffffff;fill-opacity:1;stroke-width:7.76738"
     id="path928" /><path
     d="m 4356.3665,-361.32306 h 23.7785 v -214.58668 h -23.7785 z"
     style="font-style:normal;font-variant:normal;font-weight:300;font-stretch:normal;font-family:'ITC Avant Garde Gothic Std';-inkscape-font-specification:'ITC Avant Garde Gothic Std Light';fill:#ffffff;fill-opacity:1;stroke-width:7.76738"
     id="path930" /><path
     d="m 4423.6421,-361.32306 h 105.8434 v -21.16868 h -81.7749 v -193.418 h -24.0685 z"
     style="font-style:normal;font-variant:normal;font-weight:300;font-stretch:normal;font-family:'ITC Avant Garde Gothic Std';-inkscape-font-specification:'ITC Avant Garde Gothic Std Light';fill:#ffffff;fill-opacity:1;stroke-width:7.76738"
     id="path932" /><path
     d="m 4552.1036,-361.32306 h 23.7785 v -214.58668 h -23.7785 z"
     style="font-style:normal;font-variant:normal;font-weight:300;font-stretch:normal;font-family:'ITC Avant Garde Gothic Std';-inkscape-font-specification:'ITC Avant Garde Gothic Std Light';fill:#ffffff;fill-opacity:1;stroke-width:7.76738"
     id="path934" /><path
     d="m 4652.4371,-361.32306 h 24.0685 v -193.41799 h 53.0667 v -21.16869 h -129.9119 v 21.16869 h 52.7767 z"
     style="font-style:normal;font-variant:normal;font-weight:300;font-stretch:normal;font-family:'ITC Avant Garde Gothic Std';-inkscape-font-specification:'ITC Avant Garde Gothic Std Light';fill:#ffffff;fill-opacity:1;stroke-width:7.76738"
     id="path936" /><path
     d="m 4804.3875,-361.32306 h 24.0685 v -75.39532 l 69.0158,-139.19136 h -26.0984 l -54.8066,115.9928 -55.0966,-115.9928 h -26.0984 l 69.0157,139.19136 z"
     style="font-style:normal;font-variant:normal;font-weight:300;font-stretch:normal;font-family:'ITC Avant Garde Gothic Std';-inkscape-font-specification:'ITC Avant Garde Gothic Std Light';fill:#ffffff;fill-opacity:1;stroke-width:7.76738"
     id="path938" /></g>




<g
   aria-label="DATA PROCESSING &amp; STATISTICS"
   transform="scale(0.1,-0.1)"
   id="text522-8"
   style="font-style:normal;font-variant:normal;font-weight:300;font-stretch:normal;font-size:289.982px;line-height:1.25;font-family:'ITC Avant Garde Gothic Std';-inkscape-font-specification:'ITC Avant Garde Gothic Std Light';letter-spacing:0px;word-spacing:0px;display:inline;fill:#ffffff;fill-opacity:1;stroke:none;stroke-width:7.76738"><path
     d="m 2918.9286,-675.96802 h 65.246 c 72.2055,0 109.0332,-42.91733 109.0332,-107.58332 0,-30.44811 -8.4095,-55.67654 -25.8084,-74.81535 -21.4586,-25.51842 -53.9366,-32.188 -84.3847,-32.188 h -64.0861 z m 23.7786,-193.41799 h 42.6273 c 29.2882,0 49.297,9.56941 62.9261,24.06851 14.2091,15.65903 20.8787,37.69766 20.8787,62.63611 0,51.61679 -28.7082,85.54469 -83.8048,85.54469 h -42.6273 z"
     style="font-style:normal;font-variant:normal;font-weight:300;font-stretch:normal;font-family:'ITC Avant Garde Gothic Std';-inkscape-font-specification:'ITC Avant Garde Gothic Std Light';fill:#ffffff;fill-opacity:1;stroke-width:7.76738"
     id="path865" /><path
     d="m 3145.1137,-736.28427 h 100.0438 l 24.9385,60.31625 h 26.0984 l -88.7345,-214.58667 h -23.1986 l -89.6044,214.58667 h 25.8084 z m 92.7943,-19.71878 h -85.5447 l 42.6273,-107.58332 z"
     style="font-style:normal;font-variant:normal;font-weight:300;font-stretch:normal;font-family:'ITC Avant Garde Gothic Std';-inkscape-font-specification:'ITC Avant Garde Gothic Std Light';fill:#ffffff;fill-opacity:1;stroke-width:7.76738"
     id="path867" /><path
     d="m 3330.9913,-675.96802 h 24.0685 v -193.41799 h 53.0667 v -21.16868 h -129.9119 v 21.16868 h 52.7767 z"
     style="font-style:normal;font-variant:normal;font-weight:300;font-stretch:normal;font-family:'ITC Avant Garde Gothic Std';-inkscape-font-specification:'ITC Avant Garde Gothic Std Light';fill:#ffffff;fill-opacity:1;stroke-width:7.76738"
     id="path869" /><path
     d="m 3440.604,-736.28427 h 100.0438 l 24.9385,60.31625 h 26.0983 l -88.7344,-214.58667 h -23.1986 l -89.6044,214.58667 h 25.8084 z m 92.7943,-19.71878 h -85.5447 l 42.6273,-107.58332 z"
     style="font-style:normal;font-variant:normal;font-weight:300;font-stretch:normal;font-family:'ITC Avant Garde Gothic Std';-inkscape-font-specification:'ITC Avant Garde Gothic Std Light';fill:#ffffff;fill-opacity:1;stroke-width:7.76738"
     id="path871" /><path
     d="m 3696.9472,-890.55469 v 214.58667 h 24.0685 v -84.38476 h 34.5078 c 27.8383,0 42.3374,-3.47978 56.5465,-14.4991 13.0492,-10.14937 22.0386,-30.73809 22.0386,-51.03683 0,-20.00876 -8.6994,-40.01751 -22.9085,-51.03683 -13.3392,-10.14937 -27.5483,-13.62915 -57.7064,-13.62915 z m 24.0685,21.16868 h 33.6379 c 18.2688,0 29.2882,2.02988 40.0175,8.98944 9.5694,6.08963 16.239,19.71878 16.239,35.08783 0,15.07906 -6.6696,28.70821 -15.949,34.79783 -10.7294,6.95957 -21.7487,8.98945 -39.7276,8.98945 h -34.2178 z"
     style="font-style:normal;font-variant:normal;font-weight:300;font-stretch:normal;font-family:'ITC Avant Garde Gothic Std';-inkscape-font-specification:'ITC Avant Garde Gothic Std Light';fill:#ffffff;fill-opacity:1;stroke-width:7.76738"
     id="path873" /><path
     d="m 3857.0167,-675.96802 h 24.0685 v -193.41799 h 33.6379 c 19.4288,0 32.768,0.86995 43.4973,7.82952 13.3392,8.69946 21.1687,25.51841 21.1687,41.46742 0,15.36905 -4.9297,28.41824 -16.239,39.43755 -11.5993,10.72934 -32.478,11.01932 -47.5571,11.01932 h -6.9595 l 60.6062,93.66418 h 26.0984 l -53.3567,-80.32501 c 19.7188,-2.02987 35.0878,-6.08962 47.847,-23.48854 8.9895,-12.17925 13.0492,-27.54829 12.7592,-42.04739 0,-24.35849 -11.8892,-47.26707 -29.2881,-57.70642 -11.0194,-6.95957 -26.6784,-11.01931 -60.3163,-11.01931 h -55.9665 z"
     style="font-style:normal;font-variant:normal;font-weight:300;font-stretch:normal;font-family:'ITC Avant Garde Gothic Std';-inkscape-font-specification:'ITC Avant Garde Gothic Std Light';fill:#ffffff;fill-opacity:1;stroke-width:7.76738"
     id="path875" /><path
     d="m 4020.5663,-782.39141 c 0,61.1862 48.4269,110.19316 111.933,110.19316 63.2161,0 111.9331,-48.13701 111.9331,-111.06311 0,-62.92609 -49.007,-111.0631 -111.9331,-111.0631 -60.6062,0 -111.933,45.52717 -111.933,111.64307 z m 24.0685,-1.15993 c 0,-49.58692 37.4076,-89.60443 87.8645,-89.60443 51.0368,0 88.1545,40.88746 88.1545,89.89441 0,49.00696 -37.1177,89.89442 -87.8645,89.89442 -50.1669,0 -88.1545,-39.43755 -88.1545,-89.89442 z"
     style="font-style:normal;font-variant:normal;font-weight:300;font-stretch:normal;font-family:'ITC Avant Garde Gothic Std';-inkscape-font-specification:'ITC Avant Garde Gothic Std Light';fill:#ffffff;fill-opacity:1;stroke-width:7.76738"
     id="path877" /><path
     d="m 4452.3494,-733.67443 c -5.2196,8.11949 -28.1282,40.30749 -73.0754,40.30749 -49.8769,0 -87.8646,-39.43755 -87.8646,-90.1844 0,-49.8769 37.6977,-89.60443 87.8646,-89.60443 41.4674,0 65.8259,28.70821 73.0754,41.46742 h 25.8084 c -12.4692,-27.25831 -45.8171,-62.63611 -98.8838,-62.63611 -64.376,0 -111.6431,49.8769 -111.6431,111.0631 0,62.05615 48.427,111.06311 111.933,111.06311 47.2671,0 84.6748,-28.41824 98.5939,-61.47618 z"
     style="font-style:normal;font-variant:normal;font-weight:300;font-stretch:normal;font-family:'ITC Avant Garde Gothic Std';-inkscape-font-specification:'ITC Avant Garde Gothic Std Light';fill:#ffffff;fill-opacity:1;stroke-width:7.76738"
     id="path879" /><path
     d="m 4509.7654,-675.96802 h 118.8926 v -21.16868 h -95.114 v -76.55525 h 94.5341 v -21.16869 h -94.5341 v -74.52537 h 95.114 v -21.16868 h -118.8926 z"
     style="font-style:normal;font-variant:normal;font-weight:300;font-stretch:normal;font-family:'ITC Avant Garde Gothic Std';-inkscape-font-specification:'ITC Avant Garde Gothic Std Light';fill:#ffffff;fill-opacity:1;stroke-width:7.76738"
     id="path881" /><path
     d="m 4656.2058,-735.70431 c 1.4499,40.88746 31.3181,63.50606 67.2759,63.50606 40.0175,0 66.4058,-27.83827 66.4058,-62.92609 0,-39.43756 -31.898,-50.74685 -52.1967,-58.57637 -32.478,-11.01931 -53.6467,-17.39892 -53.3567,-43.4973 0,-22.32861 17.6889,-36.82771 39.1476,-36.82771 28.4182,0 35.3778,21.16869 37.9876,35.08782 h 23.7785 c -3.4798,-40.59748 -34.2178,-55.38656 -60.8962,-55.38656 -32.768,0 -64.376,21.16869 -63.796,59.15633 0,40.59748 37.4076,51.61679 54.8066,56.83647 24.9384,8.11949 50.7468,14.78908 50.7468,44.94721 0,23.77852 -20.5887,40.88746 -42.9173,40.88746 -13.3392,0 -39.4376,-7.53953 -42.9174,-43.20732 z"
     style="font-style:normal;font-variant:normal;font-weight:300;font-stretch:normal;font-family:'ITC Avant Garde Gothic Std';-inkscape-font-specification:'ITC Avant Garde Gothic Std Light';fill:#ffffff;fill-opacity:1;stroke-width:7.76738"
     id="path883" /><path
     d="m 4811.636,-735.70431 c 1.4499,40.88746 31.3181,63.50606 67.2758,63.50606 40.0176,0 66.4059,-27.83827 66.4059,-62.92609 0,-39.43756 -31.898,-50.74685 -52.1967,-58.57637 -32.478,-11.01931 -53.6467,-17.39892 -53.3567,-43.4973 0,-22.32861 17.6889,-36.82771 39.1475,-36.82771 28.4183,0 35.3778,21.16869 37.9877,35.08782 h 23.7785 c -3.4798,-40.59748 -34.2179,-55.38656 -60.8962,-55.38656 -32.768,0 -64.376,21.16869 -63.7961,59.15633 0,40.59748 37.4077,51.61679 54.8066,56.83647 24.9385,8.11949 50.7469,14.78908 50.7469,44.94721 0,23.77852 -20.5887,40.88746 -42.9173,40.88746 -13.3392,0 -39.4376,-7.53953 -42.9174,-43.20732 z"
     style="font-style:normal;font-variant:normal;font-weight:300;font-stretch:normal;font-family:'ITC Avant Garde Gothic Std';-inkscape-font-specification:'ITC Avant Garde Gothic Std Light';fill:#ffffff;fill-opacity:1;stroke-width:7.76738"
     id="path885" /><path
     d="m 4977.5055,-675.96802 h 23.7786 v -214.58667 h -23.7786 z"
     style="font-style:normal;font-variant:normal;font-weight:300;font-stretch:normal;font-family:'ITC Avant Garde Gothic Std';-inkscape-font-specification:'ITC Avant Garde Gothic Std Light';fill:#ffffff;fill-opacity:1;stroke-width:7.76738"
     id="path887" /><path
     d="m 5068.8496,-890.55469 h -24.3585 v 214.58667 h 23.1986 l -0.58,-180.65878 127.3021,180.65878 h 23.1986 v -214.58667 h -23.1986 l 0.29,179.20887 z"
     style="font-style:normal;font-variant:normal;font-weight:300;font-stretch:normal;font-family:'ITC Avant Garde Gothic Std';-inkscape-font-specification:'ITC Avant Garde Gothic Std Light';fill:#ffffff;fill-opacity:1;stroke-width:7.76738"
     id="path889" /><path
     d="m 5463.5147,-834.87815 c -16.819,-35.08782 -57.1265,-59.44631 -100.6238,-59.44631 -62.0561,0 -112.513,46.39712 -112.513,110.77312 0,63.50606 49.5869,111.64307 112.223,111.64307 43.2074,0 86.1247,-23.48854 104.6835,-63.79604 6.3796,-13.33917 9.2795,-28.9982 9.5694,-41.46742 h -134.5516 v 19.71877 h 106.7134 c -3.4798,16.81896 -13.9192,33.05795 -28.9982,44.94721 -14.7891,11.59928 -34.7979,19.42879 -57.4165,19.42879 -46.977,0 -88.1545,-35.95776 -88.1545,-90.47438 0,-53.64667 40.8875,-89.60443 87.8646,-89.60443 19.1388,0 35.9577,5.50965 49.8769,15.07906 9.2794,6.08962 17.3989,13.91914 24.0685,23.19856 z"
     style="font-style:normal;font-variant:normal;font-weight:300;font-stretch:normal;font-family:'ITC Avant Garde Gothic Std';-inkscape-font-specification:'ITC Avant Garde Gothic Std Light';fill:#ffffff;fill-opacity:1;stroke-width:7.76738"
     id="path891" /><path
     d="m 5741.3166,-808.19981 -29.5781,57.70642 -43.7873,-44.65723 c 20.0087,-9.85939 42.6273,-21.45866 42.6273,-50.45686 0,-26.38837 -21.7486,-48.71698 -50.4568,-48.71698 -28.4183,0 -49.8769,22.32861 -49.8769,48.71698 0.5799,20.00875 12.1792,33.05794 26.6783,48.42699 -21.1687,9.85939 -51.6168,28.70822 -51.6168,64.376 0,31.31806 25.2284,60.89622 64.666,60.89622 34.5078,0 50.4569,-17.6889 64.956,-46.10714 l 44.3672,45.52718 15.0791,-14.4991 -48.137,-49.00696 37.9876,-72.20552 z m -80.905,-67.5658 c 17.9789,0 29.8682,14.20912 29.8682,29.86814 0,19.13882 -11.8893,26.38837 -35.0878,37.69766 -10.1494,-10.43935 -23.7786,-22.03863 -23.7786,-38.85758 0,-13.91914 10.7294,-28.70822 28.7083,-28.70822 z m 39.7276,143.54109 c -12.1793,24.93845 -24.0685,39.43755 -49.007,39.43755 -25.2284,0 -42.3374,-19.4288 -42.6273,-41.46743 0.2899,-17.39892 9.5694,-34.21787 42.0474,-49.29694 z"
     style="font-style:normal;font-variant:normal;font-weight:300;font-stretch:normal;font-family:'ITC Avant Garde Gothic Std';-inkscape-font-specification:'ITC Avant Garde Gothic Std Light';fill:#ffffff;fill-opacity:1;stroke-width:7.76738"
     id="path893" /><path
     d="m 5877.0276,-735.70431 c 1.4499,40.88746 31.3181,63.50606 67.2758,63.50606 40.0176,0 66.4059,-27.83827 66.4059,-62.92609 0,-39.43756 -31.898,-50.74685 -52.1967,-58.57637 -32.478,-11.01931 -53.6467,-17.39892 -53.3567,-43.4973 0,-22.32861 17.6889,-36.82771 39.1475,-36.82771 28.4183,0 35.3778,21.16869 37.9877,35.08782 h 23.7785 c -3.4798,-40.59748 -34.2179,-55.38656 -60.8962,-55.38656 -32.768,0 -64.376,21.16869 -63.7961,59.15633 0,40.59748 37.4077,51.61679 54.8066,56.83647 24.9385,8.11949 50.7469,14.78908 50.7469,44.94721 0,23.77852 -20.5887,40.88746 -42.9173,40.88746 -13.3392,0 -39.4376,-7.53953 -42.9174,-43.20732 z"
     style="font-style:normal;font-variant:normal;font-weight:300;font-stretch:normal;font-family:'ITC Avant Garde Gothic Std';-inkscape-font-specification:'ITC Avant Garde Gothic Std Light';fill:#ffffff;fill-opacity:1;stroke-width:7.76738"
     id="path895" /><path
     d="m 6076.2451,-675.96802 h 24.0685 v -193.41799 h 53.0667 v -21.16868 h -129.9119 v 21.16868 h 52.7767 z"
     style="font-style:normal;font-variant:normal;font-weight:300;font-stretch:normal;font-family:'ITC Avant Garde Gothic Std';-inkscape-font-specification:'ITC Avant Garde Gothic Std Light';fill:#ffffff;fill-opacity:1;stroke-width:7.76738"
     id="path897" /><path
     d="m 6185.8578,-736.28427 h 100.0438 l 24.9384,60.31625 h 26.0984 l -88.7345,-214.58667 h -23.1986 l -89.6044,214.58667 h 25.8084 z m 92.7942,-19.71878 h -85.5447 l 42.6274,-107.58332 z"
     style="font-style:normal;font-variant:normal;font-weight:300;font-stretch:normal;font-family:'ITC Avant Garde Gothic Std';-inkscape-font-specification:'ITC Avant Garde Gothic Std Light';fill:#ffffff;fill-opacity:1;stroke-width:7.76738"
     id="path899" /><path
     d="m 6371.7353,-675.96802 h 24.0685 v -193.41799 h 53.0667 v -21.16868 h -129.9119 v 21.16868 h 52.7767 z"
     style="font-style:normal;font-variant:normal;font-weight:300;font-stretch:normal;font-family:'ITC Avant Garde Gothic Std';-inkscape-font-specification:'ITC Avant Garde Gothic Std Light';fill:#ffffff;fill-opacity:1;stroke-width:7.76738"
     id="path901" /><path
     d="m 6472.3591,-675.96802 h 23.7785 v -214.58667 h -23.7785 z"
     style="font-style:normal;font-variant:normal;font-weight:300;font-stretch:normal;font-family:'ITC Avant Garde Gothic Std';-inkscape-font-specification:'ITC Avant Garde Gothic Std Light';fill:#ffffff;fill-opacity:1;stroke-width:7.76738"
     id="path903" /><path
     d="m 6528.9053,-735.70431 c 1.4499,40.88746 31.3181,63.50606 67.2758,63.50606 40.0175,0 66.4059,-27.83827 66.4059,-62.92609 0,-39.43756 -31.898,-50.74685 -52.1968,-58.57637 -32.4779,-11.01931 -53.6466,-17.39892 -53.3566,-43.4973 0,-22.32861 17.6889,-36.82771 39.1475,-36.82771 28.4183,0 35.3778,21.16869 37.9877,35.08782 h 23.7785 c -3.4798,-40.59748 -34.2179,-55.38656 -60.8962,-55.38656 -32.768,0 -64.376,21.16869 -63.7961,59.15633 0,40.59748 37.4077,51.61679 54.8066,56.83647 24.9385,8.11949 50.7469,14.78908 50.7469,44.94721 0,23.77852 -20.5887,40.88746 -42.9174,40.88746 -13.3391,0 -39.4375,-7.53953 -42.9173,-43.20732 z"
     style="font-style:normal;font-variant:normal;font-weight:300;font-stretch:normal;font-family:'ITC Avant Garde Gothic Std';-inkscape-font-specification:'ITC Avant Garde Gothic Std Light';fill:#ffffff;fill-opacity:1;stroke-width:7.76738"
     id="path905" /><path
     d="m 6728.1228,-675.96802 h 24.0685 v -193.41799 h 53.0667 v -21.16868 h -129.912 v 21.16868 h 52.7768 z"
     style="font-style:normal;font-variant:normal;font-weight:300;font-stretch:normal;font-family:'ITC Avant Garde Gothic Std';-inkscape-font-specification:'ITC Avant Garde Gothic Std Light';fill:#ffffff;fill-opacity:1;stroke-width:7.76738"
     id="path907" /><path
     d="m 6828.7463,-675.96802 h 23.7785 v -214.58667 h -23.7785 z"
     style="font-style:normal;font-variant:normal;font-weight:300;font-stretch:normal;font-family:'ITC Avant Garde Gothic Std';-inkscape-font-specification:'ITC Avant Garde Gothic Std Light';fill:#ffffff;fill-opacity:1;stroke-width:7.76738"
     id="path909" /><path
     d="m 7070.591,-733.67443 c -5.2197,8.11949 -28.1282,40.30749 -73.0755,40.30749 -49.8769,0 -87.8645,-39.43755 -87.8645,-90.1844 0,-49.8769 37.6977,-89.60443 87.8645,-89.60443 41.4675,0 65.826,28.70821 73.0755,41.46742 h 25.8084 c -12.4692,-27.25831 -45.8172,-62.63611 -98.8839,-62.63611 -64.376,0 -111.643,49.8769 -111.643,111.0631 0,62.05615 48.427,111.06311 111.933,111.06311 47.2671,0 84.6748,-28.41824 98.5939,-61.47618 z"
     style="font-style:normal;font-variant:normal;font-weight:300;font-stretch:normal;font-family:'ITC Avant Garde Gothic Std';-inkscape-font-specification:'ITC Avant Garde Gothic Std Light';fill:#ffffff;fill-opacity:1;stroke-width:7.76738"
     id="path911" /><path
     d="m 7117.5679,-735.70431 c 1.4499,40.88746 31.3181,63.50606 67.2758,63.50606 40.0175,0 66.4059,-27.83827 66.4059,-62.92609 0,-39.43756 -31.898,-50.74685 -52.1968,-58.57637 -32.4779,-11.01931 -53.6466,-17.39892 -53.3566,-43.4973 0,-22.32861 17.6889,-36.82771 39.1475,-36.82771 28.4183,0 35.3778,21.16869 37.9877,35.08782 h 23.7785 c -3.4798,-40.59748 -34.2179,-55.38656 -60.8962,-55.38656 -32.768,0 -64.376,21.16869 -63.7961,59.15633 0,40.59748 37.4077,51.61679 54.8066,56.83647 24.9385,8.11949 50.7469,14.78908 50.7469,44.94721 0,23.77852 -20.5887,40.88746 -42.9174,40.88746 -13.3391,0 -39.4375,-7.53953 -42.9173,-43.20732 z"
     style="font-style:normal;font-variant:normal;font-weight:300;font-stretch:normal;font-family:'ITC Avant Garde Gothic Std';-inkscape-font-specification:'ITC Avant Garde Gothic Std Light';fill:#ffffff;fill-opacity:1;stroke-width:7.76738"
     id="path913" /></g>




<g
   id="text1452"
   style="font-size:8px;line-height:1.25;font-family:sans-serif;-inkscape-font-specification:'sans-serif, Normal';white-space:pre;shape-inside:url(#rect1454)" /></g></svg>
