<?xml version="1.0" encoding="UTF-8" standalone="no"?>
<svg
   xmlns:dc="http://purl.org/dc/elements/1.1/"
   xmlns:cc="http://creativecommons.org/ns#"
   xmlns:rdf="http://www.w3.org/1999/02/22-rdf-syntax-ns#"
   xmlns:svg="http://www.w3.org/2000/svg"
   xmlns="http://www.w3.org/2000/svg"
   xmlns:sodipodi="http://sodipodi.sourceforge.net/DTD/sodipodi-0.dtd"
   xmlns:inkscape="http://www.inkscape.org/namespaces/inkscape"
   inkscape:version="1.0.1 (3bc2e813f5, 2020-09-07)"
   sodipodi:docname="SQUARE_NEGATIVE.svg"
   viewBox="0 0 918.4267 208.81332"
   height="208.81332"
   width="918.4267"
   xml:space="preserve"
   id="svg2"
   version="1.1"><metadata
     id="metadata8"><rdf:RDF><cc:Work
         rdf:about=""><dc:format>image/svg+xml</dc:format><dc:type
           rdf:resource="http://purl.org/dc/dcmitype/StillImage" /><dc:title></dc:title></cc:Work></rdf:RDF></metadata><defs
     id="defs6"><inkscape:path-effect
       effect="powerstroke"
       id="path-effect909"
       is_visible="true"
       lpeversion="1"
       offset_points="0,3.75"
       sort_points="true"
       interpolator_type="CubicBezierJohan"
       interpolator_beta="0.2"
       start_linecap_type="zerowidth"
       linejoin_type="extrp_arc"
       miter_limit="4"
       scale_width="1"
       end_linecap_type="zerowidth" /><inkscape:path-effect
       effect="bspline"
       id="path-effect907"
       is_visible="true"
       lpeversion="1"
       weight="33.333333"
       steps="2"
       helper_size="0"
       apply_no_weight="true"
       apply_with_weight="true"
       only_selected="false" /><inkscape:path-effect
       effect="powerstroke"
       id="path-effect1129"
       is_visible="true"
       lpeversion="1"
       offset_points="0,2.6200532"
       sort_points="true"
       interpolator_type="CubicBezierJohan"
       interpolator_beta="0.2"
       start_linecap_type="zerowidth"
       linejoin_type="extrp_arc"
       miter_limit="4"
       scale_width="1"
       end_linecap_type="zerowidth" /><inkscape:path-effect
       effect="bspline"
       id="path-effect262"
       is_visible="true"
       lpeversion="1"
       weight="33.333333"
       steps="2"
       helper_size="0"
       apply_no_weight="true"
       apply_with_weight="true"
       only_selected="false" /><inkscape:path-effect
       effect="bspline"
       id="path-effect243"
       is_visible="true"
       lpeversion="1"
       weight="33.333333"
       steps="2"
       helper_size="0"
       apply_no_weight="true"
       apply_with_weight="true"
       only_selected="false" /><inkscape:path-effect
       effect="bspline"
       id="path-effect225"
       is_visible="true"
       lpeversion="1"
       weight="33.333333"
       steps="2"
       helper_size="0"
       apply_no_weight="true"
       apply_with_weight="true"
       only_selected="false" /></defs><sodipodi:namedview
     pagecolor="#1e1e1e"
     bordercolor="#666666"
     borderopacity="1"
     objecttolerance="10"
     gridtolerance="10"
     guidetolerance="10"
     inkscape:pageopacity="0"
     inkscape:pageshadow="2"
     inkscape:window-width="1920"
     inkscape:window-height="1001"
     id="namedview4"
     showgrid="false"
     showguides="true"
     inkscape:guide-bbox="true"
     inkscape:zoom="2"
     inkscape:cx="640.80711"
     inkscape:cy="78.117292"
     inkscape:window-x="-9"
     inkscape:window-y="-9"
     inkscape:window-maximized="1"
     inkscape:current-layer="g12"
     inkscape:document-rotation="0" /><g
     id="g10"
     inkscape:groupmode="layer"
     inkscape:label="ink_ext_XXXXXX"
     transform="matrix(1.3333333,0,0,-1.3333333,0,208.81333)"><g
       id="g12"
       transform="scale(0.1)"><path
         id="path16"
         style="fill:#fffff8;fill-opacity:1;fill-rule:nonzero;stroke:none;stroke-width:0.133333"
         d="M 28.820312 28.8125 L 28.820312 69.123047 L 47.291016 121.2793 L 47.347656 121.2793 L 63.076172 75.332031 C 63.076172 75.332031 63.098719 75.265828 63.136719 75.173828 C 64.161252 71.676495 67.408728 69.123047 71.236328 69.123047 L 75.179688 69.123047 L 87.279297 69.123047 L 87.279297 116.83203 C 87.33703 119.16536 87.588265 121.42648 88.644531 123.54102 C 90.355998 126.54888 93.519787 128.69991 97.242188 129.14258 C 97.369254 129.15818 97.496867 129.17124 97.625 129.18164 C 97.963533 129.21031 98.305944 129.22461 98.652344 129.22461 C 98.998744 129.22461 99.341153 129.21031 99.679688 129.18164 C 99.807821 129.17124 99.935433 129.15818 100.0625 129.14258 C 103.78383 128.69991 106.94922 126.54888 108.66016 123.54102 C 109.71642 121.42648 109.96819 119.16536 110.02539 116.83203 L 110.02539 69.123047 L 122.66016 69.123047 L 122.66016 114.14258 C 122.66016 119.21031 122.34771 124.06705 120.30078 128.43945 C 116.56798 135.84052 108.78545 141.03154 99.695312 141.40234 C 99.349979 141.41688 99.001944 141.42578 98.652344 141.42578 C 98.302877 141.42578 97.954708 141.41688 97.609375 141.40234 C 88.519375 141.03154 80.736706 135.84052 77.003906 128.43945 C 74.957106 124.06705 74.644531 119.21031 74.644531 114.14258 L 74.644531 82.263672 L 74.541016 82.263672 L 74.396484 82.701172 L 53.800781 139.66016 L 41.056641 139.66016 L 28.820312 106.54102 L 28.820312 179.99414 L 180.00195 179.99414 L 180.00195 28.8125 L 28.820312 28.8125 z M 142.99609 69.09375 C 149.39609 69.09375 155.88983 68.808198 161.8125 71.769531 C 167.6405 74.730865 171.75 81.036287 171.75 87.626953 C 171.75 93.16802 169.16843 98.612903 164.00977 101.0957 C 171.74843 103.5801 176.04883 110.17003 176.04883 118.19336 C 176.04883 125.07096 172.89455 130.89906 167.44922 135.00586 C 161.81322 139.11533 154.64985 139.49683 147.86719 139.6875 L 126.58789 139.6875 L 126.59961 69.123047 L 142.99609 69.09375 z M 147.91016 81.787109 C 147.12534 81.789724 146.36292 81.798828 145.66992 81.798828 L 139.7207 81.789062 L 139.7207 96.238281 L 145.76562 96.222656 C 148.53629 96.222656 152.16444 96.319695 154.64844 95.173828 C 157.13244 94.027028 158.66211 91.352268 158.66211 88.677734 C 158.66211 85.811068 156.84624 83.519817 154.26758 82.46875 C 152.81558 81.84185 150.26459 81.779266 147.91016 81.787109 z M 139.7207 108.92773 L 139.7207 126.98047 L 148.72656 126.98242 C 152.5479 126.98242 156.08282 126.79231 159.52148 124.49805 C 161.90948 122.87565 162.96094 120.58203 162.96094 117.62109 C 162.96094 114.18349 161.33663 112.08279 158.2793 110.36133 C 155.3193 108.83279 152.16567 108.92773 149.01367 108.92773 L 139.7207 108.92773 z "
         transform="matrix(7.5000002,0,0,-7.5000002,0,1566.1)" /><path
         d="M 109.684,1047.67 216.148,766.91 v 280.76 z"
         style="fill:#ffffff;fill-opacity:1;fill-rule:nonzero;stroke:none"
         id="path22" /><path
         d="m 2687.08,363.32 h 12.68 v 218.571 h -12.68 z M 1578.83,581.891 h -12.67 V 216.148 h 851.67 v 12.672 h -839 z m 168.41,768.079 v -12.68 h 939.84 v -268.44 h 12.68 v 281.12 h -952.52"
         style="fill:#ffffff;fill-opacity:1;fill-rule:nonzero;stroke:none"
         id="path24"
         sodipodi:nodetypes="ccccccccccccccccccc" /><path
         d="m 1590.39,733.121 c 3.49,-35.867 29.74,-43.457 43.15,-43.457 22.45,0 43.15,17.207 43.15,41.113 0,30.332 -25.94,37.043 -51.02,45.207 -17.5,5.246 -55.11,16.329 -55.11,57.153 -0.58,38.199 31.2,59.48 64.15,59.48 26.83,0 57.74,-14.867 61.23,-55.691 h -23.9 c -2.63,13.996 -9.63,35.281 -38.21,35.281 -21.58,0 -39.36,-14.578 -39.36,-37.031 -0.3,-26.242 20.99,-32.66 53.65,-43.738 20.41,-7.875 52.49,-19.254 52.49,-58.903 0,-35.281 -26.53,-63.281 -66.78,-63.281 -36.16,0 -66.19,22.754 -67.64,63.867 h 24.2"
         style="fill:#ffffff;fill-opacity:1;fill-rule:nonzero;stroke:none"
         id="path26" /><path
         d="m 1844.05,690.25 c 20.42,0 38.2,7.871 46.95,14.297 -5.83,5.527 -28,22.734 -29.75,24.492 -19.24,13.117 -39.07,19.238 -60.65,19.238 -17.2,0 -27.69,-3.789 -37.03,-7.285 20.41,-42.871 60.36,-50.742 80.19,-50.742 z m -1.16,181.086 c -46.37,0 -83.99,-34.41 -86.9,-83.106 -0.29,-13.117 1.46,-21.289 3.2,-27.121 9.93,3.204 23.92,7.871 44.04,7.871 20.99,0 40.53,-4.96 58.02,-15.449 11.09,-6.414 16.63,-11.082 44.91,-34.121 17.2,15.742 25.95,37.91 25.95,62.11 0,52.492 -39.95,89.816 -88.93,89.816 z m 128.59,-202.082 c -6.42,0.586 -12.25,1.172 -17.5,2.051 -23.04,2.91 -34.4,10.195 -45.49,17.785 -15.45,-10.207 -38.19,-20.129 -64.73,-20.129 -69.11,0 -113.14,53.945 -113.14,111.684 0,61.824 48.12,111.972 112.56,111.972 64.44,0 112.84,-49.57 112.84,-111.097 0,-43.446 -20.99,-66.485 -30.61,-77.266 13.12,-8.457 24.78,-12.246 46.07,-14.59 v -20.41"
         style="fill:#ffffff;fill-opacity:1;fill-rule:nonzero;stroke:none"
         id="path28" /><path
         d="M 2024.44,888.828 V 752.066 c 0,-16.328 0,-28.867 10.2,-43.437 7.59,-10.801 21.88,-18.086 37.62,-18.086 15.46,0 29.75,6.992 37.03,17.793 10.21,14.277 10.21,26.816 10.21,43.73 v 136.762 h 23.91 V 752.066 c 0.3,-25.078 -2.92,-49.863 -24.49,-66.484 -11.96,-10.195 -28,-16.328 -46.66,-16.328 -15.17,0 -34.11,4.375 -47.53,16.328 -22.74,18.379 -24.49,42.871 -24.49,66.484 v 136.762 h 24.2"
         style="fill:#ffffff;fill-opacity:1;fill-rule:nonzero;stroke:none"
         id="path30" /><path
         d="m 2265.59,861.711 -42.86,-108.18 h 86.02 z m -74.94,-188.668 h -25.95 l 90.1,215.785 h 23.33 l 89.23,-215.785 h -26.24 l -25.08,60.656 h -100.61 l -24.78,-60.656"
         style="fill:#ffffff;fill-opacity:1;fill-rule:nonzero;stroke:none"
         id="path32" /><path
         d="m 2396.89,888.828 h 56.27 c 33.83,0 49.58,-4.082 60.65,-11.078 17.5,-10.496 29.46,-33.535 29.46,-58.027 0.29,-14.578 -3.79,-30.039 -12.84,-42.285 -12.83,-17.5 -28.28,-21.583 -48.11,-23.614 l 53.66,-80.781 h -26.25 l -60.94,94.191 h 7 c 15.16,0 36.16,0.293 47.82,11.079 11.38,11.082 16.33,24.203 16.33,39.656 0,16.043 -7.87,32.953 -21.28,41.703 -10.79,6.996 -24.21,7.867 -43.74,7.867 h -33.83 V 673.043 h -24.2 v 215.785"
         style="fill:#ffffff;fill-opacity:1;fill-rule:nonzero;stroke:none"
         id="path34" /><path
         d="m 2581.32,888.828 h 119.55 v -21.289 h -95.64 v -74.934 h 95.06 v -21.289 h -95.06 v -76.984 h 95.64 v -21.289 h -119.55 v 215.785"
         style="fill:#ffffff;fill-opacity:1;fill-rule:nonzero;stroke:none"
         id="path36" /><path
         d="m 2698.97,216.641 v 95.777 h -101.59 v -95.777 l 70.57,-0.012 -32.58,-55.359 63.6,55.359 v 0.012"
         style="fill:#ffffff;fill-opacity:1;fill-rule:nonzero;stroke:none"
         id="path38" /><path
         d="m 2575.94,216.641 v 95.777 h -101.59 v -95.777 l 70.55,-0.012 -32.57,-55.359 63.61,55.359 v 0.012"
         style="fill:#ffffff;fill-opacity:1;fill-rule:nonzero;stroke:none"
         id="path40" /><path
         d="m 2930.04,1043.25 c 3.5,-35.87 29.75,-43.449 43.16,-43.449 22.44,0 43.15,17.199 43.15,41.109 0,30.33 -25.94,37.04 -51.02,45.2 -17.5,5.25 -55.12,16.33 -55.12,57.16 -0.58,38.19 31.22,59.48 64.17,59.48 26.81,0 57.73,-14.87 61.23,-55.69 h -23.91 c -2.64,13.99 -9.63,35.28 -38.2,35.28 -21.59,0 -39.38,-14.58 -39.38,-37.03 -0.29,-26.25 21,-32.66 53.65,-43.74 20.41,-7.88 52.5,-19.25 52.5,-58.9 0,-35.29 -26.54,-63.279 -66.77,-63.279 -36.18,0 -66.2,22.749 -67.66,63.859 h 24.2"
         style="fill:#ffffff;fill-opacity:1;fill-rule:nonzero;stroke:none"
         id="path44" /><path
         d="M 3095.9,1198.96 V 1062.2 c 0,-16.32 0,-28.86 10.21,-43.44 7.58,-10.8 21.88,-18.08 37.62,-18.08 15.45,0 29.75,6.99 37.03,17.78 10.2,14.29 10.2,26.83 10.2,43.74 v 136.76 h 23.92 V 1062.2 c 0.3,-25.07 -2.93,-49.86 -24.49,-66.481 -11.97,-10.203 -28.01,-16.328 -46.66,-16.328 -15.18,0 -34.12,4.371 -47.54,16.328 -22.73,18.371 -24.49,42.871 -24.49,66.481 v 136.76 h 24.2"
         style="fill:#ffffff;fill-opacity:1;fill-rule:nonzero;stroke:none"
         id="path46" /><path
         d="m 3280.9,1089.32 h 34.41 c 18.09,0 29.16,2.04 39.94,9.04 9.34,6.12 16.04,19.83 16.04,34.99 0,15.45 -6.7,29.16 -16.33,35.28 -10.78,7 -21.85,9.04 -40.23,9.04 h -33.83 z m 32.65,109.64 c 30.34,0 44.63,-3.5 58.03,-13.7 14.3,-11.08 23.05,-31.21 23.05,-51.32 0,-20.42 -9.04,-41.12 -22.17,-51.33 -14.28,-11.07 -28.87,-14.57 -56.85,-14.57 h -34.71 v -84.86 h -24.2 v 215.78 h 56.85"
         style="fill:#ffffff;fill-opacity:1;fill-rule:nonzero;stroke:none"
         id="path48" /><path
         d="m 3440,1089.32 h 34.41 c 18.09,0 29.16,2.04 39.95,9.04 9.33,6.12 16.03,19.83 16.03,34.99 0,15.45 -6.7,29.16 -16.33,35.28 -10.78,7 -21.85,9.04 -40.23,9.04 H 3440 Z m 32.66,109.64 c 30.33,0 44.63,-3.5 58.02,-13.7 14.3,-11.08 23.05,-31.21 23.05,-51.32 0,-20.42 -9.04,-41.12 -22.17,-51.33 -14.27,-11.07 -28.86,-14.57 -56.85,-14.57 H 3440 v -84.86 h -24.2 v 215.78 h 56.86"
         style="fill:#ffffff;fill-opacity:1;fill-rule:nonzero;stroke:none"
         id="path50" /><path
         d="m 3593.32,1091.07 c 0,-50.74 38.2,-90.39 88.65,-90.39 51.02,0 88.34,41.11 88.34,90.39 0,49.28 -37.32,90.39 -88.63,90.39 -50.74,0 -88.36,-40.23 -88.36,-90.1 z m -24.2,-0.58 c 0,66.48 51.62,112.26 112.56,112.26 63.28,0 112.56,-48.4 112.56,-111.68 0,-63.27 -48.99,-111.679 -112.56,-111.679 -63.87,0 -112.56,49.279 -112.56,110.809 v 0.29"
         style="fill:#ffffff;fill-opacity:1;fill-rule:nonzero;stroke:none"
         id="path52" /><path
         d="m 3826.29,1198.96 h 56.27 c 33.83,0 49.59,-4.08 60.66,-11.08 17.5,-10.5 29.46,-33.53 29.46,-58.02 0.29,-14.59 -3.79,-30.04 -12.84,-42.29 -12.83,-17.5 -28.28,-21.58 -48.12,-23.62 l 53.67,-80.77 h -26.25 l -60.94,94.18 h 7 c 15.15,0 36.15,0.3 47.81,11.09 11.38,11.08 16.33,24.2 16.33,39.65 0,16.04 -7.88,32.95 -21.27,41.7 -10.8,7 -24.22,7.87 -43.75,7.87 h -33.83 V 983.18 h -24.2 v 215.78"
         style="fill:#ffffff;fill-opacity:1;fill-rule:nonzero;stroke:none"
         id="path54" /><path
         d="m 4031.78,1177.67 h -53.07 v 21.29 h 130.65 v -21.29 H 4056 V 983.18 h -24.22 v 194.49"
         style="fill:#ffffff;fill-opacity:1;fill-rule:nonzero;stroke:none"
         id="path56" /><path
         d="m 4216.95,1198.96 h 109.65 v -21.29 h -85.74 v -75.81 h 85.16 v -21.58 h -85.16 v -97.1 h -23.91 v 215.78"
         style="fill:#ffffff;fill-opacity:1;fill-rule:nonzero;stroke:none"
         id="path58" /><path
         d="m 4371.23,1091.07 c 0,-50.74 38.2,-90.39 88.65,-90.39 51.02,0 88.34,41.11 88.34,90.39 0,49.28 -37.32,90.39 -88.63,90.39 -50.74,0 -88.36,-40.23 -88.36,-90.1 z m -24.2,-0.58 c 0,66.48 51.62,112.26 112.56,112.26 63.28,0 112.56,-48.4 112.56,-111.68 0,-63.27 -48.99,-111.679 -112.56,-111.679 -63.87,0 -112.56,49.279 -112.56,110.809 v 0.29"
         style="fill:#ffffff;fill-opacity:1;fill-rule:nonzero;stroke:none"
         id="path60" /><path
         d="m 4604.2,1198.96 h 56.27 c 33.83,0 49.59,-4.08 60.66,-11.08 17.5,-10.5 29.46,-33.53 29.46,-58.02 0.29,-14.59 -3.79,-30.04 -12.84,-42.29 -12.83,-17.5 -28.28,-21.58 -48.12,-23.62 l 53.67,-80.77 h -26.25 l -60.94,94.18 h 7 c 15.15,0 36.15,0.3 47.81,11.09 11.38,11.08 16.33,24.2 16.33,39.65 0,16.04 -7.87,32.95 -21.27,41.7 -10.8,7 -24.22,7.87 -43.75,7.87 H 4628.4 V 983.18 h -24.2 v 215.78"
         style="fill:#ffffff;fill-opacity:1;fill-rule:nonzero;stroke:none"
         id="path62" /><path
         d="m 4967.54,1000.38 c 20.41,0 38.2,7.88 46.95,14.3 -5.84,5.53 -28.01,22.74 -29.74,24.49 -19.26,13.12 -39.09,19.24 -60.67,19.24 -17.19,0 -27.69,-3.79 -37.03,-7.29 20.41,-42.86 60.37,-50.74 80.2,-50.74 z m -1.17,181.08 c -46.37,0 -83.99,-34.4 -86.9,-83.1 -0.29,-13.12 1.47,-21.29 3.21,-27.12 9.92,3.21 23.92,7.87 44.04,7.87 20.99,0 40.53,-4.95 58.03,-15.45 11.07,-6.41 16.62,-11.08 44.9,-34.12 17.21,15.75 25.96,37.91 25.96,62.11 0,52.49 -39.97,89.81 -88.95,89.81 z m 128.59,-202.069 c -6.41,0.582 -12.25,1.168 -17.5,2.043 -23.03,2.914 -34.39,10.203 -45.49,17.785 -15.45,-10.207 -38.18,-20.121 -64.72,-20.121 -69.11,0 -113.15,53.942 -113.15,111.682 0,61.82 48.13,111.97 112.56,111.97 64.45,0 112.85,-49.57 112.85,-111.1 0,-43.45 -20.99,-66.48 -30.62,-77.27 13.12,-8.45 24.78,-12.24 46.07,-14.579 v -20.41"
         style="fill:#ffffff;fill-opacity:1;fill-rule:nonzero;stroke:none"
         id="path64" /><path
         d="M 5139.18,1198.96 V 1062.2 c 0,-16.32 0,-28.86 10.21,-43.44 7.58,-10.8 21.88,-18.08 37.62,-18.08 15.45,0 29.75,6.99 37.03,17.78 10.2,14.29 10.2,26.83 10.2,43.74 v 136.76 h 23.92 V 1062.2 c 0.3,-25.07 -2.93,-49.86 -24.49,-66.481 -11.97,-10.203 -28.01,-16.328 -46.66,-16.328 -15.17,0 -34.12,4.371 -47.54,16.328 -22.73,18.371 -24.49,42.871 -24.49,66.481 v 136.76 h 24.2"
         style="fill:#ffffff;fill-opacity:1;fill-rule:nonzero;stroke:none"
         id="path66" /><path
         d="m 5371.58,1171.84 -42.85,-108.18 h 86.02 z m -74.94,-188.66 h -25.94 l 90.1,215.78 h 23.32 l 89.24,-215.78 h -26.25 l -25.08,60.65 h -100.6 l -24.79,-60.65"
         style="fill:#ffffff;fill-opacity:1;fill-rule:nonzero;stroke:none"
         id="path68" /><path
         d="m 5646.17,1018.76 -0.29,180.2 h 23.32 V 983.18 h -23.32 l -128.01,181.66 0.57,-181.66 h -23.32 v 215.78 h 24.49 l 126.56,-180.2"
         style="fill:#ffffff;fill-opacity:1;fill-rule:nonzero;stroke:none"
         id="path70" /><path
         d="m 5743.89,1177.67 h -53.07 v 21.29 h 130.63 v -21.29 h -53.36 V 983.18 h -24.2 v 194.49"
         style="fill:#ffffff;fill-opacity:1;fill-rule:nonzero;stroke:none"
         id="path72" /><path
         d="m 5842.91,1198.96 h 23.91 V 983.18 h -23.91 v 215.78"
         style="fill:#ffffff;fill-opacity:1;fill-rule:nonzero;stroke:none"
         id="path74" /><path
         d="m 5941.17,1177.67 h -53.06 v 21.29 h 130.62 v -21.29 h -53.36 V 983.18 h -24.2 v 194.49"
         style="fill:#ffffff;fill-opacity:1;fill-rule:nonzero;stroke:none"
         id="path76" /><path
         d="m 6104,1171.84 -42.87,-108.18 h 86.02 z m -74.94,-188.66 h -25.95 l 90.09,215.78 h 23.34 l 89.22,-215.78 h -26.23 l -25.08,60.65 h -100.6 l -24.79,-60.65"
         style="fill:#ffffff;fill-opacity:1;fill-rule:nonzero;stroke:none"
         id="path78" /><path
         d="m 6243.65,1177.67 h -53.06 v 21.29 h 130.62 v -21.29 h -53.36 V 983.18 h -24.2 v 194.49"
         style="fill:#ffffff;fill-opacity:1;fill-rule:nonzero;stroke:none"
         id="path80" /><path
         d="m 6342.68,1198.96 h 23.9 V 983.18 h -23.9 v 215.78"
         style="fill:#ffffff;fill-opacity:1;fill-rule:nonzero;stroke:none"
         id="path82" /><path
         d="m 6388.32,1198.96 h 25.35 l 71.45,-184.58 71.74,184.58 h 25.37 l -85.75,-215.78 h -23.02 l -85.14,215.78"
         style="fill:#ffffff;fill-opacity:1;fill-rule:nonzero;stroke:none"
         id="path84" /><path
         d="m 6604.24,1198.96 h 119.55 v -21.29 h -95.65 v -74.94 h 95.06 v -21.28 h -95.06 v -76.99 h 95.65 v -21.28 h -119.55 v 215.78"
         style="fill:#ffffff;fill-opacity:1;fill-rule:nonzero;stroke:none"
         id="path86" /><path
         d="m 2985.45,874.785 c -18.09,0 -28.87,-14.867 -28.87,-28.863 0,-16.914 13.71,-28.578 23.91,-39.074 23.32,11.371 35.29,18.66 35.29,37.906 0,15.746 -11.97,30.031 -30.04,30.031 z m -9.63,-92.722 c -32.66,-15.172 -41.99,-32.086 -42.28,-49.567 0.29,-22.168 17.5,-41.699 42.87,-41.699 25.07,0 37.03,14.57 49.27,39.648 z m 114.32,24.785 -38.21,-72.614 48.4,-49.277 -15.15,-14.57 -44.61,45.781 c -14.59,-28.594 -30.63,-46.367 -65.34,-46.367 -39.64,0 -65.02,29.746 -65.02,61.23 0,35.86 30.63,54.821 51.92,64.731 -14.59,15.461 -26.25,28.582 -26.84,48.699 0,26.535 21.59,48.988 50.16,48.988 28.87,0 50.74,-22.453 50.74,-48.988 0,-29.156 -22.75,-40.82 -42.87,-50.738 l 44.02,-44.899 29.75,58.024 h 23.05"
         style="fill:#ffffff;fill-opacity:1;fill-rule:nonzero;stroke:none"
         id="path88" /><path
         d="m 3320.2,691.09 c 20.43,0 38.2,7.871 46.95,14.277 -5.82,5.547 -27.99,22.754 -29.75,24.492 -19.24,13.125 -39.06,19.258 -60.64,19.258 -17.21,0 -27.7,-3.789 -37.03,-7.304 20.41,-42.852 60.35,-50.723 80.19,-50.723 z m -1.16,181.074 c -46.36,0 -83.98,-34.406 -86.89,-83.105 -0.29,-13.125 1.44,-21.289 3.2,-27.118 9.92,3.211 23.91,7.872 44.03,7.872 20.99,0 40.54,-4.954 58.02,-15.461 11.1,-6.407 16.62,-11.075 44.9,-34.102 17.21,15.742 25.96,37.902 25.96,62.102 0,52.488 -39.94,89.812 -88.92,89.812 z m 128.6,-202.07 c -6.43,0.586 -12.25,1.152 -17.5,2.031 -23.03,2.91 -34.42,10.215 -45.49,17.793 -15.45,-10.215 -38.2,-20.117 -64.73,-20.117 -69.12,0 -113.14,53.945 -113.14,111.676 0,61.82 48.1,111.972 112.56,111.972 64.43,0 112.83,-49.57 112.83,-111.097 0,-43.45 -20.98,-66.477 -30.61,-77.278 13.13,-8.457 24.79,-12.246 46.08,-14.57 v -20.41"
         style="fill:#ffffff;fill-opacity:1;fill-rule:nonzero;stroke:none"
         id="path90" /><path
         d="M 3491.86,889.66 V 752.906 c 0,-16.328 0,-28.867 10.19,-43.457 7.6,-10.781 21.88,-18.066 37.62,-18.066 15.47,0 29.74,6.992 37.03,17.773 10.21,14.297 10.21,26.836 10.21,43.75 V 889.66 h 23.91 V 752.906 c 0.29,-25.078 -2.91,-49.863 -24.49,-66.484 -11.95,-10.215 -27.99,-16.328 -46.66,-16.328 -15.16,0 -34.1,4.375 -47.52,16.328 -22.76,18.359 -24.49,42.851 -24.49,66.484 V 889.66 h 24.2"
         style="fill:#ffffff;fill-opacity:1;fill-rule:nonzero;stroke:none"
         id="path92" /><path
         d="m 3724.26,862.539 -42.87,-108.187 h 86.01 z m -74.94,-188.656 h -25.96 l 90.1,215.777 h 23.34 l 89.22,-215.777 h -26.23 l -25.08,60.644 H 3674.1 l -24.78,-60.644"
         style="fill:#ffffff;fill-opacity:1;fill-rule:nonzero;stroke:none"
         id="path94" /><path
         d="m 3847.93,889.66 h 24.2 V 695.172 h 82.23 V 673.883 H 3847.93 V 889.66"
         style="fill:#ffffff;fill-opacity:1;fill-rule:nonzero;stroke:none"
         id="path96" /><path
         d="m 3975.39,889.66 h 23.91 V 673.883 h -23.91 V 889.66"
         style="fill:#ffffff;fill-opacity:1;fill-rule:nonzero;stroke:none"
         id="path98" /><path
         d="m 4073.65,868.371 h -53.06 v 21.289 h 130.62 v -21.289 h -53.36 V 673.883 h -24.2 v 194.488"
         style="fill:#ffffff;fill-opacity:1;fill-rule:nonzero;stroke:none"
         id="path100" /><path
         d="m 4236.48,862.539 -42.87,-108.187 h 86.02 z m -74.94,-188.656 h -25.95 l 90.09,215.777 h 23.34 l 89.22,-215.777 h -26.23 l -25.08,60.644 h -100.6 l -24.79,-60.644"
         style="fill:#ffffff;fill-opacity:1;fill-rule:nonzero;stroke:none"
         id="path102" /><path
         d="m 4376.13,868.371 h -53.06 v 21.289 h 130.62 v -21.289 h -53.36 V 673.883 h -24.2 v 194.488"
         style="fill:#ffffff;fill-opacity:1;fill-rule:nonzero;stroke:none"
         id="path104" /><path
         d="m 4475.16,889.66 h 23.9 V 673.883 h -23.9 V 889.66"
         style="fill:#ffffff;fill-opacity:1;fill-rule:nonzero;stroke:none"
         id="path106" /><path
         d="m 4520.8,889.66 h 25.35 l 71.45,-184.586 71.74,184.586 h 25.37 l -85.75,-215.777 h -23.02 L 4520.8,889.66"
         style="fill:#ffffff;fill-opacity:1;fill-rule:nonzero;stroke:none"
         id="path108" /><path
         d="m 4736.72,889.66 h 119.55 v -21.289 h -95.64 v -74.937 h 95.05 v -21.289 h -95.05 v -76.973 h 95.64 V 673.883 H 4736.72 V 889.66"
         style="fill:#ffffff;fill-opacity:1;fill-rule:nonzero;stroke:none"
         id="path110" /><path
         d="m 4976.43,889.66 h 56.27 c 33.82,0 49.57,-4.082 60.64,-11.078 17.5,-10.5 29.45,-33.535 29.45,-58.027 0.3,-14.582 -3.79,-30.035 -12.83,-42.285 -12.83,-17.493 -28.28,-21.575 -48.1,-23.625 l 53.65,-80.762 h -26.25 l -60.94,94.18 h 6.99 c 15.18,0 36.17,0.292 47.83,11.078 11.37,11.086 16.33,24.207 16.33,39.66 0,16.039 -7.87,32.949 -21.29,41.699 -10.78,6.996 -24.2,7.871 -43.73,7.871 h -33.82 V 673.883 h -24.2 V 889.66"
         style="fill:#ffffff;fill-opacity:1;fill-rule:nonzero;stroke:none"
         id="path112" /><path
         d="m 5152.11,889.66 h 119.55 v -21.289 h -95.64 v -74.937 h 95.05 v -21.289 h -95.05 v -76.973 h 95.64 V 673.883 H 5152.11 V 889.66"
         style="fill:#ffffff;fill-opacity:1;fill-rule:nonzero;stroke:none"
         id="path114" /><path
         d="m 5314.55,733.941 c 3.5,-35.859 29.75,-43.437 43.16,-43.437 22.45,0 43.15,17.207 43.15,41.113 0,30.324 -25.94,37.031 -51.02,45.196 -17.5,5.25 -55.11,16.328 -55.11,57.152 -0.59,38.199 31.21,59.484 64.16,59.484 26.81,0 57.73,-14.867 61.23,-55.691 h -23.91 c -2.64,13.992 -9.63,35.281 -38.2,35.281 -21.58,0 -39.38,-14.582 -39.38,-37.031 -0.29,-26.246 21,-32.66 53.66,-43.742 20.41,-7.875 52.5,-19.243 52.5,-58.911 0,-35.273 -26.55,-63.261 -66.78,-63.261 -36.17,0 -66.19,22.734 -67.66,63.847 h 24.2"
         style="fill:#ffffff;fill-opacity:1;fill-rule:nonzero;stroke:none"
         id="path116" /><path
         d="m 5457.68,889.66 h 119.55 v -21.289 h -95.65 v -74.937 h 95.06 v -21.289 h -95.06 v -76.973 h 95.65 V 673.883 H 5457.68 V 889.66"
         style="fill:#ffffff;fill-opacity:1;fill-rule:nonzero;stroke:none"
         id="path118" /><path
         d="m 5697.3,862.539 -42.85,-108.187 h 86.02 z m -74.94,-188.656 h -25.93 l 90.09,215.777 h 23.32 l 89.24,-215.777 h -26.25 l -25.08,60.644 h -100.6 l -24.79,-60.644"
         style="fill:#ffffff;fill-opacity:1;fill-rule:nonzero;stroke:none"
         id="path120" /><path
         d="m 5819.84,889.66 h 56.27 c 33.83,0 49.59,-4.082 60.67,-11.078 17.5,-10.5 29.45,-33.535 29.45,-58.027 0.29,-14.582 -3.79,-30.035 -12.83,-42.285 -12.83,-17.493 -28.28,-21.575 -48.13,-23.625 l 53.68,-80.762 h -26.25 l -60.94,94.18 h 6.99 c 15.16,0 36.15,0.292 47.81,11.078 11.39,11.086 16.33,24.207 16.33,39.66 0,16.039 -7.87,32.949 -21.27,41.699 -10.8,6.996 -24.22,7.871 -43.75,7.871 h -33.83 V 673.883 h -24.2 V 889.66"
         style="fill:#ffffff;fill-opacity:1;fill-rule:nonzero;stroke:none"
         id="path122" /><path
         d="m 6194.92,731.91 c -13.98,-33.242 -51.6,-61.816 -99.14,-61.816 -63.85,0 -112.56,49.277 -112.56,111.676 0,61.527 47.54,111.679 112.27,111.679 53.38,0 86.89,-35.57 99.43,-62.984 h -25.94 c -7.3,12.832 -31.79,41.699 -73.49,41.699 -50.43,0 -88.34,-39.949 -88.34,-90.101 0,-51.032 38.18,-90.68 88.34,-90.68 45.19,0 68.24,32.363 73.49,40.527 h 25.94"
         style="fill:#ffffff;fill-opacity:1;fill-rule:nonzero;stroke:none"
         id="path124" /><path
         d="M 6224.63,673.883 V 889.66 h 23.91 v -95.937 h 104.1 v 95.937 h 24.2 V 673.883 h -24.2 v 98.555 h -104.1 v -98.555 h -23.91"
         style="fill:#ffffff;fill-opacity:1;fill-rule:nonzero;stroke:none"
         id="path126" /><path
         d="m 3119.53,422.969 c -14.08,-33.438 -51.93,-62.207 -99.76,-62.207 -64.26,0 -113.27,49.59 -113.27,112.379 0,61.918 47.84,112.382 112.97,112.382 53.69,0 87.44,-35.785 100.06,-63.375 h -26.11 c -7.35,12.911 -31.99,41.973 -73.95,41.973 -50.76,0 -88.9,-40.223 -88.9,-90.691 0,-51.34 38.43,-91.25 88.9,-91.25 45.47,0 68.66,32.582 73.95,40.789 h 26.11"
         style="fill:#ffffff;fill-opacity:1;fill-rule:nonzero;stroke:none"
         id="path128" /><path
         d="m 3160.25,473.141 c 0,-51.051 38.44,-90.961 89.2,-90.961 51.35,0 88.91,41.371 88.91,90.961 0,49.589 -37.56,90.98 -89.2,90.98 -51.05,0 -88.91,-40.512 -88.91,-90.691 z m -24.35,-0.582 c 0,66.91 51.93,112.964 113.26,112.964 63.67,0 113.26,-48.695 113.26,-112.382 0,-63.672 -49.29,-112.379 -113.26,-112.379 -64.26,0 -113.26,49.59 -113.26,111.5 v 0.297"
         style="fill:#ffffff;fill-opacity:1;fill-rule:nonzero;stroke:none"
         id="path130" /><path
         d="m 3394.65,581.715 h 56.64 c 34.04,0 49.88,-4.102 61.03,-11.152 17.6,-10.563 29.63,-33.735 29.63,-58.383 0.3,-14.68 -3.81,-30.231 -12.91,-42.551 -12.91,-17.598 -28.45,-21.719 -48.41,-23.77 l 54,-81.269 h -26.43 l -61.32,94.762 h 7.05 c 15.25,0 36.38,0.296 48.12,11.148 11.45,11.16 16.43,24.359 16.43,39.91 0,16.149 -7.91,33.16 -21.41,41.969 -10.86,7.031 -24.36,7.91 -44.02,7.91 H 3419 V 364.59 h -24.35 v 217.125"
         style="fill:#ffffff;fill-opacity:1;fill-rule:nonzero;stroke:none"
         id="path132" /><path
         d="m 3571.45,581.715 h 120.31 v -21.426 h -96.25 v -75.41 h 95.66 v -21.41 h -95.66 v -77.481 h 96.25 V 364.59 h -120.31 v 217.125"
         style="fill:#ffffff;fill-opacity:1;fill-rule:nonzero;stroke:none"
         id="path134" /><path
         d="m 3814.69,581.715 h 110.33 v -21.426 h -86.27 V 484 h 85.68 v -21.699 h -85.68 V 364.59 h -24.06 v 217.125"
         style="fill:#ffffff;fill-opacity:1;fill-rule:nonzero;stroke:none"
         id="path136" /><path
         d="m 4022.62,554.43 -43.15,-108.871 h 86.57 z m -75.41,-189.84 h -26.14 l 90.69,217.125 h 23.47 l 89.79,-217.125 h -26.41 l -25.23,61.031 h -101.23 l -24.94,-61.031"
         style="fill:#ffffff;fill-opacity:1;fill-rule:nonzero;stroke:none"
         id="path138" /><path
         d="m 4339.82,422.969 c -14.08,-33.438 -51.93,-62.207 -99.76,-62.207 -64.26,0 -113.26,49.59 -113.26,112.379 0,61.918 47.83,112.382 112.97,112.382 53.71,0 87.44,-35.785 100.05,-63.375 h -26.11 c -7.32,12.911 -31.97,41.973 -73.94,41.973 -50.77,0 -88.91,-40.223 -88.91,-90.691 0,-51.34 38.44,-91.25 88.91,-91.25 45.48,0 68.67,32.582 73.94,40.789 h 26.11"
         style="fill:#ffffff;fill-opacity:1;fill-rule:nonzero;stroke:none"
         id="path140" /><path
         d="m 4370.27,581.715 h 24.07 V 364.59 h -24.07 v 217.125"
         style="fill:#ffffff;fill-opacity:1;fill-rule:nonzero;stroke:none"
         id="path142" /><path
         d="m 4438.13,581.715 h 24.33 V 385.988 h 82.75 V 364.59 h -107.08 v 217.125"
         style="fill:#ffffff;fill-opacity:1;fill-rule:nonzero;stroke:none"
         id="path144" /><path
         d="m 4566.35,581.715 h 24.06 V 364.59 h -24.06 v 217.125"
         style="fill:#ffffff;fill-opacity:1;fill-rule:nonzero;stroke:none"
         id="path146" /><path
         d="m 4665.23,560.289 h -53.39 v 21.426 h 131.44 v -21.426 h -53.69 V 364.59 h -24.36 v 195.699"
         style="fill:#ffffff;fill-opacity:1;fill-rule:nonzero;stroke:none"
         id="path148" /><path
         d="m 4826,440.879 -69.83,140.836 h 26.41 l 55.74,-117.363 55.47,117.363 h 26.41 L 4850.35,440.879 V 364.59 H 4826 v 76.289"
         style="fill:#ffffff;fill-opacity:1;fill-rule:nonzero;stroke:none"
         id="path150" /></g><path
       style="display:inline;fill:none;fill-rule:evenodd;stroke:#ffffff;stroke-width:2.47254;stroke-miterlimit:4;stroke-dasharray:none;stroke-opacity:1"
       d="m 209.55009,77.587047 c 0.10028,0 0.20061,-0.07193 0.30093,-0.206196 0.10028,-0.134267 0.20059,-0.329673 0.3009,-0.577826 0.10028,-0.249353 0.20199,-0.550254 0.3023,-0.895511 0.10028,-0.345258 0.2006,-0.734871 0.30091,-1.161644 0.10028,-0.425582 0.2006,-0.889521 0.30091,-1.382233 0.10028,-0.492714 0.20061,-1.015393 0.30092,-1.563246 0.10028,-0.546662 0.20061,-1.117294 0.30091,-1.707106 0.10028,-0.588619 0.20061,-1.196417 0.30227,-1.818589 0.10028,-0.620994 0.20063,-1.256361 0.30092,-1.901313 0.10028,-0.644963 0.20062,-1.298319 0.30092,-1.957656 0.10028,-0.660543 0.2006,-1.32589 0.30091,-1.992428 0.10028,-0.667729 0.20061,-1.337868 0.30091,-2.006801 0.10028,-0.668934 0.20062,-1.337881 0.30093,-2.003215 0.10167,-0.665333 0.20197,-1.32708 0.30228,-1.984035 0.10028,-0.655739 0.20062,-1.306698 0.30092,-1.950457 0.10028,-0.643759 0.20061,-1.280332 0.30091,-1.907309 0.10028,-0.628181 0.20061,-1.246766 0.30091,-1.85455 0.10028,-0.607798 0.20062,-1.206014 0.30091,-1.791033 0.10028,-0.586211 0.20199,-1.161648 0.30229,-1.723888 0.10028,-0.561036 0.2006,-1.111298 0.30091,-1.64716 0.10028,-0.537066 0.20061,-1.059746 0.3009,-1.569242 0.10028,-0.509495 0.20063,-1.004604 0.30094,-1.48653 0.10028,-0.480723 0.2006,-0.948248 0.30091,-1.400208 0.10028,-0.453152 0.2006,-0.890712 0.30229,-1.313898 0.10028,-0.423172 0.2006,-0.830766 0.30092,-1.223974 0.10028,-0.393221 0.20059,-0.77204 0.3009,-1.135282 0.10028,-0.364433 0.20062,-0.712083 0.30091,-1.046562 0.10028,-0.334467 0.20063,-0.653342 0.30093,-0.957843 0.10028,-0.304502 0.2006,-0.594616 0.3009,-0.870343 0.10167,-0.274522 0.20198,-0.535862 0.30229,-0.782814 0.10028,-0.246953 0.20061,-0.47953 0.30091,-0.698913 0.10028,-0.218177 0.20061,-0.424376 0.30091,-0.614985 0.10028,-0.191811 0.20061,-0.370428 0.30092,-0.535874 0.10028,-0.164229 0.2006,-0.316481 0.30091,-0.455548 0.10028,-0.139054 0.20198,-0.26613 0.3023,-0.381215 0.10028,-0.11388 0.2006,-0.215783 0.3009,-0.306897 0.10028,-0.08991 0.20063,-0.169033 0.30093,-0.236165 0.10028,-0.06712 0.2006,-0.123477 0.30091,-0.167829 0.10028,-0.04556 0.20061,-0.08032 0.3009,-0.104298 0.10028,-0.02398 0.20062,-0.03716 0.30229,-0.04076 0.10028,-0.0035 0.20061,0.0024 0.30091,0.01799 0.10028,0.01558 0.20062,0.03956 0.30091,0.07434 0.10028,0.03357 0.20061,0.07553 0.30093,0.127063 0.10028,0.05155 0.2006,0.110294 0.30091,0.177425 0.10028,0.06833 0.20061,0.14386 0.30091,0.226583 0.10169,0.08271 0.20199,0.172621 0.3023,0.26973 0.10028,0.0983 0.2006,0.202601 0.30091,0.312893 0.10028,0.111486 0.20061,0.228965 0.30091,0.352441 0.10028,0.123477 0.20061,0.252949 0.30091,0.388416 0.10028,0.135469 0.20062,0.276932 0.30092,0.423187 0.10028,0.146254 0.20198,0.297301 0.30227,0.454342 0.10028,0.157042 0.20063,0.317684 0.30093,0.484322 0.10028,0.165434 0.2006,0.335671 0.3009,0.510688 0.10028,0.175029 0.20062,0.353659 0.30092,0.535874 0.10028,0.182217 0.20061,0.368033 0.30092,0.55745 0.10028,0.189403 0.20059,0.38242 0.30229,0.579024 0.10028,0.196603 0.2006,0.395602 0.30091,0.596997 0.10028,0.201409 0.20061,0.406403 0.30091,0.613793 0.10028,0.207391 0.20062,0.415986 0.30092,0.628182 0.10028,0.212182 0.20062,0.425581 0.30091,0.641363 0.10028,0.215783 0.20061,0.432769 0.30091,0.652151 0.10168,0.219382 0.20198,0.439956 0.30229,0.661748 0.10028,0.222968 0.20061,0.445951 0.3009,0.671328 0.10028,0.224174 0.20062,0.449552 0.30093,0.676135 0.10028,0.226568 0.20059,0.454343 0.30092,0.68332 0.10028,0.227775 0.2006,0.456739 0.3009,0.685717 0.10028,0.228965 0.20198,0.459147 0.30231,0.689317 0.10028,0.230169 0.20059,0.460338 0.3009,0.691713 0.10028,0.230169 0.20062,0.460339 0.30091,0.690508 0.10028,0.231373 0.20061,0.461543 0.30092,0.691712 0.10028,0.230169 0.2006,0.460352 0.3009,0.690521 0.10038,0.228965 0.20199,0.457943 0.30229,0.686921 0.10028,0.228965 0.20061,0.45674 0.30091,0.684512 0.10028,0.227774 0.20062,0.454357 0.30092,0.680925 0.10028,0.22657 0.20061,0.451948 0.30092,0.676135 0.10028,0.225365 0.2006,0.448347 0.30091,0.671329 0.10028,0.222983 0.2006,0.444761 0.30229,0.665334 0.10028,0.220588 0.20061,0.44116 0.30091,0.659352 0.10028,0.218177 0.20062,0.436369 0.30092,0.65215 0.10028,0.215782 0.2006,0.430373 0.30092,0.644964 0.10028,0.213387 0.20061,0.425568 0.3009,0.63656 0.10028,0.21099 0.20062,0.42079 0.30092,0.629385 0.10168,0.207391 0.20198,0.414782 0.30228,0.619775 0.10028,0.204996 0.20062,0.4088 0.30091,0.611399 0.10028,0.2026 0.20061,0.402803 0.30092,0.601802 0.10028,0.200204 0.2006,0.397999 0.30091,0.593411 0.10028,0.196604 0.20062,0.390812 0.30092,0.583815 0.10028,0.193017 0.20198,0.383624 0.30229,0.57304 0.10028,0.189404 0.20059,0.377616 0.30092,0.563433 0.10028,0.187021 0.20061,0.371632 0.3009,0.553849 0.10028,0.183421 0.20062,0.364446 0.30092,0.543062 0.10028,0.179821 0.20061,0.357246 0.30091,0.533479 0.10028,0.17622 0.20061,0.350046 0.30228,0.522679 0.10028,0.17262 0.20061,0.344049 0.30092,0.513083 0.10028,0.169034 0.2006,0.335671 0.3009,0.501105 0.10038,0.166637 0.20063,0.329675 0.30093,0.491508 0.10028,0.163039 0.20061,0.32249 0.30092,0.481926 0.10028,0.158247 0.20059,0.315289 0.3009,0.469935 0.10169,0.155838 0.20199,0.309292 0.3023,0.460339 0.10028,0.152251 0.20061,0.302106 0.30091,0.450756 0.10028,0.14865 0.20061,0.294906 0.30091,0.439956 0.10028,0.145063 0.20061,0.287719 0.30092,0.429182 0.10028,0.141463 0.20061,0.281722 0.30091,0.419585 0.10028,0.137864 0.20197,0.274523 0.30229,0.409991 0.10028,0.134263 0.20061,0.267335 0.3009,0.399203 0.10028,0.131866 0.20062,0.261339 0.30092,0.389606 0.10028,0.12828 0.2006,0.255358 0.30092,0.380024 0.10028,0.125886 0.2006,0.249362 0.3009,0.371634 0.10028,0.12108 0.20063,0.24216 0.3023,0.360845 0.10028,0.118685 0.2006,0.236165 0.30091,0.351251 0.10028,0.116288 0.20063,0.230168 0.30092,0.342858 0.10028,0.112688 0.20061,0.224173 0.30092,0.334466 0.10028,0.10909 0.2006,0.218191 0.3009,0.324884 0.10028,0.106693 0.20062,0.212182 0.30091,0.315288 0.10169,0.104285 0.20199,0.207391 0.30229,0.308089 0.10028,0.100698 0.20061,0.201395 0.30091,0.299696 0.10028,0.0983 0.20061,0.195413 0.30091,0.290115 0.10028,0.0959 0.20062,0.190621 0.30093,0.282927 0.10028,0.0935 0.2006,0.184612 0.30091,0.275727 0.10028,0.08991 0.20199,0.178616 0.30229,0.26613 0.10028,0.08871 0.20061,0.175029 0.30092,0.260148 0.10028,0.08511 0.2006,0.169021 0.3009,0.251744 0.10028,0.08272 0.20062,0.164242 0.30091,0.245761 0.10028,0.08031 0.20063,0.159438 0.30093,0.237356 0.10028,0.07793 0.2006,0.154647 0.30227,0.23017 0.10028,0.07553 0.20061,0.151059 0.30092,0.224186 0.10028,0.07313 0.20061,0.146255 0.30091,0.216987 0.10028,0.07192 0.20061,0.141451 0.30092,0.210991 0.10028,0.06952 0.20061,0.137863 0.30091,0.204995 0.10028,0.06713 0.20061,0.133059 0.30091,0.197794 0.10169,0.06473 0.20198,0.129472 0.3023,0.191812 0.10028,0.06355 0.20061,0.125872 0.3009,0.187021 0.10028,0.06114 0.20063,0.12108 0.30093,0.179821 0.10028,0.05993 0.2006,0.11748 0.30091,0.175016 0.10028,0.05755 0.20061,0.113893 0.3009,0.170237 0.10028,0.05514 0.20199,0.110294 0.3023,0.164243 0.10028,0.05393 0.2006,0.106694 0.3009,0.158233 0.10028,0.05274 0.20062,0.104298 0.30092,0.154647 0.10028,0.05034 0.2006,0.0995 0.30093,0.148651 0.10028,0.04916 0.20059,0.09711 0.3009,0.145063 0.10028,0.04675 0.20062,0.09351 0.30228,0.139054 0.10028,0.04556 0.20063,0.09112 0.30093,0.135468 0.10028,0.04435 0.20061,0.08751 0.30091,0.130676 0.10028,0.04315 0.20061,0.08511 0.30091,0.127076 0.10028,0.04075 0.20061,0.08152 0.30091,0.122273 0.10038,0.03956 0.20062,0.07912 0.30228,0.118685 0.10028,0.03836 0.20062,0.07673 0.30091,0.113879 0.10028,0.03837 0.20063,0.07434 0.30093,0.111497 0.10028,0.03597 0.2006,0.07192 0.30092,0.106695 0.10028,0.03476 0.2006,0.06952 0.3009,0.103093 0.10028,0.03476 0.20061,0.06713 0.30092,0.100697 0.10169,0.03237 0.20198,0.06473 0.30229,0.0959 0.10028,0.03237 0.20062,0.06355 0.30091,0.09351 0.10028,0.03117 0.20061,0.06114 0.30091,0.09112 0.10028,0.02876 0.20062,0.05875 0.30092,0.08751 0.10028,0.02757 0.20062,0.05633 0.30091,0.08392 0.10028,0.02757 0.20199,0.05393 0.30229,0.08152 0.10028,0.02636 0.2006,0.05274 0.30091,0.07792 0.10028,0.02637 0.20061,0.05154 0.30091,0.07672 0.10028,0.02397 0.20061,0.04915 0.30092,0.07313 0.10028,0.02397 0.20061,0.04676 0.30092,0.07073 0.10028,0.02277 0.20061,0.04556 0.30228,0.06833 0.10028,0.02159 0.20061,0.04436 0.30093,0.06593 0.10028,0.02158 0.2006,0.04196 0.3009,0.06354 0.10028,0.02039 0.20062,0.04075 0.30091,0.06114 0.10028,0.02039 0.20061,0.03956 0.30092,0.05994 0.10028,0.01919 0.2006,0.03836 0.3009,0.05635 0.10169,0.01919 0.20199,0.03716 0.30229,0.05515 0.10028,0.01798 0.20061,0.03597 0.30091,0.05394 0.10028,0.01678 0.20062,0.03357 0.30093,0.05035 0.10028,0.01679 0.2006,0.03357 0.30091,0.05034 0.10028,0.01558 0.2006,0.03237 0.30091,0.04796 0.10028,0.01558 0.20198,0.02997 0.3023,0.04556 0.10028,0.01558 0.20061,0.02997 0.3009,0.04436 0.10028,0.01438 0.20062,0.02877 0.30092,0.04316 0.10028,0.01319 0.2006,0.02757 0.30092,0.04075 0.10028,0.01318 0.20061,0.02637 0.3009,0.03956 0.10028,0.01318 0.20062,0.02637 0.30228,0.03836 0.10038,0.01319 0.20062,0.02517 0.30092,0.03716 0.10028,0.01199 0.20062,0.02397 0.30093,0.03596 0.10028,0.01079 0.20059,0.02277 0.30091,0.03357 0.10028,0.01199 0.20059,0.02278 0.3009,0.03357 0.10028,0.01079 0.20063,0.02159 0.30092,0.03237 0.10168,0.0096 0.20199,0.02039 0.30229,0.02997 0.10028,0.0096 0.20062,0.02039 0.30092,0.02998 0.10028,0.0096 0.20061,0.01919 0.30091,0.02877 0.10028,0.0084 0.20061,0.01799 0.30091,0.02637 0.10028,0.0096 0.20061,0.01798 0.30091,0.02637 0.10028,0.0096 0.20199,0.01798 0.30229,0.02637 0.10028,0.0084 0.2006,0.01558 0.30091,0.02397 0.10028,0.0084 0.2006,0.01558 0.30091,0.02397 0.10028,0.0072 0.20062,0.01438 0.30093,0.02277 0.10028,0.0072 0.2006,0.01438 0.30091,0.02159 0.10028,0.0072 0.2006,0.01438 0.30229,0.02039 0.10028,0.0072 0.20061,0.01438 0.30092,0.02039 0.10028,0.0072 0.2006,0.01319 0.3009,0.02038 0.10028,0.006 0.20061,0.01199 0.30091,0.01798 0.10028,0.006 0.20063,0.01199 0.30093,0.01799 0.10028,0.006 0.2006,0.01199 0.3009,0.01799 0.10168,0.006 0.20197,0.01079 0.30229,0.01678 0.10028,0.0048 0.20061,0.01079 0.30092,0.01558 0.10028,0.006 0.2006,0.01079 0.30091,0.01558 0.10028,0.0048 0.20059,0.01079 0.30091,0.01558 0.10028,0.0048 0.20061,0.0096 0.30091,0.01438 0.10028,0.0036 0.20198,0.0084 0.3023,0.01319 0.10028,0.0048 0.2006,0.0084 0.3009,0.01319 0.10028,0.0048 0.20063,0.0084 0.30093,0.01318 0.10028,0.0036 0.2006,0.0084 0.30091,0.01199 0.10028,0.0036 0.2006,0.0084 0.3009,0.01199 0.10028,0.0036 0.20062,0.0072 0.30229,0.01079 0.10028,0.0036 0.20061,0.0072 0.30091,0.01079 0.10028,0.0036 0.20061,0.0072 0.30092,0.01079 0.10028,0.0036 0.2006,0.0072 0.30093,0.01079 0.10028,0.0024 0.20059,0.006 0.3009,0.0096 0.10028,0.0024 0.20061,0.006 0.30228,0.0084 0.10028,0.0036 0.20063,0.006 0.30093,0.0096 0.10028,0.0024 0.20061,0.006 0.30091,0.0084 0.10028,0.0024 0.2006,0.006 0.3009,0.0084 0.10028,0.0024 0.20062,0.0048 0.30092,0.0084 0.10028,0.0024 0.20062,0.0048 0.30092,0.0072 0.10168,0.0024 0.20197,0.0048 0.30227,0.0072 0.10028,0.0024 0.20063,0.0048 0.30094,0.0072 0.10028,0.0024 0.20059,0.0048 0.3009,0.0072 0.10028,0.0024 0.2006,0.0036 0.30091,0.006 0.10028,0.0024 0.20062,0.0048 0.30092,0.006 0.10028,0.0024 0.20198,0.0048 0.30229,0.006 0.10028,0.0024 0.2006,0.0048 0.30091,0.006 0.10028,0.0024 0.20061,0.0036 0.30091,0.006 0.10028,0.0012 0.20062,0.0036 0.30092,0.0048 0.10028,0.0024 0.20061,0.0036 0.30091,0.006 0.10028,0.0012 0.20061,0.0024 0.30229,0.0048 0.10028,0.0012 0.2006,0.0024 0.30091,0.0048 0.10028,0.0012 0.2006,0.0024 0.30091,0.0048 0.10028,0.0012 0.20061,0.0024 0.30092,0.0036 0.10028,0.0012 0.20059,0.0036 0.30092,0.0048 0.10028,0.0012 0.2006,0.0024 0.3009,0.0036 0.10168,0.0012 0.20199,0.0024 0.30231,0.0036 0.10028,0.0012 0.2006,0.0024 0.3009,0.0036 0.10028,0.0012 0.20061,0.0024 0.30091,0.0036 0.10028,0.0012 0.20061,0.0024 0.30092,0.0036 0.10028,0.0012 0.2006,0.0024 0.3009,0.0036 0.10038,0.0012 0.20198,0.0024 0.30228,0.0036 0.10028,0.0012 0.20062,0.0012 0.30093,0.0024 0.10028,0.0012 0.20061,0.0024 0.30092,0.0036 0.10028,0 0.20059,0.0012 0.30091,0.0024 0.10028,0.0012 0.20061,0.0012 0.30091,0.0024 0.10028,0.0012 0.20061,0.0024 0.30229,0.0024 0.10028,0.0012 0.20061,0.0024 0.30091,0.0024 0.10028,0.0012 0.20062,0.0024 0.30092,0.0024 0.10028,0.0012 0.2006,0.0024 0.30092,0.0024 0.10028,0.0012 0.2006,0.0024 0.3009,0.0024 0.10028,0.0012 0.20062,0.0012 0.30093,0.0024 0.10167,0 0.20197,0.0012 0.30227,0.0024 0.10028,0 0.20061,0.0012 0.30092,0.0012 0.10028,0.0012 0.2006,0.0012 0.30091,0.0024 0.10028,0 0.2006,0.0012 0.30091,0.0012 0.10028,0.0012 0.20062,0.0012 0.30092,0.0024 0.10028,0 0.20199,0.0012 0.30229,0.0012 0.10028,0 0.2006,0.0012 0.30092,0.0012 0.10028,0.0012 0.2006,0.0012 0.3009,0.0024 0.10028,0 0.20062,0 0.30092,0.0012 0.10028,0 0.20061,0.0012 0.30091,0.0012 0.10028,0 0.2006,0.0012 0.30228,0.0012 0.10028,0 0.20061,0.0012 0.30093,0.0012 0.10028,0.0012 0.20059,0.0012 0.3009,0.0012 0.10028,0.0012 0.20061,0.0012 0.30092,0.0012 0.10028,0.0012 0.20061,0.0012 0.30092,0.0012 0.10028,0 0.2006,0.0012 0.3009,0.0012 0.10169,0 0.20199,0.0012 0.3023,0.0012 0.10028,0 0.20061,0 0.30091,0.0012 0.10028,0 0.20061,0 0.30091,0.0012 0.10028,0 0.2006,0 0.30092,0 0.10028,0.0012 0.20061,0.0012 0.30092,0.0012 0.10028,0 0.20196,0.0012 0.30228,0.0012 0.10028,0 0.2006,0 0.30091,0 0.10028,0.0012 0.20061,0.0012 0.30092,0.0012 0.10028,0 0.20059,0 0.30091,0.0012 0.10028,0 0.2006,0 0.3009,0 0.10028,0 0.20063,0.0012 0.3023,0.0012 0.10028,0 0.20061,0 0.30091,0 0.10028,0.0012 0.20062,0.0012 0.30092,0.0012 0.10028,0 0.20061,0 0.30092,0 0.10028,0.0012 0.2006,0.0012 0.3009,0.0012 0.10028,0 0.20061,0 0.30092,0 0.10168,0.0012 0.20198,0.0012 0.30229,0.0012 0.10028,0 0.2006,0 0.30091,0 0.10028,0 0.20059,0.0012 0.3009,0.0012 0.10028,0 0.20063,0 0.30093,0 0.10028,0 0.20061,0 0.30091,0 0.10169,0.0012 0.20199,0.0012 0.30229,0.0012 0.10028,0 0.20061,0 0.30092,0 0.10028,0 0.2006,0 0.3009,0 0.10028,0.0012 0.20061,0.0012 0.30091,0.0012 0.10028,0 0.20063,0 0.30093,0 0.10028,0 0.20197,0 0.30227,0 0.10028,0 0.2006,0.0012 0.30093,0.0012 0.10028,0 0.2006,0 0.30091,0 0.10028,0 0.2006,0 0.30091,0 0.10028,0 0.20061,0 0.30091,0 0.10028,0 0.20061,0.0012 0.3023,0.0012 0.10028,0 0.2006,0 0.30091,0 0.10028,0 0.2006,0 0.3009,0 0.10038,0 0.20063,0 0.30093,0 0.10028,0 0.2006,0 0.30091,0 0.10028,0.0012 0.2006,0.0012 0.30091,0.0012 0.10168,0 0.20198,0 0.3023,0 0.10028,0 0.20059,0 0.3009,0 0.10028,0 0.2006,0 0.30091,0 0.10028,0 0.20061,0 0.30092,0 0.10028,0 0.2006,0 0.3009,0.0012 0.10028,0 0.20199,0 0.30229,0 0.10028,0 0.20062,0 0.30092,0 0.10028,0 0.20062,0 0.30092,0 0.10028,0 0.2006,0 0.30091,0 0.10028,0 0.20061,0 0.30092,0 0.10028,0 0.2006,0 0.30227,0 0.10028,0 0.20062,0 0.30092,0 0.10028,0 0.20061,0.0012 0.30092,0.0012 0.10028,0 0.20059,0 0.3009,0 0.10028,0 0.20062,0 0.30092,0 0.10028,0 0.20062,0 0.30092,0 0.10168,0 0.20199,0 0.30229,0 0.10028,0 0.20062,0 0.30091,0 0.10028,0 0.20061,0 0.30091,0 0.10028,0 0.20061,0 0.30091,0 0.10028,0 0.20063,0 0.30093,0 0.10028,0 0.20197,0 0.30228,0 0.10028,0 0.20059,0 0.30092,0 0.10028,0 0.2006,0 0.3009,0 0.10028,0 0.20062,0.0012 0.30092,0.0012 0.10028,0 0.20061,0 0.30091,0 0.10028,0 0.20061,0 0.30229,0 0.10028,0 0.20061,0 0.30092,0 0.10028,0 0.2006,0 0.3009,0 0.10038,0 0.20063,0 0.30092,0 0.10028,0 0.20061,0 0.30092,0 0.10028,0 0.2006,0 0.30091,0 0.10168,0 0.20198,0 0.30229,0 0.10028,0 0.2006,0 0.30091,0 0.10028,0 0.2006,0 0.30091,0 0.10028,0 0.20061,0 0.30092,0 0.10028,0 0.20061,0 0.30091,0 0.10028,0 0.20198,0 0.30228,0 0.10028,0 0.20063,0 0.30092,0 0.10028,0 0.20062,0 0.30092,0 0.10028,0 0.2006,0 0.30091,0 0.10028,0 0.20061,0 0.30091,0 0.10028,0 0.20062,0 0.30229,0 0.10028,0 0.2006,0 0.30091,0 0.10028,0 0.20062,0 0.30092,0 0.10028,0 0.20061,0 0.30092,0 0.10028,0 0.2006,0 0.3009,0 0.10028,0 0.20062,0 0.30091,0 0.10169,0 0.202,0 0.3023,0 0.10028,0 0.20061,0 0.30091,0.0012 0.10028,0 0.20061,0 0.3009,0 0.10038,0 0.20063,0 0.30093,0 0.10028,0 0.20061,0 0.30092,0 0.10168,0 0.20198,0 0.30228,0 0.10028,0 0.2006,0 0.30092,0 0.10028,0 0.20059,0 0.3009,0 0.10028,0 0.20062,0 0.30091,0 0.10028,0 0.20063,0 0.30093,0 0.10028,0 0.20198,0 0.30228,0 0.10028,0 0.20061,0 0.30092,0 0.10028,0 0.20061,0 0.30091,0 0.10028,0 0.20061,0 0.30091,0 0.10028,0 0.20061,0 0.30092,0 0.10028,0 0.2006,0 0.30228,0 0.10028,0 0.2006,0 0.30092,0 0.10028,0 0.2006,0 0.3009,0 0.10028,0 0.20063,0 0.30093,0 0.10028,0 0.2006,0 0.30091,0 0.10028,0 0.20061,0 0.3009,0 0.10169,0 0.202,0 0.30231,0 0.10028,0 0.2006,0 0.3009,0 0.10028,0 0.20062,0 0.30091,0 0.10028,0 0.20061,0 0.30093,0 0.10028,0 0.2006,0 0.30091,0 0.10028,0 0.20197,0 0.30227,0 0.10028,0 0.20062,0 0.30093,0 0.10028,0 0.2006,0 0.30091,0 0.10028,0 0.20061,0 0.30091,0 0.10028,0 0.20061,0 0.30091,0 0.10028,0 0.20062,0 0.30229,0 0.10028,0 0.20062,0 0.30091,0 0.10028,0 0.20063,0 0.30093,0 0.10028,0 0.2006,0 0.3009,0 0.10028,0 0.20062,0 0.30092,0 0.10028,0 0.20061,0 0.30092,0 0.10167,0 0.20197,0 0.30228,0 0.10028,0 0.2006,0 0.30091,0 0.10028,0 0.20061,0 0.30091,0 0.10028,0 0.20062,0 0.30092,0 0.10028,0 0.20062,0 0.30091,0 0.10028,0 0.202,0 0.3023,0 0.10028,0 0.2006,0 0.30091,0 0.10028,0 0.20061,0 0.3009,0 0.10028,0 0.20062,0 0.30092,0 0.10028,0 0.20062,0 0.30093,0 0.10028,0 0.2006,0 0.30227,0 0.10028,0 0.2006,0 0.30093,0 0.10028,0 0.20059,0 0.3009,0 0.10028,0 0.20062,0 0.30091,0 0.10028,0 0.20061,0 0.30092,0 0.10028,0 0.2006,0 0.3009,0 0.10169,0 0.202,0 0.3023,0 0.10028,0 0.20061,0 0.30091,0 0.10028,0 0.20062,0 0.30092,0 0.10028,0 0.20061,0 0.30092,0 0.10028,0 0.2006,0 0.30091,0 0.10028,0 0.20197,0 0.30228,0 0.10028,0 0.20061,0 0.30091,0 0.10028,0 0.20062,0 0.30092,0 0.10028,0 0.2006,0 0.30092,0 0.10028,0 0.20061,0 0.3009,0 0.10028,0 0.20062,0 0.30229,0 0.10028,0 0.20062,0 0.30092,0 0.10028,0 0.20062,0 0.30091,0 0.10028,0 0.20061,0 0.30092,0 0.10028,0 0.2006,0 0.30091,0 0.10028,0 0.20062,0 0.30092,0 0.10167,0 0.20197,0 0.30228,0 0.10028,0 0.20061,0 0.30092,0 0.10028,0 0.20061,0 0.3009,0 0.10028,0 0.20062,0 0.30092,0 0.10028,0 0.20061,0 0.30091,0 0.10028,0 0.202,0 0.30229,0 0.10028,0 0.20061,0 0.30092,0 0.10028,0 0.2006,0 0.3009,0 0.10038,0 0.20063,0 0.30093,0 0.10028,0 0.20061,0 0.30092,0 0.10028,0 0.20197,0 0.30228,0 0.10028,0 0.2006,0 0.30091,0 0.10028,0 0.20061,0 0.30091,0 0.10028,0 0.20061,0 0.30091,0 0.10028,0 0.20061,0 0.30092,0 0.10028,0 0.20061,0 0.30229,0 0.10028,0 0.2006,0 0.30092,0 0.10028,0 0.20061,0 0.3009,0 0.10028,0 0.20062,0 0.30092,0 0.10028,0 0.2006,0 0.30092,0 0.10028,0 0.2006,0 0.30089,0 0.10169,0 0.20199,0 0.3023,0 0.10028,0 0.2006,0 0.30091,0 0.10028,0 0.20063,0 0.30092,0 0.10028,0 0.20061,0 0.30092,0 0.10028,0 0.2006,0 0.3009,0 0.10028,0 0.202,0 0.30229,0 0.10028,0 0.20062,0 0.30092,0 0.10028,0 0.20061,0 0.30091,0 0.10028,0 0.20061,0 0.30093,0 0.10028,0 0.2006,0 0.30091,0 0.10027,0 0.20059,0 0.30227,0 0.10028,0 0.20062,0 0.30092,0 0.10028,0 0.20061,0 0.30092,0 0.10028,0 0.2006,0 0.3009,0 0.10028,0 0.20062,0 0.30091,0 0.10028,0 0.20063,0 0.30093,0 0.10168,0 0.20198,0 0.30228,0 0.10028,0 0.20061,0 0.30092,0 0.10028,0 0.20061,0 0.30091,0 0.10028,0 0.20061,0 0.30092,0 0.10028,0 0.20061,0 0.3009,0 0.10028,0 0.20199,0 0.3023,0 0.10028,0 0.20059,0 0.30091,0 0.10028,0 0.20061,0 0.3009,0 0.10028,0 0.20063,0 0.30093,0 0.10028,0 0.20061,0 0.30091,0 0.10028,0 0.20061,0 0.30229,0 0.10028,0 0.20061,0 0.30092,0 0.10028,0 0.2006,0 0.3009,0 0.10028,0 0.20062,0 0.30092,0 0.10028,0 0.2006,0 0.30093,0 0.10027,0 0.20058,0 0.30089,0 0.10168,0 0.20198,0 0.3023,0 0.10028,0 0.2006,0 0.30091,0 0.10028,0 0.20061,0 0.30091,0 0.10028,0 0.20061,0 0.30091,0 0.10028,0 0.20061,0 0.30091,0 0.10038,0 0.20199,0 0.30229,0 0.10028,0 0.20062,0 0.30091,0 0.10028,0 0.20063,0 0.30093,0 0.10028,0 0.2006,0 0.30092,0 0.10028,0 0.2006,0 0.30089,0 0.10028,0 0.20061,0 0.3023,0 0.10028,0 0.2006,0 0.30091,0 0.10028,0 0.20062,0 0.30091,0 0.10028,0 0.20061,0 0.30091,0 0.10028,0 0.20062,0 0.30092,0 0.10028,0 0.20062,0 0.30091,0 0.1017,0 0.202,0 0.3023,0 0.10028,0 0.2006,0 0.30091,0 0.10028,0 0.20061,0 0.30091,0 0.10028,0 0.20061,0 0.30092,0 0.10027,0 0.2006,0 0.30091,0 0.10028,0 0.20198,0 0.30228,0 0.10028,0 0.2006,0 0.30093,0 0.10028,0 0.2006,0 0.3009,0"
       title="t pow(2.7, -0.5*t)*pow(t, 2)*20"
       id="path5910"
       transform="matrix(0.75000002,0,0,-0.75000002,0,156.61)" /><path
       style="fill:#ffffff;stroke:none;stroke-width:0.75px;stroke-linecap:butt;stroke-linejoin:miter;stroke-opacity:1;fill-opacity:1"
       d="m 156.65625,99.129531 0.18164,0.316406 0.36914,0.02344 0.0117,-1.968754 h -0.5625 z"
       id="path915" /></g><g
     inkscape:groupmode="layer"
     id="layer2"
     inkscape:label="df6"
     style="display:inline" /></svg>
